<svg id="Layer_1" height="512" viewBox="0 0 512 512" width="512" xmlns="http://www.w3.org/2000/svg" data-name="Layer 1"><path d="m373.918 60.338a91.921 91.921 0 0 0 -20.548-1.071c-45.51 2.68-81.81 39.776-81.96 83.576-.1 27.07 13.02 50.989 33.61 66.289a44.384 44.384 0 0 1 17.62 31.868h30a44.378 44.378 0 0 0 -17.62-31.865c-20.59-15.3-33.71-39.268-33.61-66.338.139-40.719 31.528-75.597 72.508-82.459z" fill="#d4e1f4"/><g fill="#0635c9"><path d="m359 49.42a6 6 0 0 0 6-6v-32.42a6 6 0 0 0 -12 0v32.42a6 6 0 0 0 6 6z"/><path d="m455.791 146a6 6 0 0 0 6 6h32.42a6 6 0 0 0 0-12h-32.42a6 6 0 0 0 -6 6z"/><path d="m223.505 152h32.42a6 6 0 0 0 0-12h-32.42a6 6 0 0 0 0 12z"/><path d="m431.643 79.568a5.982 5.982 0 0 0 4.242-1.757l22.925-22.924a6 6 0 0 0 -8.486-8.486l-22.924 22.925a6 6 0 0 0 4.243 10.242z"/><path d="m281.831 77.811a6 6 0 0 0 8.485-8.485l-22.924-22.926a6 6 0 0 0 -8.486 8.486z"/></g><path d="m434.426 315.339c7.643 0 15.361 5.508 19.206 13.706a5.961 5.961 0 0 0 11.368-2.545v-77.075c0-3.314-2.622-6.425-5.936-6.425h-58.064v12h52v54.777a30.066 30.066 0 0 0 -18.606-6.438c-18.231 0-33.046 17.869-33.046 39.831s14.807 39.83 33.038 39.83a30.085 30.085 0 0 0 18.614-6.435v56.435h-76.15a5.761 5.761 0 0 0 -5.85 5.867v9.146a5.935 5.935 0 0 0 3.956 5.668c9.577 3.326 16.228 11.656 16.228 20.257 0 11.614-12.5 21.062-27.85 21.062s-27.84-9.448-27.84-21.062c0-8.6 6.794-16.928 16.371-20.258a6.1 6.1 0 0 0 4.135-5.667v-9.146a6.08 6.08 0 0 0 -6.22-5.867h-73.78v-75.319c0-3.313-3.057-5.681-6.37-5.681h-10.162a5.858 5.858 0 0 0 -5.665 3.865c-3.341 9.581-11.672 16.192-20.26 16.192-11.613 0-21.062-12.525-21.062-27.872s9.449-27.851 21.062-27.851c8.588 0 16.919 6.876 20.26 16.457a6.171 6.171 0 0 0 5.665 4.209h10.162a6.669 6.669 0 0 0 6.37-6.389v-75.611h40v-12h-121.508c11.733-5.927 19.9-17.546 19.9-29.666 0-18.23-17.823-33.062-39.786-33.062s-39.864 14.832-39.864 33.062c0 12.12 8.042 23.74 19.77 29.666h-74.59c-3.313 0-5.922 3.108-5.922 6.421v72.473c-6-11.2-17.382-18.619-29.11-18.619-18.231 0-33.082 17.868-33.082 39.831s14.861 39.831 33.092 39.831c11.731 0 23.1-7.414 29.1-18.616v74.534a6.06 6.06 0 0 0 5.922 6.145h79.015a6.068 6.068 0 0 0 2.546-11.542c-8.2-3.841-13.7-11.577-13.7-19.222 0-11.613 12.485-21.071 27.831-21.071s27.831 9.444 27.831 21.057c0 7.643-5.507 15.359-13.7 19.2a6.087 6.087 0 0 0 2.539 11.578h149.816c-11.2 6-18.618 17.277-18.618 29 0 18.23 17.868 33.028 39.831 33.028s39.831-14.781 39.831-33.012c0-11.73-7.414-23.021-18.616-29.021h74.534a6.061 6.061 0 0 0 5.938-6.128v-79.022a5.971 5.971 0 0 0 -11.385-2.547c-3.842 8.2-11.552 13.7-19.2 13.7-11.614 0-21.058-12.484-21.058-27.831s9.455-27.828 21.069-27.828zm-170.426 117.661h-55c4.1-6 6.437-12.051 6.437-18.71 0-18.23-17.868-33.134-39.831-33.134s-39.831 14.9-39.831 33.134c0 6.66 2.335 12.71 6.436 18.71h-56.211v-76.359a5.772 5.772 0 0 0 -6.078-5.641h-9.146a5.842 5.842 0 0 0 -5.668 3.852c-3.326 9.576-11.656 16.175-20.257 16.175-11.613 0-21.062-12.53-21.062-27.876s9.449-27.851 21.062-27.851c8.6 0 16.929 6.892 20.258 16.47a6.19 6.19 0 0 0 5.667 4.23h9.146a6.447 6.447 0 0 0 6.078-6.428v-74.572h75.111a5.56 5.56 0 0 0 5.889-5.579v-10.162a5.949 5.949 0 0 0 -3.969-5.665c-9.58-3.341-16.244-11.672-16.244-20.26 0-11.614 12.5-21.062 27.845-21.062s27.838 9.448 27.838 21.062c0 8.587-6.778 16.918-16.359 20.26a6.08 6.08 0 0 0 -4.111 5.665v10.162c0 3.314 2.866 5.579 6.18 5.579h75.82v70h-.531c-5.844-13-17.634-20.491-29.926-20.491-18.23 0-33.062 17.771-33.062 39.734s14.832 39.942 33.062 39.942c12.293 0 24.082-8.185 29.926-20.185h.531z" fill="#1ae5be"/><path d="m107 267.585a6 6 0 0 0 -6 6v3.788a6 6 0 0 0 12 0v-3.788a6 6 0 0 0 -6-6z" fill="#1ae5be"/><path d="m107 288.839a6 6 0 0 0 -6 6v71.869a6 6 0 0 0 12 0v-71.869a6 6 0 0 0 -6-6z" fill="#1ae5be"/><path d="m353.014 52.294a94.265 94.265 0 0 0 -61.914 28.15c-16.483 16.82-25.606 38.62-25.688 61.387-.1 28.179 13.035 54.138 36.039 71.221a37.954 37.954 0 0 1 14.4 21.247 5.853 5.853 0 0 0 -4.851 5.913v17.288c0 3.313 2.349 6.5 5.663 6.5h.337v3h-.337a5.524 5.524 0 0 0 -5.663 5.765v16.7a5.342 5.342 0 0 0 5.663 5.535h4.731l5 13.135a6 6 0 0 0 5.606 3.865h53.707a6 6 0 0 0 5.607-3.865l5-13.135h4.731c3.314 0 5.947-2.226 5.947-5.539v-16.7a5.759 5.759 0 0 0 -5.939-5.761h-.053v-3h.053c3.314 0 5.947-3.187 5.947-6.5v-17.288a5.973 5.973 0 0 0 -4.969-5.909 37.77 37.77 0 0 1 14.054-21.062c23.012-17.3 36.217-43.214 36.217-71.092a87.761 87.761 0 0 0 -28.088-64.336 95.833 95.833 0 0 0 -71.2-25.519zm28.563 247.706h-45.438l-1.9-5h49.246zm13.423-17h-72v-4h72zm-66-16v-3h60v3zm66-15h-72v-6h72zm20.985-165.456a75.877 75.877 0 0 1 24.323 55.605c0 24.071-11.452 46.381-31.421 61.394a49.538 49.538 0 0 0 -19.087 30.457h-61.871a49.774 49.774 0 0 0 -19.329-30.688c-19.911-14.786-31.28-37.165-31.193-61.491.07-19.623 7.975-38.43 22.259-53a82.259 82.259 0 0 1 54.051-24.557 83.826 83.826 0 0 1 62.268 22.28z" fill="#0635c9"/></svg>