<?xml version="1.0" encoding="utf-8"?>
<!-- Generator: Adobe Illustrator 25.4.1, SVG Export Plug-In . SVG Version: 6.00 Build 0)  -->
<svg version="1.1" id="Layer_1" xmlns="http://www.w3.org/2000/svg" xmlns:xlink="http://www.w3.org/1999/xlink" x="0px" y="0px"
	 viewBox="0 0 512 512" style="enable-background:new 0 0 512 512;" xml:space="preserve">
<style type="text/css">
	.st0{fill:#D4E1F4;}
	.st1{fill:#E6332A;}
	.st2{fill:#060D47;}
</style>
<path class="st0" d="M74.1,378.2L72.6,55.9C72.4,31.8,91.8,12.1,115.9,12c0.1,0,0.1,0,0.2,0h-30C62,12,42.5,31.6,42.5,55.6
	c0,0.1,0,0.1,0,0.2l1.6,322.4c0.1,24.2,19.8,43.7,43.9,43.5c0,0,0,0,0,0l26.3-0.2C91.7,419.8,74.2,401,74.1,378.2z"/>
<path class="st1" d="M353.4,297.8c-46.9,0-84.9,38-84.9,84.9s38,84.9,84.9,84.9s84.9-38,84.9-84.9l0,0
	C438.3,335.8,400.3,297.9,353.4,297.8z M382,449.7c-18.2,7.8-38.8,7.8-57,0.1v-20.9c0-9.1,7.5-16.9,16.6-16.9h23.9
	c9.1,0,16.5,7.8,16.5,16.9V449.7z M336.1,368c9.5,0,17.2-8,17.6-17H373v19.8c0,10.5-9,19.1-19.5,19.1s-19.5-8.6-19.5-19.1V368H336.1
	z M334,356v-3.8c0.1-10.6,8.7-19.1,19.3-19.1c2.2,0.2,4.4,0.6,6.6,1.4c2.6,0.8,5.4,1.3,8.2,1.3c2.6,0,5.2,1.2,6.9,3.2H353
	c-6.3,0-11.3,5.1-11.3,11.4c0,3.1-2.5,5.6-5.6,5.6H334z M394,443.2v-14.3c0-15.7-12.7-28.9-28.5-28.9H363c12.6-4,22-15.4,22-29.2
	v-20.2c2.5-0.9,4.2-3.2,4.4-5.8c-0.1-11.7-9.5-21.1-21.2-21.1c-1.6,0-3.1-0.2-4.7-0.7c-3.3-1.1-6.7-1.7-10.2-1.9
	c-17.2,0-31.2,13.9-31.4,31.1v18.5c0,13.9,9.6,25.2,22.2,29.2h-2.5c-15.7,0-28.6,13.2-28.6,28.9v14.5
	c-20.4-13.4-32.7-36.2-32.5-60.7c0-40.3,32.6-72.9,72.9-72.9s72.9,32.6,72.9,72.9C426.3,407.9,414,430.1,394,443.2z"/>
<path class="st1" d="M371,421h-4.9c-3.3,0-6,2.7-6,6s2.7,6,6,6h4.9c3.3,0,6-2.7,6-6S374.3,421,371,421z"/>
<g>
	<path class="st2" d="M348,280.3l12-0.1L359.2,121c0-1.6-0.6-3.1-1.8-4.2L248.9,9.6c-3-2.9-7-4.6-11.2-4.6L86.1,5.8
		c-27.5,0.2-49.6,22.5-49.5,50l1.6,322.6c0.2,27.4,22.4,49.6,49.8,49.6h0.2l150.4-1l-0.1-12l-150.4,1h-0.2
		c-20.8-0.1-37.7-16.9-37.8-37.7L48.6,55.8c-0.1-20.9,16.7-37.8,37.6-38L235.9,17l0.3,61.2c0.1,27.4,22.4,49.6,49.8,49.7h0.2l61-0.6
		L348,280.3z M286.1,116h-0.2c-20.8-0.1-37.7-17-37.8-37.8l-0.2-52.8l90.8,89.8L286.1,116z"/>
	<path class="st2" d="M72,59.2c3.3,0,6-2.7,6-6v-3.7c0-3.3-2.7-6-6-6s-6,2.7-6,6v3.7C66,56.6,68.7,59.2,72,59.2z"/>
	<path class="st2" d="M66,125.6c0,3.3,2.7,6,6,6s6-2.7,6-6V75c0-3.3-2.7-6-6-6s-6,2.7-6,6V125.6z"/>
	<path class="st2" d="M309.2,242c0-3.3-2.7-6-6-6h-121c-3.3,0-6,2.7-6,6s2.7,6,6,6h121C306.6,248,309.2,245.3,309.2,242L309.2,242z"
		/>
	<path class="st2" d="M121.2,240.9l-13.5,12.9l-5.5-5.5c-2.3-2.3-6.1-2.3-8.5,0s-2.3,6.1,0,8.5l9.6,9.6c2.3,2.3,6,2.3,8.4,0.1
		l17.7-16.9c2.4-2.3,2.5-6.1,0.2-8.5C127.4,238.7,123.6,238.6,121.2,240.9L121.2,240.9L121.2,240.9z"/>
	<path class="st2" d="M111.6,212.6c-22.7,0-41,18.4-41,41c0,22.7,18.4,41,41,41s41-18.4,41-41l0,0
		C152.6,231,134.3,212.7,111.6,212.6z M111.6,282.7c-16,0-29-13-29-29s13-29,29-29s29,13,29,29C140.6,269.7,127.7,282.7,111.6,282.7
		z"/>
	<path class="st2" d="M268.9,262c0-3.3-2.7-6-6-6h-80.7c-3.3,0-6,2.7-6,6s2.7,6,6,6h80.7C266.2,268,268.9,265.3,268.9,262z"/>
	<path class="st2" d="M246.8,332c0-3.3-2.7-6-6-6h-58.6c-3.3,0-6,2.7-6,6s2.7,6,6,6h58.6C244.1,338,246.8,335.3,246.8,332z"/>
	<path class="st2" d="M121.2,331.6l-13.5,12.9l-5.5-5.5c-2.4-2.3-6.2-2.3-8.5,0.1c-2.3,2.3-2.3,6.1,0,8.4l9.6,9.6
		c2.3,2.3,6,2.3,8.4,0.1l17.7-16.9c2.4-2.3,2.5-6.1,0.2-8.5C127.4,329.4,123.6,329.3,121.2,331.6L121.2,331.6z"/>
	<path class="st2" d="M111.6,303.4c-22.7,0-41,18.4-41,41c0,22.7,18.4,41,41,41s41-18.4,41-41l0,0
		C152.6,321.8,134.3,303.4,111.6,303.4z M111.6,373.4c-16,0-29-13-29-29c0-16,13-29,29-29s29,13,29,29l0,0
		C140.6,360.4,127.7,373.4,111.6,373.4z"/>
	<path class="st2" d="M182.2,346c-3.3,0-6,2.7-6,6s2.7,6,6,6h51.2c3.3,0,6-2.7,6-6s-2.7-6-6-6H182.2z"/>
	<path class="st2" d="M303.2,145h-121c-3.3,0-6,2.7-6,6s2.7,6,6,6h121c3.3,0,6-2.7,6-6S306.6,145,303.2,145z"/>
	<path class="st2" d="M121.2,150.1L107.7,163l-5.5-5.5c-2.4-2.3-6.2-2.3-8.5,0.1c-2.3,2.3-2.3,6.1,0,8.4l9.6,9.6
		c2.3,2.3,6,2.3,8.4,0.1l17.7-16.9c2.4-2.3,2.5-6.1,0.2-8.5C127.4,147.9,123.6,147.8,121.2,150.1L121.2,150.1z"/>
	<path class="st2" d="M111.6,121.9c-22.7,0-41,18.4-41,41s18.4,41,41,41s41-18.4,41-41l0,0C152.6,140.3,134.3,121.9,111.6,121.9z
		 M111.6,191.9c-16,0-29-13-29-29s13-29,29-29s29,13,29,29C140.6,178.9,127.7,191.9,111.6,191.9z"/>
	<path class="st2" d="M182.2,177h80.7c3.3,0,6-2.7,6-6s-2.7-6-6-6h-80.7c-3.3,0-6,2.7-6,6S178.9,177,182.2,177z"/>
</g>
<path class="st1" d="M461.3,395.7c1-9.4,0.7-19-0.7-28.3l11.6-11.1c1.8-1.7,2.4-4.4,1.3-6.7l-13.9-31.8c-1-2.3-3.4-3.8-5.9-3.6
	l-16.1,1.2c-5.9-7.5-12.8-14-20.6-19.6l0.5-16c0.1-2.5-1.5-4.9-3.8-5.8l-32.4-12.5c-2.4-0.9-5-0.2-6.7,1.7l-10.4,12.1
	c-9.4-1-19-0.7-28.3,0.7l-11.2-11.6c-1.7-1.8-4.4-2.4-6.7-1.3l-31.8,13.9c-2.3,1-3.8,3.4-3.6,5.9l1.2,16.1
	c-7.5,5.9-14,12.8-19.6,20.6l-16-0.5c-2.5-0.1-4.9,1.5-5.8,3.8l-12.5,32.4c-0.9,2.4-0.2,5,1.7,6.7l12.1,10.4c-1,9.4-0.7,19,0.7,28.3
	l-11.6,11.1c-1.8,1.7-2.4,4.4-1.3,6.7l13.9,31.8c1,2.3,3.4,3.8,5.9,3.6l16.1-1.2c5.9,7.5,12.8,14,20.6,19.6l-0.5,16
	c-0.1,2.5,1.5,4.9,3.8,5.8l32.4,12.5c2.4,0.9,5,0.2,6.7-1.7l10.4-12.1c9.4,1,19,0.7,28.3-0.7l11.1,11.6c1.7,1.8,4.4,2.4,6.7,1.3
	l31.8-13.9c2.3-1,3.8-3.4,3.6-5.9l-1.2-16.1c7.5-5.9,14.1-12.8,19.6-20.6l16,0.5c2.5,0.1,4.9-1.5,5.8-3.8l12.5-32.4
	c0.9-2.4,0.2-5-1.7-6.7L461.3,395.7z M452.9,437l-15.1-0.4c-2.1-0.1-4,0.9-5.2,2.7c-5.7,8.6-13,16.2-21.3,22.4
	c-1.7,1.2-2.6,3.2-2.4,5.3l1.1,15.1L386,492.4l-10.4-10.9c-1.4-1.5-3.4-2.1-5.4-1.7c-10.3,1.9-20.7,2.1-31.1,0.8c-2-0.3-4,0.5-5.3,2
	l-9.7,11.3l-24.5-9.4l0.4-15.1c0.1-2.1-0.9-4-2.7-5.2c-8.6-5.7-16.2-13-22.4-21.3c-1.2-1.7-3.2-2.6-5.3-2.4l-15.1,1.1l-10.5-24.1
	l10.9-10.4c1.5-1.4,2.1-3.4,1.7-5.4c-1.9-10.3-2.1-20.7-0.8-31.1c0.3-2-0.5-4-2-5.3l-11.3-9.7l9.4-24.5l15.1,0.4c2.1,0,4-1,5.2-2.7
	c5.7-8.6,13-16.2,21.3-22.4c1.7-1.2,2.6-3.2,2.4-5.3l-1.1-15.1l24.1-10.5l10.4,10.9c1.4,1.5,3.4,2.1,5.4,1.7
	c10.3-1.9,20.7-2.1,31.1-0.8c2,0.3,4-0.5,5.3-2l9.7-11.3l24.5,9.4l-0.4,15.1c-0.1,2.1,0.9,4,2.7,5.2c8.6,5.7,16.2,13,22.4,21.3
	c1.2,1.7,3.2,2.6,5.3,2.4l15.1-1.1l10.5,24.1L450,360.9c-1.5,1.4-2.1,3.4-1.7,5.4c1.9,10.3,2.1,20.7,0.8,31.1c-0.3,2,0.5,4,2,5.3
	l11.3,9.7L452.9,437z"/>
</svg>
