<?xml version="1.0" encoding="utf-8"?>
<!-- Generator: Adobe Illustrator 25.4.1, SVG Export Plug-In . SVG Version: 6.00 Build 0)  -->
<svg version="1.1" id="Layer_1" xmlns="http://www.w3.org/2000/svg" xmlns:xlink="http://www.w3.org/1999/xlink" x="0px" y="0px"
	 viewBox="0 0 512 512" style="enable-background:new 0 0 512 512;" xml:space="preserve">
<style type="text/css">
	.st0{fill:#D4E1F4;}
	.st1{fill:#E6332A;}
	.st2{fill:#060D47;}
</style>
<path class="st0" d="M108,421.5V21.8c0-5.8,4.2-10.7,10-11l-29.5,0c-6,0-10.4,5-10.4,11v399.7c-0.1,5.7,4.3,10.4,10,10.5
	c0.1,0,0.3,0,0.4,0h30c-5.7,0.1-10.3-4.4-10.4-10.1C108,421.8,108,421.6,108,421.5z"/>
<g>
	<path class="st1" d="M468,253H313c-3.3,0-6,2.7-6,6v35c0,3.3,2.7,6,6,6h155c3.3,0,6-2.7,6-6v-35C474,255.7,471.3,253,468,253z
		 M461,288H319v-23h142V288z"/>
	<path class="st1" d="M333.6,482.4c13.3,0,24-10.7,24-24s-10.7-24-24-24s-24,10.7-24,24c0,0,0,0,0,0
		C309.6,471.6,320.3,482.4,333.6,482.4z M333.6,446.4c6.6,0,12,5.4,12,12s-5.4,12-12,12c-6.6,0-12-5.4-12-12
		C321.6,451.8,326.9,446.4,333.6,446.4L333.6,446.4z"/>
	<path class="st1" d="M390.5,482.4c13.3,0,24-10.7,24-24s-10.7-24-24-24s-24,10.7-24,24c0,0,0,0,0,0
		C366.5,471.6,377.3,482.4,390.5,482.4z M390.5,446.4c6.6,0,12,5.4,12,12s-5.4,12-12,12c-6.6,0-12-5.4-12-12
		C378.5,451.8,383.9,446.4,390.5,446.4L390.5,446.4z"/>
	<path class="st1" d="M447.5,482.4c13.3,0,24-10.7,24-24s-10.7-24-24-24s-24,10.7-24,24c0,0,0,0,0,0
		C423.5,471.6,434.2,482.4,447.5,482.4z M447.5,446.4c6.6,0,12,5.4,12,12s-5.4,12-12,12c-6.6,0-12-5.4-12-12
		C435.5,451.8,440.8,446.4,447.5,446.4L447.5,446.4z"/>
	<path class="st1" d="M333.6,429.4c13.3,0,24-10.7,24-24s-10.7-24-24-24c-13.3,0-24,10.7-24,24C309.6,418.7,320.3,429.4,333.6,429.4
		z M333.6,393.4c6.6,0,12,5.4,12,12s-5.4,12-12,12s-12-5.4-12-12c0,0,0,0,0,0C321.6,398.8,326.9,393.4,333.6,393.4z"/>
	<path class="st1" d="M390.5,429.4c13.3,0,24-10.7,24-24s-10.7-24-24-24c-13.3,0-24,10.7-24,24C366.5,418.7,377.3,429.4,390.5,429.4
		z M390.5,393.4c6.6,0,12,5.4,12,12s-5.4,12-12,12s-12-5.4-12-12c0,0,0,0,0,0C378.5,398.8,383.9,393.4,390.5,393.4z"/>
	<path class="st1" d="M447.5,429.4c13.3,0,24-10.7,24-24s-10.7-24-24-24c-13.3,0-24,10.7-24,24C423.5,418.7,434.2,429.4,447.5,429.4
		z M447.5,393.4c6.6,0,12,5.4,12,12s-5.4,12-12,12s-12-5.4-12-12c0,0,0,0,0,0C435.5,398.8,440.8,393.4,447.5,393.4z"/>
	<path class="st1" d="M333.6,376.5c13.3,0,24-10.7,24-24s-10.7-24-24-24c-13.3,0-24,10.7-24,24C309.6,365.7,320.3,376.4,333.6,376.5
		z M333.6,340.4c6.6,0,12,5.4,12,12s-5.4,12-12,12c-6.6,0-12-5.4-12-12C321.6,345.8,326.9,340.4,333.6,340.4z"/>
	<path class="st1" d="M390.5,376.5c13.3,0,24-10.7,24-24s-10.7-24-24-24c-13.3,0-24,10.7-24,24C366.5,365.7,377.3,376.4,390.5,376.5
		z M390.5,340.4c6.6,0,12,5.4,12,12s-5.4,12-12,12c-6.6,0-12-5.4-12-12C378.5,345.8,383.9,340.4,390.5,340.4z"/>
	<path class="st1" d="M447.5,376.5c13.3,0,24-10.7,24-24s-10.7-24-24-24c-13.3,0-24,10.7-24,24C423.5,365.7,434.2,376.4,447.5,376.5
		z M447.5,340.4c6.6,0,12,5.4,12,12s-5.4,12-12,12c-6.6,0-12-5.4-12-12C435.5,345.8,440.8,340.4,447.5,340.4z"/>
</g>
<path class="st2" d="M26.9,496H288v-12H26.9c-1.3,0-2.5-0.6-3.5-1.5c-0.9-0.9-1.4-2.2-1.5-3.5V80.4c0-1.2,0.6-2.4,1.5-3.2
	c0.9-0.8,2.2-1.3,3.5-1.2H39v375.9c0.1,9.4,7.7,17,17,17.1h228v-12H56.1c-2.8-0.1-5-2.4-5.1-5.1V54.4c0-1.2,0.6-2.4,1.5-3.2
	c1-0.8,2.2-1.3,3.5-1.2h16v371.5c-0.2,9,7,16.4,16,16.5c0.2,0,0.3,0,0.5,0H284v-12H88.4c-1.2,0.1-2.4-0.4-3.2-1.3
	c-0.8-0.9-1.3-2.1-1.2-3.3V21.8c-0.2-2.5,1.7-4.6,4.2-4.8c0.1,0,0.1,0,0.2,0H295v41.1c0,23.5,18.9,42.6,42.4,42.9H378v133h12V98.7
	c0-4.4-1.7-8.6-4.7-11.7l-75-76.9c-3.2-3.2-7.5-5.1-12-5.1H88.4C79.3,5.1,71.9,12.5,72,21.6c0,0.1,0,0.1,0,0.2V38H56
	c-4.5-0.1-8.8,1.6-12,4.7c-3.2,3-5,7.2-5,11.7V64H26.9c-4.5-0.1-8.7,1.6-11.9,4.7c-3.2,3.1-5,7.3-5,11.7V479
	C10,488.3,17.6,495.9,26.9,496L26.9,496z M307,23.9L370.1,89h-32.7c-8.1-0.1-15.8-3.4-21.5-9.1c-5.7-5.8-8.9-13.6-8.9-21.7V23.9z"/>
<path class="st2" d="M273,321c3.3,0,6-2.7,6-6s-2.7-6-6-6h-22.5c-3.3,0-6,2.7-6,6s2.7,6,6,6H273z"/>
<path class="st2" d="M228.1,315c0-3.3-2.7-6-6-6h-62.5c-3.3,0-6,2.7-6,6s2.7,6,6,6h62.5C225.4,321,228.1,318.3,228.1,315z"/>
<path class="st2" d="M131,321h6.1c3.3,0,6-2.7,6-6s-2.7-6-6-6H131c-3.3,0-6,2.7-6,6S127.7,321,131,321z"/>
<path class="st2" d="M230.2,366c0,3.3,2.7,6,6,6H279c3.3,0,6-2.7,6-6s-2.7-6-6-6h-42.7C232.9,360,230.2,362.7,230.2,366L230.2,366z"
	/>
<path class="st2" d="M180.5,360c-3.3,0-6,2.7-6,6s2.7,6,6,6h32.6c3.3,0,6-2.7,6-6s-2.7-6-6-6H180.5z"/>
<path class="st2" d="M131,372h26.1c3.3,0,6-2.7,6-6s-2.7-6-6-6H131c-3.3,0-6,2.7-6,6S127.7,372,131,372z"/>
<path class="st2" d="M113,52.8c0-3.3-2.7-6-6-6s-6,2.7-6,6v2.4c0,3.3,2.7,6,6,6s6-2.7,6-6l0,0V52.8z"/>
<path class="st2" d="M107,72.6c-3.3,0-6,2.7-6,6v79.5c0,3.3,2.7,6,6,6s6-2.7,6-6V78.6C113,75.3,110.3,72.6,107,72.6z"/>
<path class="st2" d="M319.1,153.4c0-48.9-39.6-88.5-88.5-88.5c-48.9,0-88.5,39.6-88.5,88.5s39.6,88.5,88.5,88.5c0,0,0,0,0,0
	C279.5,241.9,319.1,202.3,319.1,153.4z M307,149h-63.5l45.3-45.3C299.6,116.4,306.1,132.3,307,149L307,149z M230.6,76.9
	c18.2,0,35.8,6.5,49.7,18.4l-49.6,49.6l-39.1-57.3C203.4,80.6,216.9,76.8,230.6,76.9z M230.6,229.9c-42.2,0-76.5-34.2-76.5-76.5
	c0-22.8,10.1-44.4,27.7-58.9l43.6,63.9c1.1,1.6,3,2.6,5,2.6h76.5C302.8,200.1,269.9,229.9,230.6,229.9L230.6,229.9z"/>
<path class="st1" d="M470.6,228H308.4c-16.8,0-30.4,13.6-30.4,30.4v218.2c0,16.8,13.6,30.4,30.4,30.4h162.2
	c16.8,0,30.4-13.6,30.4-30.4V258.4C501,241.6,487.4,228,470.6,228L470.6,228z M490,476.6c-0.1,10.2-8.3,18.4-18.5,18.4H308.9
	c-10.1,0-18.9-8.2-18.9-18.4V321h200L490,476.6z M490,309H290v-50.6c0-10.1,8.7-18.4,18.9-18.4h162.6c10.2,0,18.4,8.2,18.5,18.4V309
	z"/>
</svg>
