<?xml version="1.0" encoding="utf-8"?>
<!-- Generator: Adobe Illustrator 25.4.1, SVG Export Plug-In . SVG Version: 6.00 Build 0)  -->
<svg version="1.1" id="Layer_1" xmlns="http://www.w3.org/2000/svg" xmlns:xlink="http://www.w3.org/1999/xlink" x="0px" y="0px"
	 viewBox="0 0 512 512" style="enable-background:new 0 0 512 512;" xml:space="preserve">
<style type="text/css">
	.st0{fill:#D4E1F4;}
	.st1{fill:#E6332A;}
	.st2{fill:#060D47;}
</style>
<path class="st0" d="M33.7,400h31C52.7,400,43,389.9,43,377.9V329H29v-33.2c0-10.3,5.3-19.8,14-25.3v-42.8c-1.3-3.6-2-7.5-2-11.3
	v-25.7c0-3.8,0.7-7.6,2-11.2V47.6C43,35.7,52.7,26,64.7,26h-31C21.7,26,12,35.7,12,47.6v330.3C12,389.9,21.7,400,33.7,400z"/>
<g>
	<path class="st1" d="M58.9,271h31.8c13.2,0,24.3,10.5,24.3,23.8V328h12v-33.2c0-19.9-16.5-35.8-36.3-35.8H58.9
		c-19.7-0.1-35.8,15.8-35.9,35.6c0,0.1,0,0.1,0,0.2V328h12v-33.2c0-13.1,10.6-23.7,23.6-23.8C58.7,271,58.8,271,58.9,271z"/>
	<path class="st1" d="M100.6,298c3.3,0,6-2.7,6-6s-2.7-6-6-6h-9.2c-3.3,0-6,2.7-6,6s2.7,6,6,6H100.6z"/>
	<path class="st1" d="M74.5,255.7c21.8,0,39.4-17.6,39.5-39.4V187h0.2c3.3-0.1,6-2.8,6-6.1c0-14.4-11.7-26.1-26.1-26.1
		c-2.3,0-4.5-0.4-6.7-1c-4.1-1.4-8.5-2.2-12.8-2.4c-21.8,0-39.5,17.6-39.6,39.4v25.7C35.1,238.1,52.7,255.7,74.5,255.7z
		 M102.2,187.6c-0.3-0.3-0.5-0.6-0.7-0.9h0.7V187.6z M47,190.7c0.1-15.2,12.4-27.4,27.6-27.4c0.9,0,3.6,0.2,9.2,1.9
		c3.3,1,6.8,1.6,10.2,1.6c5.5,0,10.5,3.2,12.8,8.2H74c-7.1-0.1-13,5.6-13,12.7c0,0,0,0.1,0,0.1c0,5.1-4.2,9.2-9.3,9.2
		c0,0-0.1,0-0.1,0H47V190.7z M47,209h4.5c11.7,0.1,21.3-9.3,21.4-21.1c0,0,0-0.1,0-0.1c0-0.6,0.5-0.8,1-0.8h14.6
		c1.4,6.9,6.6,12.5,13.4,14.4v14.9c0,15.2-12.3,27.5-27.5,27.5S47,231.5,47,216.3L47,209z"/>
	<path class="st1" d="M442.7,259h-31.3c-19.9,0-36.4,16.3-36.4,36.2V328h12v-32.8c0.2-13.4,11-24.1,24.4-24.2h31.3
		c13.3,0.1,24.2,10.8,24.3,24.2V328h12v-32.8C478.8,275.2,462.7,259.1,442.7,259z"/>
	<path class="st1" d="M452.8,298c3.3,0,6-2.7,6-6s-2.7-6-6-6l0,0h-9.1c-3.3,0-6,2.7-6,6s2.7,6,6,6H452.8z"/>
	<path class="st1" d="M463.7,170h-7.1c-7.3-8.3-17.8-13-28.9-13h-1.4c-21-0.2-38.2,16.8-38.4,37.8c0,0.1,0,0.2,0,0.3v22.6
		c0,21.1,17,38.3,38.2,38.3c0.1,0,0.1,0,0.2,0h1.4c20.2,0,36.9-15.5,38.4-35.6c13.9-1.2,24.1-13.5,22.9-27.4
		C487.9,179.9,476.8,169.9,463.7,170L463.7,170z M454,217.7c0.1,14.5-11.6,26.2-26,26.3c-0.1,0-0.2,0-0.3,0h-1.4
		c-14.5,0.1-26.3-11.6-26.4-26.1c0-0.1,0-0.1,0-0.2V209h1.1c13.7,0,27.1-4.5,38-12.8c3.4,5.9,9,11.8,15,13.2L454,217.7z M454,196.2
		c-3-2.8-6.2-8.9-7.2-11.7c-1.1-3.1-4.5-4.8-7.7-3.7c-0.8,0.3-1.5,0.7-2.1,1.3c-9.5,9.5-22.4,14.8-35.9,14.8H400v-1.9
		c0-14.4,11.6-26.1,26-26.1c0.1,0,0.2,0,0.4,0h1.4c14.4-0.2,26.1,11.4,26.3,25.7c0,0.1,0,0.3,0,0.4L454,196.2z M466,208.3v-13.2
		c0-4.6-0.7-9.1-2.3-13.4c7.4,0.1,13.3,6.1,13.3,13.4C476.8,201.6,472.3,207,466,208.3z"/>
	<path class="st1" d="M192,85h32c3.3,0,6-2.7,6-6s-2.7-6-6-6l0,0h-32c-3.3,0-6,2.7-6,6S188.6,85,192,85z"/>
	<path class="st1" d="M129.6,85h43.3c3.3,0,6-2.7,6-6s-2.7-6-6-6h-43.3c-3.3,0-6,2.7-6,6S126.3,85,129.6,85z"/>
	<path class="st1" d="M223.9,93h-67c-3.3,0-6,2.7-6,6s2.7,6,6,6h67c3.3,0,6-2.7,6-6S227.2,93,223.9,93z"/>
	<path class="st1" d="M129.6,105h9.8c3.3,0,6-2.7,6-6s-2.7-6-6-6h-9.8c-3.3,0-6,2.7-6,6S126.3,105,129.6,105L129.6,105z"/>
	<path class="st1" d="M223.9,113h-35.1c-3.3,0-6,2.7-6,6s2.7,6,6,6h35.1c3.3,0,6-2.7,6-6S227.2,113,223.9,113z"/>
	<path class="st1" d="M129.6,125h40.1c3.3,0,6-2.7,6-6s-2.7-6-6-6h-40.1c-3.3,0-6,2.7-6,6S126.3,125,129.6,125z"/>
	<path class="st1" d="M118.5,151h16.8c5.9,0,8.4,2.4,9.8,4.1c5.9,7.6,3.6,24.2,2.1,30c-0.8,3.2,1.2,6.5,4.4,7.3
		c0.5,0.1,1,0.2,1.4,0.2c0.5,0,1.1-0.1,1.6-0.3c10.4-2.8,29.3-15.3,29.8-41.3h50.2c11.8,0.1,21.4-9.5,21.4-21.2c0-0.2,0-0.3,0-0.5
		V66.6c0.2-11.8-9.2-21.4-21-21.6c-0.2,0-0.3,0-0.5,0H118.5c-11.8-0.1-21.4,9.4-21.5,21.2c0,0.2,0,0.3,0,0.5v62.7
		c-0.2,11.8,9.3,21.5,21.1,21.7C118.2,151,118.3,151,118.5,151L118.5,151z M109,66.6c-0.2-5.1,3.8-9.4,9-9.6c0.2,0,0.3,0,0.5,0
		h116.1c5.1-0.1,9.4,4,9.5,9.1c0,0.2,0,0.3,0,0.5v62.7c0.1,2.6-0.9,5.1-2.7,6.9c-1.8,1.8-4.2,2.8-6.8,2.8h-53.8
		c-0.2,0-0.3,0.1-0.4,0.1c-4.7,0.3-8.3,4.4-8,9.1c0.6,14.7-5.8,23.1-11.7,27.7c0.1-0.7,0.1-1.4,0.1-2.2c0.5-11.2-1.6-20-6.3-25.9
		c-3.1-3.9-8.9-8.8-19.2-8.8h-16.8c-5.2,0.1-9.4-4.1-9.5-9.3c0-0.1,0-0.3,0-0.4L109,66.6z"/>
	<path class="st1" d="M256.8,200h32c3.3,0,6-2.7,6-6s-2.7-6-6-6h-32c-3.3,0-6,2.7-6,6S253.5,200,256.8,200z"/>
	<path class="st1" d="M307.9,200h40.7c3.3,0,6-2.7,6-6s-2.7-6-6-6h-40.7c-3.3,0-6,2.7-6,6S304.6,200,307.9,200L307.9,200z"/>
	<path class="st1" d="M256.8,220h67c3.3,0,6-2.7,6-6s-2.7-6-6-6h-67c-3.3,0-6,2.7-6,6S253.5,220,256.8,220z"/>
	<path class="st1" d="M348.6,208h-5.7c-3.3,0-6,2.7-6,6s2.7,6,6,6h5.7c3.3,0,6-2.7,6-6S351.9,208,348.6,208z"/>
	<path class="st1" d="M256.8,239H292c3.3,0,6-2.7,6-6s-2.7-6-6-6h-35.1c-3.3,0-6,2.7-6,6S253.5,239,256.8,239z"/>
	<path class="st1" d="M348.6,227h-37.5c-3.3,0-6,2.7-6,6s2.7,6,6,6h37.5c3.3,0,6-2.7,6-6S351.9,227,348.6,227z"/>
	<path class="st1" d="M249.2,159c-12.1,0-22,9.8-22.2,21.9v62.7c0,12.1,10.1,21.4,22.1,21.4h47.3c0.5,27,19.4,38.7,29.8,41.5
		c0.5,0.2,1,0.3,1.6,0.3c3.3,0.1,6-2.5,6-5.8c0-0.5-0.1-1-0.2-1.5c-1.4-5.8-3.8-22.6,2.1-30.2c1.4-1.7,3.8-4.3,9.8-4.3h13.7
		c11.8,0.2,21.6-9.2,21.8-21c0-0.1,0-0.3,0-0.4v-62.7c0-12.1-9.7-21.9-21.7-21.9c0,0,0,0,0,0H249.2z M369,180.9v62.7
		c0,5.5-4.3,9.4-9.8,9.4h-13.7c-10.3,0-16.1,5-19.2,8.9c-4.7,6-6.8,14.8-6.3,26c0,0.7,0.1,1.5,0.1,2.2c-0.5-0.4-1-0.8-1.5-1.2
		c-7.2-6.3-10.6-15.2-10.1-26.3c0.3-4.8-3.3-8.9-8.1-9.3c-0.2,0-0.3-0.3-0.5-0.3h-50.8c-5.5,0-10.1-3.9-10.1-9.4v-62.7
		c0.1-5.5,4.6-9.9,10.2-9.9h110.1C364.6,171,369,175.4,369,180.9C369,180.9,369,180.9,369,180.9L369,180.9z"/>
</g>
<path class="st2" d="M479.4,20H33.7C18.4,20,6.1,32.4,6,47.6v330.3C6,393.1,18.5,406,33.7,406H188v26c0,8.6-7,15.6-15.6,15.6
	c-21.2,0-38.4,17.2-38.4,38.4c0,3.3,2.7,6,6,6h226.7c3.3,0,6-2.7,6-6c0-21.2-17.1-38.3-38.2-38.4c0,0,0,0,0,0
	c-8.6,0-15.5-7-15.4-15.5c0,0,0,0,0-0.1v-26h160.4c15.2,0,27.6-12.9,27.6-28.1V47.6C507,32.4,494.6,20,479.4,20z M334.4,459.6
	c12.3-0.1,22.9,8.4,25.5,20.4H146.7c2.7-12,13.4-20.5,25.7-20.4c15.2,0,27.6-12.4,27.6-27.6v-26h107v26
	C306.9,447.2,319.2,459.5,334.4,459.6C334.4,459.6,334.4,459.6,334.4,459.6L334.4,459.6z M495,377.9c0,8.6-7,16.1-15.6,16.1H33.7
	c-8.6,0-15.7-7.5-15.7-16.1V334h477V377.9z M495,322H18V47.6C18,39,25,32,33.7,32h445.7c8.6,0,15.6,7,15.6,15.6V322z"/>
<path class="st2" d="M253.3,380.5c9.3,0,16.8-7.5,16.8-16.8s-7.5-16.8-16.8-16.8c-9.3,0-16.8,7.5-16.8,16.8
	C236.5,373,244.1,380.5,253.3,380.5z M253.3,358.9c2.6,0,4.8,2.1,4.8,4.8c0,2.6-2.1,4.8-4.8,4.8c-2.6,0-4.8-2.1-4.8-4.8
	C248.5,361.1,250.7,359,253.3,358.9z"/>
<path class="st2" d="M38,56c-3.3,0-6,2.7-6,6v2c0,3.3,2.7,6,6,6s6-2.7,6-6v-2C44,58.7,41.3,56,38,56z"/>
<path class="st2" d="M38,79c-3.3,0-6,2.7-6,6v60c0,3.3,2.7,6,6,6s6-2.7,6-6V85C44,81.7,41.3,79,38,79z"/>
</svg>
