<?xml version="1.0" encoding="utf-8"?>
<!-- Generator: Adobe Illustrator 25.4.1, SVG Export Plug-In . SVG Version: 6.00 Build 0)  -->
<svg version="1.1" id="Layer_1" xmlns="http://www.w3.org/2000/svg" xmlns:xlink="http://www.w3.org/1999/xlink" x="0px" y="0px"
	 viewBox="0 0 512 512" style="enable-background:new 0 0 512 512;" xml:space="preserve">
<style type="text/css">
	.st0{fill:#D4E1F4;}
	.st1{fill:#E6332A;}
	.st2{fill:#060D47;}
</style>
<path class="st0" d="M13.2,138.2C13.1,177.2,31,214,61.8,238H62v-33.2c-36.8-59.9-18-138.2,41.9-175c15.7-9.7,33.4-15.8,51.7-17.9
	c-5-0.6-10-0.9-15-0.9C70.3,10.9,13.3,67.8,13.2,138.2z"/>
<path class="st0" d="M244.1,373.6c0,44.6,22.9,83.4,57.6,106.4h0.3v-26.8c-43.9-54.9-35-135,19.9-179c18.6-14.8,40.9-24.2,64.5-27
	c-69.9-8.3-133.2,41.6-141.5,111.5C244.4,363.6,244.1,368.6,244.1,373.6L244.1,373.6z"/>
<g>
	<path class="st1" d="M330.6,174.9c0.3,0.1,0.4,0.3,0.4,0.7v5.7c0,14,11.5,25.7,25.5,25.7h123c14.1-0.2,25.4-11.6,25.5-25.7V95.4
		c-0.1-14-11.5-25.4-25.5-25.4h-123c-14,0-25.4,11.4-25.5,25.4v25.9c0,15.4-11.7,17.8-24.8,19c-2,0.1-4.1,0.4-6.1,0.9
		c-2.5,0.6-4.4,2.6-4.7,5.2c-0.2,1.3,0,2.5,0.6,3.7C297.6,154,305.5,170.5,330.6,174.9L330.6,174.9z M328.7,147
		c9.4-5,14.3-13.9,14.3-25.7V95.4c0.1-7.4,6.1-13.4,13.5-13.4h123c7.4,0,13.4,6,13.5,13.4v85.9c-0.1,7.5-6,13.5-13.5,13.7h-123
		c-7.4-0.2-13.4-6.2-13.5-13.7v-5.6c0.1-6.1-4.2-11.4-10.2-12.6c0,0,0,0-0.1,0c-11.5-2-18.1-7.1-21.7-11.3
		C316.3,151.3,322.8,150.1,328.7,147L328.7,147z"/>
	<path class="st1" d="M464.8,121h-4.1c-3.3,0-6,2.7-6,6s2.7,6,6,6h4.1c3.3,0,6-2.7,6-6S468.1,121,464.8,121z"/>
	<path class="st1" d="M443.3,133c3.3,0,6-2.7,6-6s-2.7-6-6-6h-16.4c-3.3,0-6,2.7-6,6s2.7,6,6,6H443.3z"/>
	<path class="st1" d="M372.1,133h38.8c3.3,0,6-2.7,6-6s-2.7-6-6-6h-38.8c-3.3,0-6,2.7-6,6S368.8,133,372.1,133z"/>
	<path class="st1" d="M445.1,111h19.7c3.3,0,6-2.7,6-6s-2.7-6-6-6h-19.7c-3.3,0-6,2.7-6,6S441.8,111,445.1,111z"/>
	<path class="st1" d="M397.7,111h30c3.3,0,6-2.7,6-6s-2.7-6-6-6h-30c-3.3,0-6,2.7-6,6S394.4,111,397.7,111z"/>
	<path class="st1" d="M372.1,111h9.6c3.3,0,6-2.7,6-6s-2.7-6-6-6h-9.6c-3.3,0-6,2.7-6,6S368.8,111,372.1,111z"/>
	<path class="st1" d="M464.8,143h-19.7c-3.3,0-6,2.7-6,6s2.7,6,6,6h19.7c3.3,0,6-2.7,6-6S468.1,143,464.8,143z"/>
	<path class="st1" d="M391.7,149c0,3.3,2.7,6,6,6h30c3.3,0,6-2.7,6-6s-2.7-6-6-6h-30C394.4,143,391.7,145.7,391.7,149z"/>
	<path class="st1" d="M372.1,155h9.6c3.3,0,6-2.7,6-6s-2.7-6-6-6h-9.6c-3.3,0-6,2.7-6,6S368.8,155,372.1,155z"/>
	<path class="st1" d="M464.8,165h-4.1c-3.3,0-6,2.7-6,6s2.7,6,6,6h4.1c3.3,0,6-2.7,6-6S468.1,165,464.8,165z"/>
	<path class="st1" d="M443.3,165h-16.4c-3.3,0-6,2.7-6,6s2.7,6,6,6h16.4c3.3,0,6-2.7,6-6S446.6,165,443.3,165z"/>
	<path class="st1" d="M372.1,177h38.8c3.3,0,6-2.7,6-6s-2.7-6-6-6h-38.8c-3.3,0-6,2.7-6,6S368.8,177,372.1,177z"/>
	<path class="st1" d="M32.5,442h123c14,0,25.4-11.4,25.5-25.4v-5.7c0-0.3,0.1-0.6,0.4-0.6c25.1-4.5,33-20.9,34.6-24.9
		c0.6-1.1,0.8-2.4,0.6-3.7c-0.4-2.5-2.3-4.6-4.8-5.2c-2-0.5-4-0.8-6-0.9c-13.1-1.2-24.8-3.6-24.8-19v-25.9c0-14-11.5-25.7-25.5-25.7
		h-123C18.4,305.2,7.1,316.6,7,330.7v85.9C7.1,430.6,18.5,442,32.5,442L32.5,442z M19,330.7c0.1-7.5,6-13.5,13.5-13.7h123
		c7.4,0.2,13.4,6.2,13.5,13.7v25.9c0,11.8,4.9,20.7,14.3,25.7c5.8,3.1,12.3,4.3,17.6,4.9c-3.6,4.2-10.2,9.2-21.7,11.3
		c-5.9,1.2-10.2,6.4-10.2,12.5v5.7c-0.1,7.4-6.1,13.4-13.5,13.4h-123c-7.4,0-13.4-6-13.5-13.4L19,330.7z"/>
	<path class="st1" d="M47.2,369h4.1c3.3,0,6-2.7,6-6s-2.7-6-6-6h-4.1c-3.3,0-6,2.7-6,6S43.9,369,47.2,369z"/>
	<path class="st1" d="M91.1,363c0-3.3-2.7-6-6-6H68.7c-3.3,0-6,2.7-6,6s2.7,6,6,6h16.4C88.4,369,91.1,366.3,91.1,363z"/>
	<path class="st1" d="M139.9,357h-38.8c-3.3,0-6,2.7-6,6s2.7,6,6,6h38.8c3.3,0,6-2.7,6-6S143.2,357,139.9,357z"/>
	<path class="st1" d="M47.2,347h19.7c3.3,0,6-2.7,6-6s-2.7-6-6-6H47.2c-3.3,0-6,2.7-6,6S43.9,347,47.2,347z"/>
	<path class="st1" d="M84.2,347h30c3.3,0,6-2.7,6-6s-2.7-6-6-6h-30c-3.3,0-6,2.7-6,6S80.9,347,84.2,347z"/>
	<path class="st1" d="M130.3,347h9.6c3.3,0,6-2.7,6-6s-2.7-6-6-6h-9.6c-3.3,0-6,2.7-6,6S126.9,347,130.3,347z"/>
	<path class="st1" d="M47.2,391h19.7c3.3,0,6-2.7,6-6s-2.7-6-6-6H47.2c-3.3,0-6,2.7-6,6S43.9,391,47.2,391z"/>
	<path class="st1" d="M84.2,391h30c3.3,0,6-2.7,6-6s-2.7-6-6-6h-30c-3.3,0-6,2.7-6,6S80.9,391,84.2,391z"/>
	<path class="st1" d="M139.9,379h-9.6c-3.3,0-6,2.7-6,6s2.7,6,6,6h9.6c3.3,0,6-2.7,6-6S143.2,379,139.9,379z"/>
	<path class="st1" d="M47.2,413h4.1c3.3,0,6-2.7,6-6s-2.7-6-6-6h-4.1c-3.3,0-6,2.7-6,6S43.9,413,47.2,413z"/>
	<path class="st1" d="M85.1,401H68.7c-3.3,0-6,2.7-6,6s2.7,6,6,6h16.4c3.3,0,6-2.7,6-6S88.4,401,85.1,401z"/>
	<path class="st1" d="M139.9,401h-38.8c-3.3,0-6,2.7-6,6s2.7,6,6,6h38.8c3.3,0,6-2.7,6-6S143.2,401,139.9,401z"/>
</g>
<g>
	<path class="st2" d="M444.7,419C444.9,419.3,444.6,418.5,444.7,419z"/>
	<path class="st2" d="M371.5,240.3c-73.5,0-133.3,59.8-133.3,133.3S297.9,507,371.5,507s133.3-59.8,133.3-133.3
		S445,240.3,371.5,240.3L371.5,240.3z M350.8,493.3c-6.7-1.2-13.3-2.9-19.8-5.1v-32.4c0-3.3-2.5-6.2-5.8-6.2c-3.4-0.1-6.2,2.6-6.2,6
		v27.7c-3.9-1.8-7.6-3.9-11-6.4v-46.1c0.1-5,2.2-9.8,5.7-13.4c2.3-2.4,5.1-4.2,8.3-5.3l4.1-1.4c4-1.4,8-2.6,12.1-3.6l3.2,24.5
		c0.3,2.6,2.2,4.8,4.7,5.3c1.3,0.3,2.6,0.1,3.8-0.4l6.9-3.1l1.3,5.2L350.8,493.3z M347.7,341.6c1.4-1,2.3-2.6,2.5-4.4l0.9-11.7
		c12,0.8,23.8-3.7,32.3-12.3c5.6,5.1,9.6,11.7,11.4,19.1l1.8,7.4c0.8,3.2,4,5.2,7.3,4.4l6.6-2.9c-0.2,1.5-1.3,2.7-2.8,3
		c-2.9,0.5-5,3-5,6c-0.1,17.2-14.2,31.1-31.4,31c-17.1-0.1-30.9-13.9-31-31c0-2.9-2.1-5.4-5-5.9c-1.6-0.3-2.8-1.7-2.8-3.4v-0.1
		c0.3,0.1,0.6,0.2,0.9,0.3C343.5,343.3,345.3,343.4,347.7,341.6L347.7,341.6z M347,295.1c12.6-13.5,33.8-14.2,47.3-1.6
		c0.5,0.5,1.1,1,1.6,1.6c6.3,6.7,9.5,15.7,8.8,24.8l-0.2,3.3c-3.7-9.5-10.2-17.6-18.6-23.3c-2.7-1.8-6.3-1.2-8.2,1.5
		c-6.1,8.5-16.4,13.1-26.9,12l-3-0.3c-0.1,0-0.1,0-0.2,0c-4.1-0.3-7.8,2.7-8.1,6.9l-0.7,8.7l-0.6-8.8
		C337.6,310.8,340.8,301.8,347,295.1L347,295.1z M352.2,422.3l-2.2-16.7c1.1,2.6,2.7,4.9,4.7,6.8l6.2,6L352.2,422.3z M371.5,495
		c-2.9,0-5.7-0.1-8.6-0.3l6.4-50.3l5.1,0.1l5,50.3C376.8,494.9,374.1,495,371.5,495L371.5,495z M367.8,428.4l3.7-1.7l5,2.3l-1,3.5
		l-6.7-0.1L367.8,428.4z M380,403.7l-8.5,8.1l-8.7-8.1c-1.8-1.6-2.8-3.9-2.9-6.3v-5.8c7.5,2,15.5,2,23,0v5.8
		C382.8,399.8,381.8,402.1,380,403.7z M388.3,412.4c2-1.9,3.6-4.2,4.7-6.7l-2.2,16.6l-8.7-4L388.3,412.4z M435.1,476.8H435
		c-3.4,2.5-7.1,4.6-11,6.3v-27.3c0-3.3-2.5-6.2-5.8-6.2c-3.4-0.1-6.2,2.6-6.2,6v32.6c-6.7,2.3-13.6,4.1-20.6,5.3l-5.4-54.2l1.5-5.2
		l5.7,2.6c3,1.4,6.6,0,7.9-3c0.2-0.5,0.4-1.1,0.5-1.7l3.3-24.8c4.1,1,8.1,2.2,12.1,3.6l4.1,1.4c4.6,1.5,8.5,4.8,11.1,8.9
		c1.1,1.7,1.9,3.6,2.3,5.5c0.4,1.8,0.6,3.6,0.6,5.3V476.8z M447,468.3v-36.5c0.1-4.2-0.9-8.8-2.3-12.8c-3.8-8.4-11.1-15.4-19.8-18.3
		l-3.9-1.4c-8.5-2.9-17.2-5.1-26-6.5v-6.6c11.2-7.1,18.4-18.9,19.6-32c6.1-3.4,9.2-10.4,7.4-17.2c-0.8-3.4-2.9-6.3-5.9-8.1l0.6-8.2
		c0.9-12.5-3.4-24.7-12-33.8c-17.1-18.3-45.9-19.3-64.3-2.2c-0.7,0.7-1.5,1.4-2.2,2.2c-8.6,9.1-12.9,21.4-12,33.8l0.6,8.2
		c-3,1.8-5.1,4.7-5.9,8.1c-1.6,6.8,1.4,13.8,7.4,17.2c1.2,13.2,8.5,25,19.6,32.1v6.6c-8.9,1.4-17.6,3.5-26.1,6.5l-4,1.4
		c-8.3,2.8-15.3,9.4-19.2,17.2c-0.3,0.7-0.6,1.4-0.9,2.2c-1.2,3.7-1.9,7.9-1.8,11.6v36.5c-28.9-22.9-45.8-57.8-45.7-94.7
		c0-66.9,54.4-121.3,121.3-121.3s121.2,54.4,121.2,121.3C492.8,410.6,475.9,445.4,447,468.3L447,468.3z"/>
</g>
<path class="st2" d="M74.5,54.3c-1,0.8-2.1,1.6-3.1,2.5c-2.5,2.1-2.8,5.9-0.7,8.5c2.1,2.5,5.9,2.8,8.5,0.7c0.9-0.8,1.8-1.5,2.7-2.2
	c2.6-2,3.1-5.8,1.1-8.4S77.2,52.3,74.5,54.3C74.6,54.2,74.5,54.2,74.5,54.3z"/>
<path class="st2" d="M61.8,74.9c-2.7-1.9-6.4-1.3-8.4,1.4C45.9,86.9,40.3,98.8,37,111.5c-2.3,8.8-3.4,17.8-3.4,26.9c0,3.3,2.7,6,6,6
	s6-2.7,6-6c0-8.1,1-16.1,3-23.9c2.9-11.2,7.9-21.8,14.6-31.2C65.2,80.5,64.5,76.8,61.8,74.9L61.8,74.9z"/>
<g>
	<path class="st2" d="M140.5,5C67,5,7.2,64.8,7.2,138.3S67,271.7,140.5,271.7s133.3-59.8,133.3-133.3S214.1,5,140.5,5L140.5,5z
		 M118.7,257.7c-8.9-1.6-17.5-4.2-25.8-7.8c-1.1-8,0-16.2,3.2-23.7c1.3-3.1-0.2-6.6-3.2-7.8c-3-1.3-6.5,0.1-7.8,3.1
		c-3,7-4.5,14.6-4.5,22.2c-4.4-2.5-8.6-5.3-12.6-8.3v-31.1c0-3.1,0.7-6.5,1.8-9.4c2.8-6.2,8.2-11.3,14.8-13.5l4.6-1.6
		c4.8-1.6,9.6-3.1,14.5-4.2l3.8,28.8c0.4,3.3,3.4,5.6,6.7,5.2c0.6-0.1,1.2-0.2,1.7-0.5l8.6-3.9l1.7,6.8L118.7,257.7z M118.2,194.8
		l-2.8-21.6c0.4-0.1,0.7-0.1,1.1-0.2c1.2,3.4,3.1,6.4,5.7,8.8l7.8,7.5L118.2,194.8z M108,105.4c4-12.5,11.3-19,17.8-22.5
		c6.6,5.8,16.2,9,31.3,10.3c2.2,5,7.2,13,17.2,15.7c2,0.5,4.1,0.7,6.2,0.7c0.6-0.2,1.2,0.2,1.4,0.8c0.2,0.9,0.1,1.8-0.4,2.6
		s-1.2,1.4-2.1,1.7l-1.5,0.3c-3.2-0.1-5.9,2.4-6,5.6c-0.7,17.3-15.3,30.7-32.5,30c-16.3-0.7-29.3-13.7-30-29.9
		c-0.1-3.2-2.8-5.7-6-5.6h-0.7c-1.9-0.2-3.4-1.8-3.4-3.7c0-0.3,0-0.6,0.1-0.9c0.2-1,1.5-0.6,1.5-0.6c0.4,0.1,0.7,0.2,1.1,0.3h0.3
		c1.7-0.1,3.3-0.8,4.4-2.1C107.2,107.2,107.7,106.4,108,105.4z M107.5,82.1c0.9-6,3.4-11.7,7.3-16.3c1,2.6,2.1,5.2,3.4,7.6
		C114.2,75.7,110.6,78.6,107.5,82.1z M154.6,56.7c5.4,2.9,9.4,6.1,12.2,9.6c5.2,6.5,7.7,14.6,7.1,22.9l-0.4,6.2
		c-3-2.3-5.3-5.6-6.3-9.3c-0.6-2.5-2.8-4.4-5.5-4.5C134.8,80,129.5,73,124.8,58C131,55.1,143.6,50.8,154.6,56.7z M127.2,44.2
		c0.5-0.5,1-1,1.5-1.5c3.2-3.1,7.5-4.8,12-4.7c4.9-0.1,9.5,2,12.8,5.6C143.8,40.7,134.4,41.9,127.2,44.2z M140.5,259.7
		c-3.3,0-6.6-0.1-9.9-0.4l6.6-41.5l7.4,0.1l5.1,41.4C146.7,259.6,143.6,259.7,140.5,259.7L140.5,259.7z M135.5,200.5l5.4-2.8
		l6.2,2.8l-1.5,5.5l-8.7-0.1L135.5,200.5z M140.6,182.9l-10.2-9.7c-2.1-2-3.3-4.8-3.4-7.7v-5.2c3.8,1.2,7.8,1.9,11.8,2.1h1.7
		c4.6,0,9.1-0.7,13.4-2.1v5.2c0,2.9-1.2,5.7-3.3,7.7L140.6,182.9z M159,181.9c2.6-2.5,4.5-5.5,5.7-8.8c0.4,0.1,0.7,0.1,1.1,0.2
		l-2.8,21.6l-11.8-5.4L159,181.9z M200.7,243.7c0-7.6-1.5-15.1-4.5-22c-1.2-3.1-4.7-4.5-7.8-3.3s-4.5,4.7-3.3,7.8
		c0,0.1,0.1,0.1,0.1,0.2c3.2,7.4,4.3,15.5,3.2,23.5c-8.6,3.7-17.6,6.4-26.8,8l-5.6-45.3l2-6.7l7.2,3.3c3,1.4,6.6,0,7.9-3
		c0.2-0.5,0.4-1.1,0.5-1.7l3.8-28.8c4.9,1.2,9.8,2.6,14.5,4.2l4.6,1.6c6.5,2.2,11.8,7.3,14.7,13.5c1.1,2.9,1.7,6.4,1.7,9.5v31h0.1
		C209.1,238.5,205,241.2,200.7,243.7L200.7,243.7z M225,225.2v-20.7c0.1-4.6-1-9.8-2.6-14.1c-4.2-9.2-12.2-16.9-21.9-20.2l-4.6-1.6
		c-9.8-3.3-19.8-5.8-30-7.4v-6.9c1-1,2.7-2.1,4-3.3c7.2-6.6,11.9-15.5,13.3-25.1c7.7-2.5,12.1-10.6,10.1-18.4
		c-1.1-4.2-4.1-7.6-8.2-9.1l0.6-8.3c0.8-11.2-2.6-22.4-9.7-31.2c-2-2.4-4.2-4.5-6.7-6.4c-1.2-15-13.8-26.6-28.8-26.5
		c-14.9-0.2-27.5,11.1-28.8,26c-11.4,9.3-17.6,23.5-16.6,38.1l0.6,8.3c-4.1,1.5-7.2,4.9-8.2,9.1c-1.3,5.3,0.3,10.8,4.1,14.6
		c1.7,1.7,3.7,3,6,3.7c1.8,11.3,8,21.5,17.3,28.3v6.9c-10.2,1.6-20.2,4-30,7.4l-4.6,1.6c-9.6,3.2-17.6,11-21.8,20.2
		c-1.6,4.3-2.7,9.5-2.7,14V225c-23.6-22.7-36.9-54.1-36.7-86.8C19.3,71.4,73.6,17.1,140.6,17c66.9,0,121.2,54.4,121.2,121.3
		C261.9,171.1,248.6,202.5,225,225.2L225,225.2z"/>
	<path class="st2" d="M222.4,190.4C222.5,190.6,222.4,190.5,222.4,190.4z"/>
	<path class="st2" d="M58.5,190.2C58.7,189.8,58.2,190.6,58.5,190.2z"/>
	<path class="st2" d="M211.2,195C211.1,194.8,211.3,195.3,211.2,195z"/>
</g>
</svg>
