<svg xmlns="http://www.w3.org/2000/svg" width="23.874" height="16.752" viewBox="0 0 23.874 16.752">
  <path id="Trazado_155" data-name="Trazado 155" d="M407.993,2544h-4.126q-8.943,0-17.883-.007h0c-.525,0-.807.157-.964.541v15.67c.157.384.439.541.964.541h0q7.842-.011,15.687-.007h6.274a2.189,2.189,0,0,0,.387-.027.675.675,0,0,0,.552-.616c.005-.063.005-.126.005-.189v-15.019C408.89,2544.245,408.638,2544,407.993,2544Zm-2.2,1.395-.489.42a1.166,1.166,0,0,1-.114.093l-7.96,5.437a.491.491,0,0,1-.279.1.466.466,0,0,1-.262-.091q-3.4-2.331-6.8-4.649l-1.177-.8c-.032-.022-.062-.047-.109-.083l-.53-.425Zm-19.371.628,6.612,4.51-6.612,7.626Zm.82,13.31,6.944-8.012,2.037,1.391c.682.462.777.466,1.462,0l2.034-1.388,6.946,8.012Zm20.246-1.168-6.615-7.629,6.615-4.516Z" transform="translate(-385.016 -2543.989)" fill="#00193a"/>
</svg>
