<?xml version="1.0" encoding="iso-8859-1"?>
<!-- Generator: Adobe Illustrator 19.0.0, SVG Export Plug-In . SVG Version: 6.00 Build 0)  -->
<svg version="1.1" id="Capa_1" xmlns="http://www.w3.org/2000/svg" xmlns:xlink="http://www.w3.org/1999/xlink" x="0px" y="0px"
	 viewBox="0 0 496.008 496.008" style="enable-background:new 0 0 496.008 496.008;" xml:space="preserve">
<g>
	<g>
		<g>
			<path d="M379.316,48h36.688c13.255,0,24-10.745,24-24s-10.745-24-24-24h-48c-2.122,0-4.156,0.844-5.656,2.344l-56,56
				c-1.5,1.5-2.344,3.534-2.344,5.656v295.016L289.756,416h-41.752v-96h8c4.418,0,8-3.582,8-8v-32
				c-0.035-30.913-25.087-55.965-56-56h-64c-30.913,0.035-55.965,25.087-56,56v32c0,4.418,3.582,8,8,8h8v96h-8c-4.418,0-8,3.582-8,8
				v24.8c-18.611,3.827-31.976,20.199-32,39.2c0,4.418,3.582,8,8,8h224c4.418,0,8-3.582,8-8c-0.029-8.684-2.914-17.117-8.208-24
				h57.008c4.418,21.645,25.547,35.61,47.192,31.192c21.645-4.418,35.61-25.547,31.192-47.192
				c-3.801-18.621-20.179-31.996-39.184-32h-17.752l-14.248-56.984V75.312L379.316,48z M416.004,16c4.418,0,8,3.582,8,8
				s-3.582,8-8,8s-8-3.582-8-8S411.586,16,416.004,16z M376.004,16h17.472c-0.948,2.562-1.445,5.268-1.472,8
				c0.027,2.732,0.524,5.438,1.472,8h-17.472V16z M392.004,433.472c6.776,2.42,12.108,7.753,14.528,14.528h-14.528V433.472z
				 M392.004,464h14.528c-2.42,6.775-7.753,12.108-14.528,14.528V464z M376.004,433.472V448h-14.528
				C363.896,441.224,369.228,435.892,376.004,433.472z M361.476,464h14.528v14.528C369.228,476.108,363.896,470.775,361.476,464
				L361.476,464z M320.004,80h16v240h-16V80z M320.004,336h16v16h-16V336z M318.292,368h19.504l4,16h-27.544L318.292,368z
				 M310.252,400h35.504l4,16h-43.504L310.252,400z M144.004,240h64c19.002,0.021,35.375,13.387,39.2,32h-142.4
				C108.629,253.387,125.002,240.021,144.004,240z M104.004,288h144v16h-144V288z M232.004,320v96h-112v-96H232.004z M104.004,432
				h144v16h-144V432z M73.372,480c3.403-9.582,12.464-15.988,22.632-16h160c10.168,0.012,19.229,6.418,22.632,16H73.372z
				 M352.212,432c-3.639,4.709-6.171,10.178-7.408,16h-80.8v-16H352.212z M340.692,64h-17.376l36.688-36.688v17.376L340.692,64z"/>
			<rect x="136.004" y="384" width="16" height="16"/>
			<rect x="200.004" y="384" width="16" height="16"/>
			<rect x="200.004" y="352" width="16" height="16"/>
			<rect x="168.004" y="368" width="16" height="16"/>
		</g>
	</g>
</g>
<g>
</g>
<g>
</g>
<g>
</g>
<g>
</g>
<g>
</g>
<g>
</g>
<g>
</g>
<g>
</g>
<g>
</g>
<g>
</g>
<g>
</g>
<g>
</g>
<g>
</g>
<g>
</g>
<g>
</g>
</svg>
