<?xml version="1.0" encoding="UTF-8"?>
<svg xmlns="http://www.w3.org/2000/svg" viewBox="0 0 512 512" width="512" height="512"><g id="outline"><path d="M304,248V232.756a26.071,26.071,0,0,0-20.9-25.5l-3.957-.791q-4.426-.885-8.872-1.428A7.978,7.978,0,0,0,264,202h-1.365A6.643,6.643,0,0,1,256,195.365V178a8,8,0,0,0-16,0v17.365a22.5,22.5,0,0,0,2.156,9.629q-4.659.555-9.3,1.476l-3.957.791a26.071,26.071,0,0,0-20.9,25.5V248a8,8,0,0,0,8,8h80A8,8,0,0,0,304,248Zm-16-8H224v-7.244a10.026,10.026,0,0,1,8.039-9.805l3.957-.792a101.475,101.475,0,0,1,40.008,0l3.957.792A10.026,10.026,0,0,1,288,232.756Z"/><circle cx="218" cy="177" r="10"/><circle cx="294" cy="179" r="10"/><path d="M493,265.753l-40-32A8,8,0,0,0,440,240v62.059a16,16,0,0,1-32,0V240a8,8,0,0,0-13-6.247l-40,32A8,8,0,0,0,352,272v64.984l-56-22.4V293.237A80.026,80.026,0,0,0,336,224V200h4a20.023,20.023,0,0,0,20-20V130a17.967,17.967,0,0,0-7.33-14.463l-3.7-17.987A87.474,87.474,0,0,0,289.34,31.377l-.334-2.007A15.95,15.95,0,0,0,273.223,16H238.777a15.95,15.95,0,0,0-15.783,13.37l-.334,2.007A87.474,87.474,0,0,0,163.028,97.55l-3.7,17.987A17.967,17.967,0,0,0,152,130v50a20.023,20.023,0,0,0,20,20h4v24a80.026,80.026,0,0,0,40,69.237v21.346l-64.682,25.874A87.579,87.579,0,0,0,96,422.163V488a8,8,0,0,0,8,8H456a8,8,0,0,0,8-8V372.319l28.39-18.631A8,8,0,0,0,496,347V272A8,8,0,0,0,493,265.753ZM384,480H368V361.819l16,10.5ZM160,354.216,200.291,338.1c.039.143.072.287.119.43l16,48a8,8,0,0,0,2.79,3.87L248,412v4H160ZM264,412l28.8-21.6a8,8,0,0,0,2.79-3.87l16-48c.047-.143.08-.287.119-.43L352,354.216V416H264ZM160,432h88v16H160Zm104,0h88v16H264ZM168,144V130a2,2,0,0,1,2-2H342a2,2,0,0,1,2,2v14Zm176,36a4,4,0,0,1-4,4h-4V160h8Zm-10.7-79.228L335.608,112h-32.83l-10.4-62.379A71.547,71.547,0,0,1,333.3,100.772ZM273.223,32l13.333,80H225.444l13.333-80Zm-53.6,17.621L209.222,112h-32.83l2.308-11.228A71.547,71.547,0,0,1,219.619,49.621ZM172,184a4,4,0,0,1-4-4V160h8v24Zm20,40V160H320v64a64,64,0,0,1-128,0Zm64,80a79.71,79.71,0,0,0,24-3.683V316l-24,18-24-18V300.317A79.71,79.71,0,0,0,256,304Zm-33.2,25.1,28.4,21.3a8,8,0,0,0,9.6,0l28.4-21.3,7.764,3.106c-.216.4-15.766,46.9-15.766,46.9L256,398l-25.2-18.9s-15.55-46.5-15.766-46.9ZM112,422.163a71.6,71.6,0,0,1,32-59.884V480H112ZM160,464h88v16H160Zm104,16V464h88v16ZM480,342.681l-28.39,18.631A8,8,0,0,0,448,368V480H432V384a8,8,0,0,0-16,0v96H400V368a8,8,0,0,0-3.61-6.688L368,342.681V275.845l24-19.2v45.414a32,32,0,1,0,64,0V256.645l24,19.2Z"/></g></svg>
