<?xml version="1.0" encoding="utf-8"?>
<!-- Generator: Adobe Illustrator 25.2.0, SVG Export Plug-In . SVG Version: 6.00 Build 0)  -->
<svg version="1.1" id="Capa_1" xmlns="http://www.w3.org/2000/svg" xmlns:xlink="http://www.w3.org/1999/xlink" x="0px" y="0px"
	 viewBox="0 0 512 512" style="enable-background:new 0 0 512 512;" xml:space="preserve">
<path d="M452,208c4.4,0,8-3.6,8-8v-56c0-4.4-3.6-8-8-8H60c-4.4,0-8,3.6-8,8v56c0,4.4,3.6,8,8,8H452z M68,152h92.8h12h174.5h25.4H444
	v40h-71.4H313H207h-46.2H68V152z"/>
<g>
	<path d="M488,104H24c-4.4,0-8,3.6-8,8v368c0,4.4,3.6,8,8,8h464c4.4,0,8-3.6,8-8V112C496,107.6,492.4,104,488,104z M120,472h-16v-16
		h16V472z M96,440v-16h16v16H96z M113.4,408l4.6-27.8c0.4-2.4,2.5-4.2,4.9-4.2h74c2.4,0,4.5,1.8,4.9,4.2l4.6,27.8H120H113.4z
		 M184,472h-48v-16h48V472z M192,440h-64v-16h64V440z M216,472h-16v-16h16V472z M224,440h-16v-16h16V440z M256,472h-24v-16
		c4.4,0,8-3.6,8-8v-24c0-8.8-7.2-16-16-16h-1.2l-5.1-30.5C216,367.4,207.3,360,197,360h-74c-10.3,0-19.1,7.4-20.7,17.5L97.2,408H96
		c-8.8,0-16,7.2-16,16v24c0,4.4,3.6,8,8,8v16H64V344h160v24h16v-24h16V472z M256,328H64v-8h192V328z M256,304H64v-8h192V304z
		 M256,280H64v-8h192V280z M336,472h-64v-16h64V472z M336,440h-64V336h64V440z M336,320h-64v-16h64V320z M480,472H352v-48h128V472z
		 M401.9,408h-15.4l19.6-72h15.4L401.9,408z M438.1,336h23.4l-19.6,72h-23.4L438.1,336z M369.9,408H352v-72h37.5L369.9,408z
		 M480,408h-21.5l19.6-72h1.9V408z M480,320H352v-24c0-4.4-3.6-8-8-8h-72v-24c0-4.4-3.6-8-8-8H56c-4.4,0-8,3.6-8,8v208H32V240h448
		V320z M480,224H32V120h104h24.3h191.3h42.8H480V224z"/>
</g>
</svg>
