<?xml version="1.0"?>
<svg xmlns="http://www.w3.org/2000/svg" viewBox="0 0 512 512" width="512" height="512"><g id="outline"><path d="M96.04,265.6A31.96,31.96,0,0,0,120,294.971V304h-8a8,8,0,0,0,0,16h8v8a8,8,0,0,0,16,0v-8h8a8,8,0,0,0,0-16h-8v-9.029a31.995,31.995,0,1,0-31.729-52.44h0A31.785,31.785,0,0,0,96.04,265.6Zm20.1-12.333h0A16,16,0,1,1,112.02,264.8,15.957,15.957,0,0,1,116.136,253.266Z"/><path d="M351.619,319.729A31.765,31.765,0,0,0,373.051,328c.543,0,1.09-.014,1.636-.041A32,32,0,0,0,398.616,276.7L408,267.314V272a8,8,0,0,0,16,0V248a8,8,0,0,0-8-8H392a8,8,0,0,0,0,16h4.686l-10.7,10.7a32,32,0,0,0-34.362,53.024Zm9.6-34.464a15.889,15.889,0,0,1,11.065-5.245q.41-.021.818-.021a16,16,0,1,1-11.883,5.266Z"/><path d="M224,328h64a8,8,0,0,0,8-8V240a8,8,0,0,0-8-8H224a8,8,0,0,0-8,8v80A8,8,0,0,0,224,328Zm8-80h48v64H232Z"/><path d="M488,152a8,8,0,0,0,8-8V112a7.946,7.946,0,0,0-1.2-4.193c-.01-.015-.01-.032-.02-.047l-40-64A8,8,0,0,0,448,40H64a8,8,0,0,0-6.784,3.76l-40,64c-.01.015-.011.032-.02.047A7.955,7.955,0,0,0,16,112v32a8,8,0,0,0,8,8h8V432H28a12.013,12.013,0,0,0-12,12v28a8,8,0,0,0,8,8H488a8,8,0,0,0,8-8V444a12.01,12.01,0,0,0-8-11.3Zm-16,16H264V152H472ZM32,136V120H480v16Zm224,53.333L264,200H248ZM68.434,56H443.566l30,48H38.434ZM248,152v16H48V152ZM48,184H240l-14.4,19.2A8,8,0,0,0,232,216h48a8,8,0,0,0,6.4-12.8L272,184H472V432H456V408a8,8,0,0,0-8-8V208a8,8,0,0,0-8-8H328a8,8,0,0,0-8,8V400a8,8,0,0,0-8,8v24H280V401.542A48.014,48.014,0,0,0,304,360v-8a8,8,0,0,0-8-8H216a8,8,0,0,0-8,8v8a48.014,48.014,0,0,0,24,41.542V432H200V408a8,8,0,0,0-8-8V208a8,8,0,0,0-8-8H72a8,8,0,0,0-8,8V400a8,8,0,0,0-8,8v24H48ZM432,352H336V216h96Zm-96,16h96v32H336Zm-8,48H440v16H328Zm-72-24a32.036,32.036,0,0,1-32-32h64A32.036,32.036,0,0,1,256,392Zm-8,15.321a47.468,47.468,0,0,0,16,0V432H248ZM176,352H80V216h96ZM80,368h96v32H80Zm-8,48H184v16H72Zm408,48H32V448H480Z"/></g></svg>
