<?xml version="1.0"?>
<svg xmlns="http://www.w3.org/2000/svg" viewBox="0 0 512 512" width="512" height="512"><g id="outline"><path d="M256,312a32,32,0,1,0-32-32A32.036,32.036,0,0,0,256,312Zm0-48a16,16,0,1,1-16,16A16.019,16.019,0,0,1,256,264Z"/><path d="M352,328h32a8,8,0,0,0,8-8V288a8,8,0,0,0-8-8H352a8,8,0,0,0-8,8v32A8,8,0,0,0,352,328Zm8-32h16v16H360Z"/><path d="M416,328h32a8,8,0,0,0,8-8V288a8,8,0,0,0-8-8H416a8,8,0,0,0-8,8v32A8,8,0,0,0,416,328Zm8-32h16v16H424Z"/><path d="M416,392h32a8,8,0,0,0,8-8V352a8,8,0,0,0-8-8H416a8,8,0,0,0-8,8v32A8,8,0,0,0,416,392Zm8-32h16v16H424Z"/><path d="M128,328h32a8,8,0,0,0,8-8V288a8,8,0,0,0-8-8H128a8,8,0,0,0-8,8v32A8,8,0,0,0,128,328Zm8-32h16v16H136Z"/><path d="M64,328H96a8,8,0,0,0,8-8V288a8,8,0,0,0-8-8H64a8,8,0,0,0-8,8v32A8,8,0,0,0,64,328Zm8-32H88v16H72Z"/><path d="M64,392H96a8,8,0,0,0,8-8V352a8,8,0,0,0-8-8H64a8,8,0,0,0-8,8v32A8,8,0,0,0,64,392Zm8-32H88v16H72Z"/><path d="M494.4,251.2l-24-32A8,8,0,0,0,464,216H363.128L264,124.5V104h16a16.019,16.019,0,0,0,16,16h40a8,8,0,0,0,8-8V72a8,8,0,0,0-8-8H312a16.019,16.019,0,0,0-16-16H256a8,8,0,0,0-8,8v68.32L141.04,216H48a8,8,0,0,0-6.4,3.2l-24,32A8,8,0,0,0,24,264V448a8,8,0,0,0,8,8H480a8,8,0,0,0,8-8V264a8,8,0,0,0,6.4-12.8ZM472,248H328V232H460ZM312,328H200V232H312ZM213.292,216,256,178.63,298.708,216ZM196.944,344H315.056l8,16H188.944ZM328,80v24H296a16.019,16.019,0,0,0,16-16V80Zm-32,8H264V64h32Zm-40.2,50.706L339.539,216H323.006l-61.738-54.021a8,8,0,0,0-10.536,0L188.994,216H165.626ZM52,232H184v16H40Zm132,32v70.112l-15.155,30.31a7.961,7.961,0,0,0-.837,3.476c0,.034-.008.068-.008.1V352a8,8,0,0,0-8-8H128a8,8,0,0,0-8,8v32a8,8,0,0,0,8,8h32a8,8,0,0,0,8-8v24H40V264Zm-32,96v16H136V360ZM40,424H168v16H40Zm176,16V416a8,8,0,0,1,16,0v24Zm64,0V416a8,8,0,0,1,16,0v24Zm32,0V416a24,24,0,0,0-48,0v24H248V416a24,24,0,0,0-48,0v24H184V376H328v64Zm32,0V424H472v16Zm128-32H344V384a8,8,0,0,0,8,8h32a8,8,0,0,0,8-8V352a8,8,0,0,0-8-8H352a8,8,0,0,0-8,8v16c0-.034-.007-.068-.008-.1a7.961,7.961,0,0,0-.837-3.476L328,334.112V264H472ZM360,376V360h16v16Z"/></g></svg>
