<?xml version="1.0" encoding="utf-8"?>
<!-- Generator: Adobe Illustrator 25.2.0, SVG Export Plug-In . SVG Version: 6.00 Build 0)  -->
<svg version="1.1" id="Capa_1" xmlns="http://www.w3.org/2000/svg" xmlns:xlink="http://www.w3.org/1999/xlink" x="0px" y="0px"
	 viewBox="0 0 512 512" style="enable-background:new 0 0 512 512;" xml:space="preserve">
<g>
	<path d="M128,200v32c0,4.4,3.6,8,8,8h32c4.4,0,8-3.6,8-8v-32c0-4.4-3.6-8-8-8h-32C131.6,192,128,195.6,128,200z M144,208h16v16h-16
		V208z"/>
	<rect x="304" y="392" width="16" height="48"/>
	<rect x="336" y="392" width="16" height="48"/>
	<rect x="368" y="392" width="16" height="48"/>
	<rect x="400" y="392" width="16" height="48"/>
	<rect x="336" y="296" width="16" height="48"/>
	<rect x="368" y="296" width="16" height="48"/>
	<rect x="400" y="296" width="16" height="48"/>
	<path d="M387.9,169.6l-21,23.6l-75.8-32.5c-1-0.4-2.1-0.6-3.2-0.6H152c-1,0-1.9,0.2-2.8,0.5h0l-128,48c-3.1,1.2-5.2,4.2-5.2,7.5
		v248c0,4.4,3.6,8,8,8h464c4.4,0,8-3.6,8-8V272c0-4.4-3.6-8-8-8v-8c0-11.8-8.5-21.8-20.1-23.7l-55.8-62.8H387.9z M371.3,212.4
		l20.7,8.9V232h-38.2L371.3,212.4z M358.6,248H392v16h-32v-8C360,253.3,359.5,250.6,358.6,248z M144,456H96v-48h16v16h16v-16h16V456
		z M160,360v-16h16v48h-48v-48h16v16H160z M208,456h-48v-48h16v16h16v-16h16V456z M240,456h-16v-56c0-4.4-3.6-8-8-8h-24v-56
		c0-4.4-3.6-8-8-8h-64c-4.4,0-8,3.6-8,8v56H88c-4.4,0-8,3.6-8,8v56H64V312h176V456z M272,456h-16V304c0-4.4-3.6-8-8-8H56
		c-4.4,0-8,3.6-8,8v152H32V264h240V456z M272,248H32v-26.5l120-45l120,45V248z M282.8,208.5L196.1,176h90.2l69.4,29.7L332.4,232H288
		v-16C288,212.7,285.9,209.7,282.8,208.5z M344,256v8h-16v-8c0-4.4,3.6-8,8-8S344,251.6,344,256z M313.4,248c-0.9,2.6-1.4,5.3-1.4,8
		v8c-4.4,0-8,3.6-8,8v88h-16V248H313.4z M432,456H288v-80h144V456z M432,360H320v-80h112V360z M480,456h-32v-80h32V456z M480,360
		h-32v-80h32V360z M456,256c0-4.4,3.6-8,8-8s8,3.6,8,8v8h-16V256z M450.1,236.4c-6.3,4.5-10.1,11.8-10.1,19.6v8h-32v-48
		c0-3.2-1.9-6.1-4.8-7.4l-20.7-8.9L400,180L450.1,236.4z"/>
</g>
</svg>
