<svg height="512" viewBox="0 0 512 512" width="512" xmlns="http://www.w3.org/2000/svg"><g id="outline"><path d="m176 288h32a8 8 0 0 0 8-8v-32a8 8 0 0 0 -8-8h-32a8 8 0 0 0 -8 8v32a8 8 0 0 0 8 8zm8-32h16v16h-16z"/><path d="m240 288h32a8 8 0 0 0 8-8v-32a8 8 0 0 0 -8-8h-32a8 8 0 0 0 -8 8v32a8 8 0 0 0 8 8zm8-32h16v16h-16z"/><path d="m304 288h32a8 8 0 0 0 8-8v-32a8 8 0 0 0 -8-8h-32a8 8 0 0 0 -8 8v32a8 8 0 0 0 8 8zm8-32h16v16h-16z"/><path d="m368 160h32a8 8 0 0 0 8-8v-32a8 8 0 0 0 -8-8h-32a8 8 0 0 0 -8 8v32a8 8 0 0 0 8 8zm8-32h16v16h-16z"/><path d="m368 224h32a8 8 0 0 0 8-8v-32a8 8 0 0 0 -8-8h-32a8 8 0 0 0 -8 8v32a8 8 0 0 0 8 8zm8-32h16v16h-16z"/><path d="m368 288h32a8 8 0 0 0 8-8v-32a8 8 0 0 0 -8-8h-32a8 8 0 0 0 -8 8v32a8 8 0 0 0 8 8zm8-32h16v16h-16z"/><path d="m488 304h-48v-208h16a8 8 0 0 0 8-8v-32a8 8 0 0 0 -8-8h-128.512a95.852 95.852 0 0 0 -142.976 0h-128.512a8 8 0 0 0 -8 8v32a8 8 0 0 0 8 8h16v208h-48a8 8 0 0 0 -8 8v48a8 8 0 0 0 8 8h8v80a8 8 0 0 0 -8 8v32a8 8 0 0 0 8 8h448a8 8 0 0 0 8-8v-32a8 8 0 0 0 -8-8v-80h8a8 8 0 0 0 8-8v-48a8 8 0 0 0 -8-8zm-40-240v16h-101.491a95.553 95.553 0 0 0 -7.4-16zm-263.488 112h-8.512a8 8 0 0 0 -8 8v32a8 8 0 0 0 8 8h32a8 8 0 0 0 8-8v-16.741a95.893 95.893 0 0 0 80 0v16.741a8 8 0 0 0 8 8h32a8 8 0 0 0 8-8v-32a8 8 0 0 0 -8-8h-8.512a95.863 95.863 0 0 0 23.171-80h73.341v208h-336v-208h73.341a95.863 95.863 0 0 0 23.171 80zm15.488 16v16h-16v-16zm112 16v-16h16v16zm-56-176a80 80 0 1 1 -80 80 80.091 80.091 0 0 1 80-80zm-192 48v-16h108.887a95.553 95.553 0 0 0 -7.4 16zm56 400h-80v-16h80zm-72-32v-80h88v16h-64a8 8 0 0 0 -8 8v32a8 8 0 0 0 8 8h64v16zm88-48v16h-56v-16zm240 80h-240v-16h240zm-200-80h8v48h-32v-80h16v24a8 8 0 0 0 8 8zm152-16h-144v-32h144zm8 16a8 8 0 0 0 8-8v-24h16v80h-32v-48zm-40 16v-16h16v16zm16 16v16h-16v-16zm-32-32v48h-48v-48zm-80 16v-16h16v16zm16 16v16h-16v-16zm160 16v-16h64a8 8 0 0 0 8-8v-32a8 8 0 0 0 -8-8h-64v-16h88v80zm0-32v-16h56v16zm96 64h-80v-16h80zm8-128h-136v-8a8 8 0 0 0 -8-8h-160a8 8 0 0 0 -8 8v8h-136v-32h448z"/><path d="m144 112h-32a8 8 0 0 0 -8 8v32a8 8 0 0 0 8 8h32a8 8 0 0 0 8-8v-32a8 8 0 0 0 -8-8zm-8 32h-16v-16h16z"/><path d="m144 176h-32a8 8 0 0 0 -8 8v32a8 8 0 0 0 8 8h32a8 8 0 0 0 8-8v-32a8 8 0 0 0 -8-8zm-8 32h-16v-16h16z"/><path d="m144 240h-32a8 8 0 0 0 -8 8v32a8 8 0 0 0 8 8h32a8 8 0 0 0 8-8v-32a8 8 0 0 0 -8-8zm-8 32h-16v-16h16z"/><path d="m208 144h16v16a8 8 0 0 0 8 8h48a8 8 0 0 0 8-8v-16h16a8 8 0 0 0 8-8v-48a8 8 0 0 0 -8-8h-16v-16a8 8 0 0 0 -8-8h-48a8 8 0 0 0 -8 8v16h-16a8 8 0 0 0 -8 8v48a8 8 0 0 0 8 8zm8-48h16a8 8 0 0 0 8-8v-16h32v16a8 8 0 0 0 8 8h16v32h-16a8 8 0 0 0 -8 8v16h-32v-16a8 8 0 0 0 -8-8h-16z"/></g></svg>