<?xml version="1.0" encoding="UTF-8"?>
<svg xmlns="http://www.w3.org/2000/svg" viewBox="0 0 512 512" width="512" height="512"><g id="outline"><circle cx="218" cy="185" r="10"/><path d="M240,256h20.687a35.082,35.082,0,0,0,24.97-10.343,8,8,0,0,0-11.314-11.314A19.187,19.187,0,0,1,260.687,240H240a8,8,0,0,0,0,16Z"/><circle cx="298" cy="185" r="10"/><path d="M152,272a24.028,24.028,0,0,0-24,24v42.289a88.459,88.459,0,0,0-32,67.874V488a8,8,0,0,0,8,8H408a8.009,8.009,0,0,0,1.113-.086c.829.051,1.662.086,2.5.086h16a40.045,40.045,0,0,0,40-40V420.671a51.116,51.116,0,0,1,11.16-31.815,75.073,75.073,0,0,0,15.245-60.348l-.516-2.842a75.094,75.094,0,0,0-144.919-10.924L314.581,286.4A79.688,79.688,0,0,0,336,232v-9.013A32.056,32.056,0,0,0,360,192V111.6a81.838,81.838,0,0,0-36.517-68.23l-.992-.661a81.551,81.551,0,0,0-86.169-2.968L221.876,48H209.554a65.82,65.82,0,0,0-58.871,95.255l7.267,14.532A19.933,19.933,0,0,0,152,172v20a32.056,32.056,0,0,0,24,30.987V232a79.688,79.688,0,0,0,21.419,54.4L176,304.253V296A24.028,24.028,0,0,0,152,272Zm104,40a79.475,79.475,0,0,0,40-10.763v16.874l-6.9,13.8a144.18,144.18,0,0,1-66.2-.006l-6.9-13.8V301.237A79.475,79.475,0,0,0,256,312Zm0,67.194-23.308-29.136a158.676,158.676,0,0,0,46.62,0Zm-33.4-16.142L248,394.806V480H232V440a8,8,0,0,0-8-8H176V366.422l9.344,14.016A8,8,0,0,0,196.8,382.4ZM112,406.163a72.37,72.37,0,0,1,16-45.211V480H112ZM144,296a8,8,0,0,1,16,0V480H144Zm32,184V448h40v32Zm120,0V448h48v32Zm64-40V416a8,8,0,0,0-16,0v16h-8V416a8,8,0,0,0-16,0v16h-8V416a8,8,0,0,0-16,0v16h-8a8,8,0,0,0-8,8v40H264V394.806l25.4-31.754L315.2,382.4a8,8,0,0,0,11.456-1.962l18.2-27.3a75.07,75.07,0,0,0,15.605,35.713,51.114,51.114,0,0,1,11.16,31.815V456a39.788,39.788,0,0,0,8.022,24H360Zm49.274-77.657-13.657-13.656V344H408.3l5.656,5.657a8,8,0,0,0,11.314,0L430.931,344h12.686v4.687L429.96,362.343A8,8,0,0,0,427.617,368v48h-16V368A8,8,0,0,0,409.274,362.343ZM403.617,432h48v16h-64V432Zm24,48h-16a24.042,24.042,0,0,1-22.629-16h61.258A24.042,24.042,0,0,1,427.617,480ZM360.954,331.369l.517-2.841a59.1,59.1,0,0,1,116.293,0l.516,2.843a59.077,59.077,0,0,1-12,47.491A67.205,67.205,0,0,0,451.782,416h-8.165V371.313l13.657-13.656A8,8,0,0,0,459.617,352V336a8,8,0,0,0-8-8h-24a8,8,0,0,0-5.657,2.343l-2.343,2.344-2.343-2.344A8,8,0,0,0,411.617,328h-24a8,8,0,0,0-8,8v16a8,8,0,0,0,2.343,5.657l13.657,13.656V416h-8.165a67.2,67.2,0,0,0-14.5-37.139A59.082,59.082,0,0,1,360.954,331.369Zm-42.919,33.157-19.894-14.92,13.014-26.028A7.994,7.994,0,0,0,312,320V305.081l29.356,24.463ZM192,178a10.011,10.011,0,0,1,10-10h28a10.011,10.011,0,0,1,10,10v12a10.011,10.011,0,0,1-10,10H202a10.011,10.011,0,0,1-10-10Zm38-26H202a25.843,25.843,0,0,0-10,2v-6.148a40.088,40.088,0,0,1,20.155-34.73L239.52,97.488,282.236,128H272a8,8,0,0,0,0,16h32c.2,0,.4-.016.594-.03l12.718,9.084A25.892,25.892,0,0,0,310,152H282a26.03,26.03,0,0,0-26,26A26.03,26.03,0,0,0,230,152Zm42,26a10.011,10.011,0,0,1,10-10h28a10.011,10.011,0,0,1,10,10v12a10.011,10.011,0,0,1-10,10H282a10.011,10.011,0,0,1-10-10Zm64,27.835V166.4l8,5.714V192A16,16,0,0,1,336,205.835Zm-91.739-152.2a65.642,65.642,0,0,1,69.357,2.391l.992.661A65.869,65.869,0,0,1,344,111.6v40.851l-9.871-7.051a8.011,8.011,0,0,0-3.245-2.318L246.267,82.645,234.54,59.191ZM166.3,89.1A49.93,49.93,0,0,1,209.554,64h9.5l10.4,20.809L204.216,99.234A56.122,56.122,0,0,0,176,147.855V152h-3.056l-7.95-15.9A49.72,49.72,0,0,1,166.3,89.1ZM168,192V172a4,4,0,0,1,4-4h4v37.853A16.01,16.01,0,0,1,168,192Zm24,24v-2a25.843,25.843,0,0,0,10,2h28a25.86,25.86,0,0,0,10.44-2.195A22.671,22.671,0,0,0,262.635,232H264a8,8,0,0,0,0-16h-1.365A6.643,6.643,0,0,1,256,209.365V192c0-.226-.015-.447-.034-.668Q256,190.671,256,190a26.03,26.03,0,0,0,26,26h28a25.843,25.843,0,0,0,10-2v18a64,64,0,0,1-128,0Zm8,89.081V320a7.994,7.994,0,0,0,.845,3.578l13.014,26.028-19.894,14.92-17.709-26.564c-.08-.12-.17-.23-.256-.345V325.081Z"/><path d="M240,128H208a8,8,0,0,0,0,16h32a8,8,0,0,0,0-16Z"/></g></svg>
