<svg height="511pt" viewBox="-31 0 511 511.99995" width="511pt" xmlns="http://www.w3.org/2000/svg"><path d="m180.109375 152.777344c-4.957031 0-8.980469 4.019531-8.980469 8.980468v9.789063c0 4.960937 4.023438 8.980469 8.980469 8.980469 4.960937 0 8.980469-4.019532 8.980469-8.980469v-9.789063c0-4.960937-4.019532-8.980468-8.980469-8.980468zm0 0"/><path d="m371.792969 315.324219c8.035156-8.371094 13.128906-19.128907 14.511719-30.648438.464843-4.007812.464843-8.054687 0-12.0625 31.449218-14.707031 45.019531-52.125 30.308593-83.574219-7.671875-16.40625-22.046875-28.703124-39.441406-33.746093-3.667969-16.699219-14.707031-30.835938-30.023437-38.4375h57.476562c4.960938 0 8.980469-4.019531 8.980469-8.980469s-4.019531-8.980469-8.980469-8.980469h-72.304688c-4.851562-59.269531-56.835937-103.382812-116.105468-98.53125-52.53125 4.304688-94.226563 46-98.527344 98.53125h-72.285156c-4.960938 0-8.980469 4.019531-8.980469 8.980469s4.019531 8.980469 8.980469 8.980469h57.476562c-15.332031 7.582031-26.386718 21.726562-30.039062 38.4375-33.347656 9.660156-52.550782 44.527343-42.886719 77.875 5.039063 17.402343 17.347656 31.78125 33.761719 39.457031-.464844 4.003906-.464844 8.050781 0 12.058594 1.386718 11.519531 6.488281 22.277344 14.53125 30.640625-44.484375 6.058593-77.675782 44.015625-77.746094 88.910156v98.785156c0 4.960938 4.019531 8.980469 8.980469 8.980469h431.066406c4.960937 0 8.980469-4.019531 8.980469-8.980469v-98.785156c-.074219-44.890625-33.257813-82.84375-77.734375-88.910156zm-42.316407-186.882813c15.632813 5.386719 30.253907 18.507813 30.296876 32.429688-.050782.382812-.125 1.15625-.132813 1.542968-.058594 4.4375 3.128906 8.253907 7.507813 8.980469 24.445312 4.167969 40.886718 27.363281 36.71875 51.808594-2.8125 16.5-14.566407 30.0625-30.496094 35.195313-4.566406 1.453124-7.183594 6.234374-5.953125 10.867187 5.214843 19.027344-5.984375 38.679687-25.011719 43.894531-2.933594.804688-5.957031 1.230469-8.996094 1.269532h-54.515625v-52.988282c3.640625-3.117187 6.996094-6.550781 10.023438-10.261718l7.941406-9.980469c8.023437-10.082031 13.5625-21.914063 16.164063-34.539063h10.777343c14.878907 0 26.941407-12.0625 26.941407-26.941406v-8.980469c-.066407-13.644531-10.324219-25.085937-23.878907-26.636719zm-80.726562 130.890625-.226562.097657c-15.09375 6.015624-31.917969 6.015624-47.011719 0l-.234375-.097657c-10.242188-4.097656-19.253906-10.777343-26.152344-19.390625l-7.964844-9.929687c-9.046875-11.339844-13.980468-25.414063-13.992187-39.917969v-33.597656l37.0625-37.0625 18.519531 12.339844c16.589844 11.007812 34.191406 20.40625 52.570312 28.0625-.199218.625-.332031 1.269531-.386718 1.921874v9.789063c0 4.960937 4.023437 8.980469 8.980468 8.980469 4.960938 0 8.980469-4.019532 8.980469-8.980469v-4.785156l17.964844 6.6875v16.640625c-.015625 14.507812-4.949219 28.582031-13.992187 39.921875l-7.96875 9.957031c-6.898438 8.601562-15.910157 15.273438-26.148438 19.363281zm19.191406 100h-21.25l17.710938-17.710937zm-82.316406-17.710937 17.710938 17.710937h-21.25zm-44.425781-198.550782-4.367188-26.214843h30.535157zm77.527343-26.214843h94.464844l-6.75 40.539062c-.207031 0-.386718-.125-.605468-.125-.214844 0-.410157.105469-.625.125l-26.171876-9.746093c-21.222656-7.902344-41.464843-18.234376-60.3125-30.792969zm96.09375 61.964843c3.851563-.492187 6.90625-3.484374 7.480469-7.328124l1.613281-9.734376c4.914063.0625 8.867188 4.066407 8.867188 8.980469v8.980469c0 4.960938-4.023438 8.980469-8.980469 8.980469h-8.980469zm-89.808593-160.75c46.089843.0625 84.667969 34.96875 89.320312 80.824219h-178.640625c4.65625-45.855469 43.230469-80.761719 89.320313-80.824219zm-98.660157 145.167969c.667969 4.359375 4.445313 7.558594 8.855469 7.5v17.960938h-8.980469c-4.960937 0-8.980468-4.019531-8.980468-8.980469v-8.980469c0-4.914062 3.949218-8.917969 8.863281-8.980469zm-49.695312 95.195313c-23.605469-7.605469-36.578125-32.90625-28.972656-56.507813 5.132812-15.929687 18.695312-27.683593 35.195312-30.496093 4.375-.726563 7.566406-4.542969 7.507813-8.980469 0-.242188 0-.664063-.082031-1.03125.25-14.574219 14.730468-27.589844 30.246093-32.933594l2.613281 15.652344c-13.542968 1.550781-23.792968 12.972656-23.878906 26.601562v8.980469c0 14.878906 12.0625 26.941406 26.941406 26.941406h10.777344c2.601563 12.625 8.140625 24.457032 16.164063 34.539063l7.96875 9.960937c3.023437 3.710938 6.367187 7.152344 9.992187 10.28125v52.984375h-54.394531c-19.722656-.175781-35.570313-16.308593-35.390625-36.035156.027344-3.078125.453125-6.140625 1.265625-9.109375 1.230469-4.628906-1.390625-9.410156-5.953125-10.863281zm139.375 235.605468h-128.574219c-8.261719-17.460937-8.082031-37.742187.496094-55.050781l1.902344-3.789062c.625-1.25.953125-2.628907.953125-4.023438v-26.941406c0-4.960937-4.019532-8.980469-8.980469-8.980469s-8.980469 4.019532-8.980469 8.980469v24.820313l-.953125 1.894531c-9.746093 19.648437-11.140625 42.398437-3.871093 63.089843h-49.5625v-89.804687c.042968-39.660156 32.183593-71.800781 71.84375-71.84375h78.851562l-6.828125 34.125c-.992187 4.859375 2.144531 9.601563 7.003906 10.59375.589844.121094 1.195313.183594 1.796875.183594h44.902344zm-26.941406-178.273437v-42.378906c1.796875.851562 3.457031 1.796875 5.273437 2.53125l.257813.109375c19.503906 7.832031 41.277344 7.832031 60.78125 0l.253906-.109375c1.792969-.734375 3.527344-1.679688 5.277344-2.539063v43.105469l-35.867188 38.554687zm242.476562 178.273437h-49.339844c6.90625-20.660156 5.621094-43.179687-3.59375-62.917968l-.894531-1.894532.4375-24.832031c.089844-4.957031-3.855469-9.050781-8.816406-9.140625-.007813 0-.019531 0-.027344 0-4.914062.019532-8.941406 3.90625-9.136719 8.816406l-.472656 26.941407c-.011718 1.386719.292969 2.757812.898438 4.007812l1.792968 3.789063c8.140626 17.472656 8.324219 37.609375.511719 55.230468h-128.933593v-116.746093h44.902343c4.960938 0 8.984375-4.019531 8.984375-8.980469 0-.601562-.0625-1.207031-.179687-1.796875l-6.828125-34.125h78.851562c39.660156.042969 71.796875 32.183594 71.84375 71.84375zm0 0"/><path d="m36.421875 386.273438h17.960937v17.960937h-17.960937zm0 0"/><path d="m108.265625 350.351562h17.960937v17.960938h-17.960937zm0 0"/><path d="m72.34375 350.351562h17.960938v17.960938h-17.960938zm0 0"/><path d="m144.1875 386.273438h17.960938v17.960937h-17.960938zm0 0"/><path d="m180.109375 386.273438h17.960937v17.960937h-17.960937zm0 0"/><path d="m180.109375 422.195312h17.960937v17.960938h-17.960937zm0 0"/><path d="m144.1875 422.195312h17.960938v17.960938h-17.960938zm0 0"/><path d="m180.109375 458.117188h17.960937v17.960937h-17.960937zm0 0"/><path d="m144.1875 458.117188h17.960938v17.960937h-17.960938zm0 0"/><path d="m108.265625 386.273438h17.960937v17.960937h-17.960937zm0 0"/><path d="m108.265625 422.195312h17.960937v17.960938h-17.960937zm0 0"/><path d="m108.265625 458.117188h17.960937v17.960937h-17.960937zm0 0"/><path d="m36.421875 422.195312h17.960937v17.960938h-17.960937zm0 0"/><path d="m36.421875 458.117188h17.960937v17.960937h-17.960937zm0 0"/><path d="m251.953125 386.273438h17.960937v17.960937h-17.960937zm0 0"/><path d="m287.878906 386.273438h17.960938v17.960937h-17.960938zm0 0"/><path d="m287.878906 422.195312h17.960938v17.960938h-17.960938zm0 0"/><path d="m251.953125 422.195312h17.960937v17.960938h-17.960937zm0 0"/><path d="m287.878906 458.117188h17.960938v17.960937h-17.960938zm0 0"/><path d="m323.800781 386.273438h17.960938v17.960937h-17.960938zm0 0"/><path d="m323.800781 422.195312h17.960938v17.960938h-17.960938zm0 0"/><path d="m323.800781 458.117188h17.960938v17.960937h-17.960938zm0 0"/><path d="m395.644531 386.273438h17.960938v17.960937h-17.960938zm0 0"/><path d="m395.644531 422.195312h17.960938v17.960938h-17.960938zm0 0"/><path d="m395.644531 458.117188h17.960938v17.960937h-17.960938zm0 0"/><path d="m251.953125 458.117188h17.960937v17.960937h-17.960937zm0 0"/><path d="m323.800781 350.351562h17.960938v17.960938h-17.960938zm0 0"/><path d="m359.722656 350.351562h17.960938v17.960938h-17.960938zm0 0"/><path d="m218.664062 204.03125c3.566407 3.445312 9.253907 3.34375 12.699219-.222656 3.359375-3.480469 3.359375-8.996094 0-12.476563l-4.402343-4.402343 6.089843-12.175782c2.21875-4.441406.414063-9.835937-4.023437-12.054687-4.4375-2.214844-9.835938-.414063-12.050782 4.023437l-8.980468 17.960938c-1.726563 3.460937-1.046875 7.632812 1.6875 10.363281zm0 0"/><path d="m239.257812 216.449219c-9.050781 4.121093-19.441406 4.121093-28.488281 0-4.558593-1.953125-9.835937.164062-11.789062 4.722656-1.890625 4.414063.027343 9.535156 4.355469 11.621094 13.769531 6.277343 29.585937 6.277343 43.355468 0 4.46875-2.152344 6.34375-7.523438 4.1875-11.988281-2.085937-4.328126-7.207031-6.246094-11.621094-4.355469zm0 0"/></svg>