<?xml version="1.0" encoding="utf-8"?>
<!-- Generator: Adobe Illustrator 25.4.1, SVG Export Plug-In . SVG Version: 6.00 Build 0)  -->
<svg version="1.1" id="Layer_1" xmlns="http://www.w3.org/2000/svg" xmlns:xlink="http://www.w3.org/1999/xlink" x="0px" y="0px"
	 viewBox="0 0 512 512" style="enable-background:new 0 0 512 512;" xml:space="preserve">
<style type="text/css">
	.st0{fill:#D4E1F4;}
	.st1{fill:#060D47;}
	.st2{fill:#E6332A;}
</style>
<path class="st0" d="M373.9,60.3c-6.8-1.1-13.7-1.5-20.5-1.1c-45.5,2.7-81.8,39.8-82,83.6c-0.1,27.1,13,51,33.6,66.3
	c10.2,7.6,16.6,19.2,17.6,31.9h30c-1-12.7-7.5-24.3-17.6-31.9c-20.6-15.3-33.7-39.3-33.6-66.3C301.5,102.1,332.9,67.2,373.9,60.3
	L373.9,60.3z"/>
<g>
	<path class="st1" d="M359,49.4c3.3,0,6-2.7,6-6V11c0-3.3-2.7-6-6-6s-6,2.7-6,6v32.4C353,46.7,355.7,49.4,359,49.4z"/>
	<path class="st1" d="M455.8,146c0,3.3,2.7,6,6,6h32.4c3.3,0,6-2.7,6-6s-2.7-6-6-6h-32.4C458.5,140,455.8,142.7,455.8,146L455.8,146
		z"/>
	<path class="st1" d="M223.5,152h32.4c3.3,0,6-2.7,6-6s-2.7-6-6-6l0,0h-32.4c-3.3,0-6,2.7-6,6S220.2,152,223.5,152z"/>
	<path class="st1" d="M431.6,79.6c1.6,0,3.1-0.6,4.2-1.8l22.9-22.9c2.3-2.3,2.3-6.1,0-8.5s-6.1-2.3-8.5,0l-22.9,22.9
		c-2.3,2.3-2.3,6.1,0,8.5C428.5,78.9,430.1,79.6,431.6,79.6z"/>
	<path class="st1" d="M281.8,77.8c2.4,2.3,6.2,2.3,8.5-0.1c2.3-2.3,2.3-6.1,0-8.4l-22.9-22.9c-2.3-2.3-6.1-2.3-8.5,0s-2.3,6.1,0,8.5
		L281.8,77.8z"/>
</g>
<path class="st2" d="M434.4,315.3c7.6,0,15.4,5.5,19.2,13.7c1.4,3,4.9,4.3,7.9,2.9c2.1-1,3.5-3.1,3.5-5.4v-77.1
	c0-3.3-2.6-6.4-5.9-6.4H401v12h52v54.8c-5.3-4.2-11.9-6.4-18.6-6.4c-18.2,0-33,17.9-33,39.8s14.8,39.8,33,39.8
	c6.8,0,13.3-2.3,18.6-6.4V433h-76.1c-3.2,0-5.8,2.5-5.9,5.7c0,0.1,0,0.1,0,0.2v9.1c0,2.5,1.6,4.8,4,5.7c9.6,3.3,16.2,11.7,16.2,20.3
	c0,11.6-12.5,21.1-27.9,21.1s-27.8-9.4-27.8-21.1c0-8.6,6.8-16.9,16.4-20.3c2.4-0.8,4.1-3.1,4.1-5.7v-9.1c-0.1-3.3-2.9-5.9-6.2-5.9
	H276v-75.3c0-3.3-3.1-5.7-6.4-5.7h-10.2c-2.5-0.1-4.8,1.5-5.7,3.9c-3.3,9.6-11.7,16.2-20.3,16.2c-11.6,0-21.1-12.5-21.1-27.9
	s9.4-27.9,21.1-27.9c8.6,0,16.9,6.9,20.3,16.5c0.8,2.5,3.1,4.1,5.7,4.2h10.2c3.5-0.2,6.2-2.9,6.4-6.4V255h40v-12H194.5
	c11.7-5.9,19.9-17.5,19.9-29.7c0-18.2-17.8-33.1-39.8-33.1s-39.9,14.8-39.9,33.1c0,12.1,8,23.7,19.8,29.7H79.9
	c-3.3,0-5.9,3.1-5.9,6.4v72.5c-6-11.2-17.4-18.6-29.1-18.6c-18.2,0-33.1,17.9-33.1,39.8s14.9,39.8,33.1,39.8
	c11.7,0,23.1-7.4,29.1-18.6v74.5c0,3.3,2.6,6.1,5.9,6.1h79c3.4,0,6-2.8,6-6.1c0-2.3-1.4-4.4-3.5-5.4c-8.2-3.8-13.7-11.6-13.7-19.2
	c0-11.6,12.5-21.1,27.8-21.1s27.8,9.4,27.8,21.1c0,7.6-5.5,15.4-13.7,19.2c-3,1.5-4.3,5.1-2.9,8.1c1,2.1,3.1,3.4,5.4,3.5h149.8
	c-11.2,6-18.6,17.3-18.6,29c0,18.2,17.9,33,39.8,33s39.8-14.8,39.8-33c0-11.7-7.4-23-18.6-29h74.5c3.3-0.1,6-2.8,5.9-6.1v-79
	c0-3.3-2.6-6-5.9-6c-2.3,0-4.5,1.3-5.4,3.5c-3.8,8.2-11.6,13.7-19.2,13.7c-11.6,0-21.1-12.5-21.1-27.8S422.8,315.3,434.4,315.3
	L434.4,315.3z M264,433h-55c4.1-6,6.4-12.1,6.4-18.7c0-18.2-17.9-33.1-39.8-33.1s-39.8,14.9-39.8,33.1c0,6.7,2.3,12.7,6.4,18.7H86
	v-76.4c-0.1-3.2-2.7-5.7-5.9-5.6c-0.1,0-0.1,0-0.2,0h-9.1c-2.5-0.1-4.8,1.5-5.7,3.9c-3.3,9.6-11.7,16.2-20.3,16.2
	c-11.6,0-21.1-12.5-21.1-27.9s9.4-27.9,21.1-27.9c8.6,0,16.9,6.9,20.3,16.5c0.8,2.5,3.1,4.1,5.7,4.2h9.1c3.4-0.2,6.1-3,6.1-6.4V255
	h75.1c3.1,0.2,5.7-2.2,5.9-5.2c0-0.1,0-0.2,0-0.4v-10.2c0-2.5-1.6-4.8-4-5.7c-9.6-3.3-16.2-11.7-16.2-20.3
	c0-11.6,12.5-21.1,27.8-21.1s27.8,9.4,27.8,21.1c0,8.6-6.8,16.9-16.4,20.3c-2.4,0.8-4.1,3.1-4.1,5.7v10.2c0,3.3,2.9,5.6,6.2,5.6H264
	v70h-0.5c-5.8-13-17.6-20.5-29.9-20.5c-18.2,0-33.1,17.8-33.1,39.7s14.8,39.9,33.1,39.9c12.3,0,24.1-8.2,29.9-20.2h0.5V433z"/>
<path class="st2" d="M107,267.6c-3.3,0-6,2.7-6,6v3.8c0,3.3,2.7,6,6,6s6-2.7,6-6v-3.8C113,270.3,110.3,267.6,107,267.6z"/>
<path class="st2" d="M107,288.8c-3.3,0-6,2.7-6,6v71.9c0,3.3,2.7,6,6,6s6-2.7,6-6v-71.9C113,291.5,110.3,288.8,107,288.8z"/>
<path class="st1" d="M353,52.3c-23.4,1.4-45.5,11.4-61.9,28.2c-16.5,16.8-25.6,38.6-25.7,61.4c-0.1,28.2,13,54.1,36,71.2
	c7.1,5.2,12.2,12.7,14.4,21.2c-2.9,0.5-4.9,3-4.9,5.9v17.3c0,3.3,2.3,6.5,5.7,6.5h0.3v3h-0.3c-3-0.1-5.6,2.3-5.7,5.4
	c0,0.1,0,0.3,0,0.4v16.7c-0.1,2.9,2.2,5.4,5.1,5.5c0.2,0,0.4,0,0.5,0h4.7l5,13.1c0.9,2.3,3.1,3.9,5.6,3.9h53.7
	c2.5,0,4.7-1.5,5.6-3.9l5-13.1h4.7c3.3,0,5.9-2.2,5.9-5.5v-16.7c0-3.2-2.6-5.8-5.8-5.8c-0.1,0-0.1,0-0.2,0H401v-3h0.1
	c3.3,0,5.9-3.2,5.9-6.5v-17.3c0-2.9-2.1-5.4-5-5.9c2.1-8.4,7.1-15.9,14.1-21.1c23-17.3,36.2-43.2,36.2-71.1
	c0-24.4-10.2-47.7-28.1-64.3C405,59.9,379.2,50.7,353,52.3L353,52.3z M381.6,300h-45.4l-1.9-5h49.2L381.6,300z M395,283h-72v-4h72
	V283z M329,267v-3h60v3H329z M395,252h-72v-6h72V252z M416,86.5c15.5,14.3,24.3,34.5,24.3,55.6c0,24.1-11.5,46.4-31.4,61.4
	c-10,7.4-16.8,18.3-19.1,30.5h-61.9c-2.4-12.3-9.3-23.3-19.3-30.7c-19.9-14.8-31.3-37.2-31.2-61.5c0.1-19.6,8-38.4,22.3-53
	c14.3-14.6,33.6-23.4,54.1-24.6C376.6,62.8,399.2,70.9,416,86.5z"/>
</svg>
