<?xml version="1.0" encoding="utf-8"?>
<!-- Generator: Adobe Illustrator 25.4.1, SVG Export Plug-In . SVG Version: 6.00 Build 0)  -->
<svg version="1.1" id="Layer_1" xmlns="http://www.w3.org/2000/svg" xmlns:xlink="http://www.w3.org/1999/xlink" x="0px" y="0px"
	 viewBox="0 0 512 512" style="enable-background:new 0 0 512 512;" xml:space="preserve">
<style type="text/css">
	.st0{fill:#D4E1F4;}
	.st1{fill:#E6332A;}
	.st2{fill:#060D47;}
</style>
<path class="st0" d="M236.6,476.9c-7-4.7-13.1-10.5-18.1-17.2l-14.7,1.1l-10.6-24.1l10.6-10.1c-1.5-8.2-1.7-16.7-0.6-25l-11-9.5
	l9.5-24.6l14.6,0.4c4.7-7,10.5-13.1,17.2-18.1l-1.1-14.7l6.5-2.9l-7.4-7.7L207.5,335l1.1,14.7c-6.7,5-12.6,11.1-17.2,18.1l-14.6-0.4
	l-9.5,24.6l11,9.5c-1.1,8.3-0.9,16.8,0.6,25l-10.6,10.1l10.6,24.1l14.7-1.1c5,6.7,11.1,12.6,18.1,17.2l-0.4,14.7l24.6,9.5l6.2-7.2
	l-5.8-2.2L236.6,476.9z"/>
<path class="st1" d="M476,187.2c0-34.1-27.7-61.8-61.8-61.8s-61.8,27.7-61.8,61.8c0,31.7,24,58.3,55.6,61.5c0,0.1,0,0.1,0,0.2v27
	c0,5-4.1,9.1-9.1,9c0,0-0.1,0-0.1,0H262v-36.3c34-3.5,58.6-34,55.1-67.9s-34-58.6-67.9-55.1s-58.6,34-55.1,67.9
	c3.1,29.4,26.5,52.5,55.9,55.2V285H113.3c-5,0.1-9.2-3.9-9.3-8.9c0,0,0-0.1,0-0.1v-27c0-0.1,0-0.1,0-0.2
	c34.1-3.6,58.8-34.1,55.2-68.2c-3.3-31.4-29.7-55.3-61.3-55.5h-0.2c-16.5,1-32,6.8-43.6,18.5C29.9,167.7,30.1,207,54.4,231
	c10.1,10.1,23.4,16.3,37.7,17.7c0,0.1,0,0.1,0,0.2v27c0,11.7,9.5,21.1,21.2,21c0,0,0.1,0,0.1,0H250v35h12v-35h136.7
	c11.7,0.1,21.2-9.3,21.3-20.9c0,0,0-0.1,0-0.1v-27c0-0.1,0-0.1,0-0.2C451.7,245.7,475.9,219.1,476,187.2z M62,218.9v3.1
	c-8-9-14.1-21.3-14.1-34.8c0-13.3,5.2-26,14.6-35.3c9.4-9.4,21.9-13.9,35.2-14.9h0.2c27.5,0.2,49.7,22.6,49.6,50.1
	c0,13.2-4.4,25.7-14.4,35.1v-3.2c0-12.3-8.9-22.8-21-24.9c5.6-4.4,9-11.2,9-18.3v-4.8c0-12.7-10.3-23-23-23s-23,10.3-23,23v4.8
	c-0.2,7.1,3,13.8,8.5,18.3C71.6,196,62,206.4,62,218.9z M109,170.9v4.8c0,6.1-4.9,11-11,11s-11-4.9-11-11v-4.8c0-6.1,4.9-11,11-11
	S109,164.8,109,170.9z M98,237h-0.2c-8.3,0-16.5-2-23.8-5.9v-12.2c0-7.3,6.3-12.9,13.6-12.9H108c7-0.1,12.8,5.5,13,12.5
	c0,0.1,0,0.3,0,0.4v12.2C113.9,235,106,237,98,237z M220,218.9v3.2c-9.2-9.3-14.4-21.8-14.3-34.9c0-27.5,22.3-49.8,49.8-49.8
	s49.8,22.3,49.8,49.8c0.1,13.1-5.1,25.6-14.3,34.9v-3.2c0-12.3-8.9-22.8-21-24.9c5.6-4.4,9-11.2,9-18.3v-4.8
	c0-13-10.5-23.5-23.5-23.5S232,157.9,232,170.9v4.8c0,7.2,3.3,13.9,9,18.3C228.9,196.1,220,206.6,220,218.9z M267,170.9v4.8
	c0,6.4-5.1,11.5-11.5,11.5c-6.4,0-11.5-5.1-11.5-11.5v-4.8c0-6.4,5.1-11.5,11.5-11.5C261.9,159.4,267,164.5,267,170.9z M255.5,237
	c-8.2,0-16.3-2-23.5-5.9v-12.2c0.1-7.2,5.9-13,13.1-12.9c0.1,0,0.1,0,0.2,0h20.4c7.2-0.1,13.1,5.6,13.3,12.7c0,0.1,0,0.1,0,0.2v12.2
	C271.8,235,263.7,237,255.5,237L255.5,237z M438,231.1c-14.7,7.9-32.3,7.9-47,0v-12.2c-0.1-7,5.5-12.8,12.6-12.9c0.1,0,0.3,0,0.4,0
	h20.4c7.3,0,13.6,5.6,13.6,12.9V231.1z M403,175.7v-4.8c0-6.1,4.9-11,11-11s11,4.9,11,11v4.8c0,6.1-4.9,11-11,11
	S403,181.8,403,175.7L403,175.7z M428.5,194c5.5-4.5,8.6-11.2,8.5-18.3v-4.8c0-12.7-10.3-23-23-23s-23,10.3-23,23v4.8
	c0,7.2,3.3,13.9,9,18.3c-12.1,2.1-21,12.6-21,24.9v3.2c-9.3-9.2-14.5-21.8-14.5-34.9c0.1-27.5,22.5-49.7,50-49.6
	c27.3,0.1,49.5,22.3,49.6,49.6c0,13.6-6.2,25.9-14.2,34.9v-3.2C450,206.4,440.5,196,428.5,194L428.5,194z"/>
<path class="st1" d="M396.6,66.8C396.6,32.7,369,5,334.8,5s-61.8,27.7-61.8,61.8s27.7,61.8,61.8,61.8c0,0,0,0,0,0
	C369,128.5,396.6,100.9,396.6,66.8z M299,98.5v3.2c-8-9-14.1-21.3-14.1-34.9c-0.1-27.5,22.1-49.9,49.5-50s49.9,22.1,50,49.5
	c0,0.1,0,0.3,0,0.4c0,13.1-5.2,25.6-14.4,34.9v-3.2c0-12.3-8.9-22.8-21-24.9c5.6-4.4,9-11.2,9-18.3v-4.8c0-12.7-10.3-23-23-23
	s-23,10.3-23,23v4.8c-0.2,7.1,3,13.8,8.5,18.3C308.5,75.6,299,86,299,98.5z M346,50.4v4.8c0,6.1-4.9,11-11,11s-11-4.9-11-11v-4.8
	c0-6.1,4.9-11,11-11S346,44.4,346,50.4z M311,110.7V98.5c0.2-7.4,6.2-13.4,13.6-13.5h20.4c7.3,0,12.9,6.2,12.9,13.5v12.2
	C343.3,118.5,325.7,118.5,311,110.7z"/>
<path class="st1" d="M177,5c-34.2,0.2-61.7,28-61.6,62.2c0.1,34,27.8,61.8,61.8,61.8h0.2c34.2-0.3,61.7-28.2,61.6-62.4
	C238.8,32.5,211.2,5,177.2,5H177z M201,111c-7.3,3.9-15.4,6-23.7,6h-0.2c-8.1,0-16.1-2-23.1-5.9V98.5c0-7.3,5.6-13.5,12.9-13.5h20.4
	c7.4,0.1,13.5,6,13.6,13.5V111z M166,55.3v-4.8c0-6.1,4.9-11,11-11s11,4.9,11,11v4.8c0,6.1-4.9,11-11,11S166,61.3,166,55.3z
	 M227.1,66.7c0,13.1-5,25.7-14.1,35.2v-3.5c0-12.5-9.5-22.9-21.5-24.9c5.5-4.5,8.6-11.2,8.5-18.3v-4.8c0-12.7-10.3-23-23-23
	s-23,10.3-23,23v4.8c0,7.2,3.3,13.9,9,18.3c-12.1,2.1-21,12.6-21,24.9v3.5c-9.3-9.2-14.5-21.8-14.5-34.8c-0.1-13.3,5.1-26,14.4-35.5
	C151.2,22.3,163.8,17,177,17h0.2C204.6,17,227,39.2,227.1,66.7L227.1,66.7z"/>
<path class="st1" d="M117.3,306h-3.7c-3.3,0-6,2.7-6,6s2.7,6,6,6h3.7c3.3,0,6-2.7,6-6S120.7,306,117.3,306L117.3,306z"/>
<path class="st1" d="M204,306h-65.2c-3.3,0-6,2.7-6,6s2.7,6,6,6H204c3.3,0,6-2.7,6-6S207.4,306,204,306L204,306z"/>
<path class="st2" d="M256,355.1c-31.5,0-57.1,25.6-57.1,57.1c0,31.5,25.6,57.1,57.1,57.1s57.1-25.6,57.1-57.1c0,0,0,0,0,0
	C313,380.7,287.5,355.2,256,355.1z M256,457.3c-24.9,0-45.1-20.2-45.1-45.1c0-24.9,20.2-45.1,45.1-45.1s45.1,20.2,45.1,45.1v0
	C301,437.1,280.9,457.2,256,457.3z"/>
<path class="st2" d="M256,385.2c-14.9,0-27,12.1-27,27c0,14.9,12.1,27,27,27c14.9,0,27-12.1,27-27c0,0,0,0,0,0
	C283,397.3,270.9,385.2,256,385.2z M256,427.2c-8.3,0-15-6.7-15-15c0-8.3,6.7-15,15-15s15,6.7,15,15v0
	C271,420.5,264.3,427.2,256,427.2z"/>
<path class="st2" d="M340.1,420.5c0.6-6.8,0.4-13.6-0.5-20.4l8.3-7.9c1.8-1.7,2.4-4.4,1.3-6.7l-10.6-24.1c-1-2.3-3.4-3.8-5.9-3.6
	l-11.4,0.8c-4.3-5.3-9.3-10.1-14.8-14.1l0.3-11.4c0.1-2.5-1.5-4.9-3.8-5.8l-24.6-9.5c-2.4-0.9-5-0.2-6.7,1.7l-7.4,8.6
	c-6.8-0.6-13.6-0.4-20.4,0.5l-7.9-8.3c-1.7-1.8-4.4-2.4-6.7-1.3l-24.1,10.6c-2.3,1-3.8,3.4-3.6,5.9l0.8,11.4
	c-5.3,4.3-10.1,9.3-14.1,14.8l-11.4-0.3c-2.5-0.1-4.9,1.5-5.8,3.8l-9.5,24.6c-0.9,2.4-0.2,5,1.7,6.7l8.6,7.4
	c-0.6,6.8-0.4,13.6,0.5,20.4l-8.3,7.9c-1.8,1.7-2.4,4.4-1.3,6.7l10.6,24.1c1,2.3,3.4,3.8,5.9,3.6l11.4-0.8
	c4.3,5.3,9.3,10.1,14.8,14.1l-0.3,11.4c-0.1,2.5,1.5,4.9,3.8,5.8l24.6,9.5c2.4,0.9,5,0.2,6.7-1.7l7.4-8.6c6.8,0.6,13.6,0.4,20.4-0.5
	l7.9,8.3c1.7,1.8,4.4,2.4,6.7,1.3l24.1-10.6c2.3-1,3.8-3.4,3.6-5.9l-0.8-11.4c5.3-4.3,10.1-9.3,14.1-14.8l11.4,0.3
	c2.5,0.1,4.9-1.5,5.8-3.8l9.5-24.6c0.9-2.4,0.2-5-1.7-6.7L340.1,420.5z M331.2,450.9l-10.4-0.3c-2.1-0.1-4,1-5.2,2.7
	c-4.3,6.4-9.6,12-15.8,16.6c-1.7,1.2-2.6,3.2-2.4,5.3l0.8,10.4l-16.4,7.2l-7.2-7.5c-1.4-1.5-3.4-2.1-5.4-1.7
	c-7.6,1.4-15.4,1.6-23.1,0.6c-2-0.3-4,0.5-5.3,2l-6.7,7.8l-16.7-6.4l0.3-10.4c0.1-2.1-0.9-4-2.7-5.2c-6.4-4.3-12-9.6-16.6-15.8
	c-1.2-1.7-3.2-2.6-5.3-2.4l-10.4,0.8l-7.2-16.4l7.5-7.2c1.5-1.4,2.1-3.4,1.7-5.4c-1.4-7.6-1.6-15.4-0.6-23.1c0.3-2-0.5-4-2-5.3
	l-7.8-6.7l6.4-16.7l10.4,0.3c2.1,0.1,4-1,5.2-2.7c4.3-6.4,9.6-12,15.8-16.6c1.7-1.2,2.6-3.2,2.4-5.3l-0.8-10.4l16.4-7.2l7.2,7.5
	c1.4,1.5,3.4,2.1,5.4,1.7c7.6-1.4,15.4-1.6,23.2-0.6c2,0.3,4-0.5,5.3-2l6.7-7.8l16.7,6.4l-0.3,10.4c-0.1,2.1,0.9,4,2.7,5.2
	c6.4,4.3,12,9.6,16.6,15.8c1.2,1.7,3.2,2.6,5.3,2.4l10.4-0.8l7.2,16.4l-7.5,7.2c-1.5,1.4-2.1,3.4-1.7,5.4c1.4,7.6,1.6,15.4,0.6,23.1
	c-0.3,2,0.5,4,2,5.3l7.8,6.7L331.2,450.9z"/>
</svg>
