<?xml version="1.0" encoding="utf-8"?>
<!-- Generator: Adobe Illustrator 25.4.1, SVG Export Plug-In . SVG Version: 6.00 Build 0)  -->
<svg version="1.1" id="Layer_1" xmlns="http://www.w3.org/2000/svg" xmlns:xlink="http://www.w3.org/1999/xlink" x="0px" y="0px"
	 viewBox="0 0 512 512" style="enable-background:new 0 0 512 512;" xml:space="preserve">
<style type="text/css">
	.st0{fill:#D4E1F4;}
	.st1{fill:#060D47;}
	.st2{fill:#E6332A;}
</style>
<path class="st0" d="M59,258V141H29v155h9v28.9c0,16.5-4.7,32.8-13.4,46.8c-4.2,6.9-6.9,14.5-8.1,22.5c-1.1,8.1-1.7,16.2-1.5,24.3
	v54.3c0,8.8,7.1,15.9,15.9,15.9c4.2,0,8.3-1.7,11.3-4.6c1.6-1.6,2.9-3.6,3.7-5.8c-0.6-1.7-1-3.6-1-5.4v-54.3
	c-0.1-8.1,0.4-16.3,1.5-24.3c1.1-8,3.9-15.6,8.1-22.5c8.7-14,13.4-30.3,13.4-46.8V294h-9V258z"/>
<path class="st1" d="M52,156.4c-3.3,0-6,2.7-6,6v1.6c0,3.3,2.7,6,6,6s6-2.7,6-6v-1.6C58,159.1,55.3,156.4,52,156.4z"/>
<path class="st1" d="M162.5,350.9c-8.7-4.1-15.4-11.5-18.5-20.6c-1.2-3.5-1.9-7.1-2-10.8V302h3.2c3.3,0,5.8-3,5.8-6.3V140.7
	c0.1-3.1-2.4-5.7-5.5-5.7c-0.1,0-0.2,0-0.3,0H29.3c-3.3,0-6.3,2.4-6.3,5.7v154.9c0.1,3.4,2.9,6.2,6.3,6.3H32v22.9
	c0,15.4-4.4,30.6-12.6,43.6C9.9,383.9,9,400.9,9,418.5v54.3c0,12.1,9.9,21.9,22,21.9c4.5,0,8.9-1.4,12.6-4
	c5.8,10.6,19.2,14.5,29.8,8.6c2.1-1.1,3.9-2.6,5.5-4.3c8.5,9,22.6,9.4,31.6,0.9c0.2-0.2,0.5-0.4,0.7-0.7c7.8,8.5,21,9.1,29.5,1.3
	c4.1-3.7,6.5-8.9,6.8-14.4l-12-0.6c-0.3,4.9-4.4,8.7-9.4,8.4c-4.7-0.2-8.4-4.1-8.4-8.8l0-31.2c0-3.3-2.7-6-6-6c0,0,0,0,0,0h0
	c-3.3-0.1-5.9,2.6-6,5.8c0,0,0,0,0,0.1l0,29.7c0.1,5.7-4.4,10.4-10.1,10.5S85.1,485.7,85,480c0-0.2,0-0.3,0-0.5v-29.8
	c0-3.3-2.7-6-6-6c-3.4,0.1-6,2.9-6,6.2v30.1c0,5.5-4.5,10-10,10s-10-4.5-10-10v-40.2c0-3.3-2.7-6-6-6s-6,2.7-6,6v32.9
	c0,5.5-4.5,10-10,10s-10-4.5-10-10v-54.3c0-15.8,0.8-31,8.6-43.6c9.4-15,14.3-32.3,14.4-50V302h86v17.5
	c0.4,18.1,10.9,34.4,27.2,42.3c4.1,1.9,6.8,4.2,8.5,7.1l10.4-6C173.2,357.8,168.8,353.9,162.5,350.9z M139,290H35v-27h104V290z
	 M139,251H35V147h104V251z"/>
<path class="st1" d="M52,236.1c3.3,0,6-2.7,6-6l0,0V181c0-3.3-2.7-6-6-6s-6,2.7-6,6v49.2C46,233.4,48.7,236.1,52,236.1L52,236.1z"/>
<path class="st2" d="M501.8,416c0-6-2.4-11.8-6.8-16c8.5-7.8,9.1-21,1.3-29.5c-3.4-3.7-7.9-6-12.9-6.6l-1.5,11.9
	c4.5,0.6,7.8,4.3,7.8,8.8c0.2,4.7-3.5,8.7-8.3,8.9c-0.1,0-0.2,0-0.3,0L450,394h-0.4c-3.2-0.1-5.9,2.4-6,5.6c0,0.1,0,0.1,0,0.2
	c0,3.3,2.7,5.9,5.9,5.9c0,0,0.1,0,0.1,0l29.8,0c5.6,0,10.2,4.6,10.2,10.2S485,426,479.4,426c0,0,0,0,0,0h-29.8c-3.3,0-6,2.7-6,6
	s2.7,6,6,6H480c5.5,0,9.9,4.5,9.9,10c0,5.5-4.5,10-10,10h-40.2c-3.3,0-6,2.7-6,6s2.7,6,6,6h32.9c5.5,0,10,4.5,10,10s-4.5,10-10,10
	h-54.3c-15.8,0-31-0.8-43.6-8.6c-15-9.4-32.3-14.3-50-14.4H301v-86h18.3c18.1-0.3,34.5-10.8,42.3-27.2c2.1-4.4,4.6-7.3,7.9-9
	l-5.4-10.8c-5.8,2.9-10.2,7.7-13.4,14.5c-5.8,12.2-17.9,20.1-31.4,20.3H301v-3.1c0-3.3-2.2-5.9-5.6-5.9H140.5
	c-3.3,0-5.5,2.6-5.5,5.9v115.9c0,3.3,2.2,6.2,5.5,6.2h154.9c3.3,0,5.6-2.9,5.6-6.2V479h23.7c15.4,0,30.6,4.4,43.6,12.6
	c15.3,9.5,32.4,10.4,50,10.4h54.3c12.1,0,21.9-9.8,21.9-21.8c0-4.5-1.4-8.9-4-12.6c10.6-5.8,14.5-19.2,8.6-29.8
	c-1.1-2.1-2.6-3.9-4.3-5.5C499.2,428,501.8,422.1,501.8,416z M251,476H147V372h104V476z M289,476h-26V372h26V476z"/>
<path class="st1" d="M481.1,17.3c-4.5,0-8.9,1.4-12.6,4c-5.8-10.6-19.2-14.5-29.8-8.6c-2.1,1.1-3.9,2.6-5.5,4.3
	c-8.5-9-22.6-9.4-31.6-0.9c-0.2,0.2-0.5,0.4-0.7,0.7c-7.8-8.5-21-9.1-29.5-1.3c-4.1,3.7-6.5,8.9-6.8,14.4l12,0.6
	c0.3-4.9,4.4-8.7,9.4-8.4c4.7,0.2,8.4,4.1,8.4,8.8l0,31.2c0,3.3,2.7,6,6,6c0,0,0,0,0,0h0c3.3,0.1,5.9-2.6,6-5.8c0,0,0,0,0-0.1
	l0-29.7c-0.1-5.7,4.5-10.3,10.2-10.4c5.7-0.1,10.3,4.5,10.4,10.2c0,0.1,0,0.2,0,0.3v29.8c0,3.3,2.7,6,6,6s6-2.7,6-6l0,0V31.9
	c0-5.5,4.5-10,10-10s10,4.5,10,10v40.2c0,3.3,2.7,6,6,6s6-2.7,6-6V39.2c0-5.5,4.5-10,10-10s10,4.5,10,10v54.3
	c0,15.8-0.8,31-8.6,43.6c-9.4,15-14.3,32.3-14.4,50V210h-86v-17.5c-0.4-18.1-10.9-34.4-27.2-42.3c-4.1-1.9-6.8-4.2-8.5-7.1l-10.4,6
	c3,5.1,7.5,9,13.8,12c8.7,4.1,15.4,11.5,18.5,20.6c1.2,3.5,1.9,7.1,2,10.8V210h-3.2c-3.3,0-5.8,3-5.8,6.3v154.9
	c-0.1,3.1,2.4,5.7,5.5,5.7c0.1,0,0.2,0,0.3,0h115.9c3.3,0,6.3-2.4,6.3-5.7V216.3c-0.1-3.4-2.9-6.2-6.3-6.3H480v-22.9
	c0-15.4,4.4-30.6,12.6-43.6c9.5-15.3,10.4-32.4,10.4-50V39.2C503,27.1,493.2,17.3,481.1,17.3z M477,365H373V261h104V365z M477,249
	H373v-27h104V249z"/>
<path class="st2" d="M371.5,24H216.6c-3.3,0-5.6,2.9-5.6,6.2V33h-23.7c-15.4,0-30.6-4.4-43.6-12.6c-15.3-9.5-32.4-10.4-50-10.4H39.4
	c-12.1,0-21.9,9.8-21.9,21.8c0,4.5,1.4,8.9,4,12.6C11,50.3,7.1,63.6,12.9,74.2c1.1,2.1,2.6,3.9,4.3,5.5c-9,8.5-9.4,22.6-0.9,31.6
	c0.2,0.2,0.5,0.5,0.7,0.7c-8.5,7.8-9.1,21-1.3,29.5c2,2.2,4.5,4,7.3,5.1v-6c0.1-2.5,1.7-4.7,4.1-5.4c-3-1.5-4.9-4.6-4.9-7.9
	c-0.2-4.7,3.5-8.7,8.3-8.9c0.1,0,0.2,0,0.3,0L62,118h0.4c3.2,0.1,5.9-2.4,6-5.6c0-0.1,0-0.1,0-0.2c0-3.3-2.7-5.9-5.9-5.9
	c0,0-0.1,0-0.1,0l-29.8,0c-5.6,0-10.2-4.6-10.2-10.2C22.5,90.6,27,86,32.7,86l0,0h29.8c3.3,0,6-2.7,6-6c0.1-3.2-2.5-5.9-5.7-6
	c0,0-0.1,0-0.1,0H32.2c-5.5,0-10-4.5-10-10s4.5-10,10-10h40.2c3.3,0,6-2.7,6-6s-2.7-6-6-6H39.4c-5.5,0-10-4.5-10-10s4.5-10,10-10
	h54.3c15.8,0,31,0.8,43.7,8.6c15,9.4,32.3,14.3,50,14.4H211v86h-18.3c-17.7,0.3-33.7,10.3-41.7,26.1V176c4.5-3.2,8.1-7.6,10.3-12.7
	c5.8-12.2,17.9-20.1,31.4-20.3H211v3.1c0,3.3,2.2,5.9,5.6,5.9h154.9c3.3,0,5.5-2.6,5.5-5.9V30.2C377,26.9,374.8,24,371.5,24z
	 M249,140h-26V36h26V140z M365,140H261V36h104V140z"/>
</svg>
