<?xml version="1.0" encoding="utf-8"?>
<!-- Generator: Adobe Illustrator 25.4.1, SVG Export Plug-In . SVG Version: 6.00 Build 0)  -->
<svg version="1.1" id="Layer_1" xmlns="http://www.w3.org/2000/svg" xmlns:xlink="http://www.w3.org/1999/xlink" x="0px" y="0px"
	 viewBox="0 0 512 512" style="enable-background:new 0 0 512 512;" xml:space="preserve">
<style type="text/css">
	.st0{fill:#D4E1F4;}
	.st1{fill:#E6332A;}
	.st2{fill:#060D47;}
</style>
<path class="st0" d="M58.1,344.4L84.4,501l27.5-4.6L85.5,339.8L58.1,344.4z"/>
<path class="st1" d="M300,265.2c3.2-6.6,7.1-12.8,11.7-18.6l9.3,0.6c4.7,0.6,9.5,1,14.2,1c21.3,0,40.7-6.8,56.5-20.1
	c25.8-21.6,41.7-59.5,43.6-104.1c0.1-2-0.8-3.9-2.4-5.1c-1.6-1.2-3.7-1.5-5.6-0.8l-71.9,25.4c-22.3,7.9-39.6,28.3-46.4,54.6
	c-3.3,13.6-5.7,27.5-7,41.4c-2.6,3.3-5.1,6.8-7.3,10.4c-8.7-26-9.1-52.9-1.2-80.2l12.1-5.9c64.2-31.6,95.6-101.4,69.9-155.4
	c-1.4-3-5-4.3-8-2.8c-0.3,0.1-0.6,0.3-0.9,0.5l-48.1,33.8c-22.3,15.2-36.9,36.6-42.1,62c-4.2,20.4-2.2,43.4,5.5,64.6l0.1,0.2
	c-9.5,33.2-7.8,66.4,5.2,97.6c-1,2.3-1.9,4.6-2.8,7c-0.1,0.2-0.1,0.4-0.2,0.6c-3.9-17.2-9.4-33.9-16.6-50c0-0.2,0-0.3,0-0.5
	l0.5-16.5c2.1-71.6-44.8-132-104.5-134.6c-3.3-0.1-6.1,2.4-6.3,5.7c0,0.3,0,0.7,0,1l7.3,58.3c2.9,26.8,15,49.7,35,66.2
	c15.4,12.7,35.5,21.5,56.8,25c8.3,18.5,14.3,38,18,57.9c1.5,8.3,2.8,16.3,3.8,24.2c0.2,3.6,0.5,7.2,1.2,10.7
	c0.5,5.1,0.8,10.2,1.1,15.1l12-0.5c-0.2-5-0.6-10.2-1.1-15.4c0-0.1,0-0.3,0-0.4c-0.3-3.4-0.7-6.9-1.1-10.4
	c-0.2-11,1.6-21.9,5.5-32.2C295.7,275.3,298.4,267.4,300,265.2L300,265.2z M207.6,148.6l27.1,39c5.6,8.1,10.7,16.6,15.3,25.3
	c-48.7-11.2-69.9-47.3-73.3-79.1l-6.4-51c48.4,6.5,85.7,56.6,86,116.5c-3.6-6.4-7.5-12.6-11.7-18.5l-27.1-39
	c-1.9-2.7-5.6-3.4-8.4-1.5C206.4,142.2,205.7,145.9,207.6,148.6L207.6,148.6z M325.3,49.8l42.1-29.6
	c17.4,47.1-11.4,105.4-67.2,132.9l-1.1,0.6c1.7-4.2,3.7-8.5,5.8-12.8c9.6-19.2,22.2-36.7,37.2-52c2.4-2.3,2.5-6.1,0.3-8.5
	c-2.3-2.4-6.1-2.5-8.5-0.3c-0.9,0.9-22.8,21.6-39.6,55c-2,4.1-3.9,8.1-5.6,12.2C278.1,101.2,299.6,67.2,325.3,49.8L325.3,49.8z
	 M384,218.9c-16.9,14.1-37.7,19.7-61.6,16.4h0l53.1-48.6c2.4-2.2,2.6-6,0.4-8.5c-2.2-2.4-6-2.6-8.5-0.4l-51.5,47.1
	c1.2-8,2.7-16,4.7-23.8c5.7-22.5,20.2-39.8,38.8-46.3l63.4-22.3C419.4,169.7,405.5,200.9,384,218.9L384,218.9z"/>
<g>
	<path class="st2" d="M459.1,334.9c-9.6-16.1-30.2-21.7-46.7-12.8l-1.7,0.9c-8.9-10.4-23.9-14.4-35.4-8.5l-0.1,0.1l-4.7,2.5
		c-12.5-10.4-30.2-11.9-44.3-3.8l-27,14.7h-36c-7.7,0-15.4-1.8-22.4-5.1l-5-2.4c-29.1-14.2-63.7-10.8-89.5,8.7
		c-0.1,0.1-0.3,0.2-0.4,0.3l-12,10.7c-1,0.9-2.1,1.7-3.2,2.5l-1.7-10.3c-0.5-3.3-3.6-5.5-6.9-4.9c0,0,0,0,0,0l-64.9,10.9
		c-3.3,0.5-5.5,3.6-4.9,6.9v0L78.4,502c0.5,2.9,3,5,5.9,5c0.3,0,0.7,0,1-0.1l64.9-10.9c3.3-0.5,5.5-3.6,4.9-6.9c0,0,0,0,0,0l-6.7-40
		l36.1-22.8c4.6-2.6,10.1-3.3,15.2-2c0.1,0,0.2,0.1,0.4,0.1l72.5,13.4c19.8,3.5,40.3,0.7,58.4-8.2c0.3-0.1,0.5-0.3,0.7-0.4
		l125.5-86.1C459.9,341.1,460.7,337.6,459.1,334.9L459.1,334.9z M380.7,325.1c6.1-3.1,13.8-0.7,18.9,3.8l-49,26.4
		c-1.4-3.9-3.4-7.5-6-10.8L380.7,325.1z M331.9,323.8l0.1-0.1c8.2-4.7,18.2-4.8,26.5-0.3l-22.9,12.4c-4.2-3-8.9-5.2-13.8-6.5
		L331.9,323.8z M89.3,494.1L65,349.3l53.1-8.9l24.3,144.8L89.3,494.1z M325.4,418.9c-15.7,7.6-33.4,10.1-50.5,7l-72.3-13.3
		c-8.1-2-16.7-0.8-23.9,3.2c-0.1,0.1-0.2,0.1-0.3,0.2l-32,20.2l-13.5-80.6c3.2-1.8,6.2-4,9-6.4l11.8-10.5
		c22.2-16.7,51.9-19.5,76.8-7.4l5,2.4c8.6,4.1,18,6.3,27.6,6.3h48.3c14.1,0,26.2,9.8,29.2,23.6l-34.2-1.5c-12.8-0.6-25.5,0-38.2,1.8
		c-3.3,0.5-5.6,3.5-5.1,6.8s3.5,5.6,6.8,5.1c11.9-1.6,24-2.2,36-1.7l41.2,1.9c0.1,0,0.2,0,0.3,0c3.3,0,6-2.7,6-6
		c0-0.8,0-1.5-0.1-2.3l64.9-35c9-4.8,20-3.2,27.2,4L325.4,418.9z"/>
	<path class="st2" d="M109.3,450.8c-9.6,1.6-16.1,10.7-14.5,20.3c1.6,9.6,10.7,16.1,20.3,14.5s16.1-10.7,14.5-20.3
		c-0.8-4.6-3.3-8.7-7.2-11.4C118.7,451.1,113.9,450,109.3,450.8z M117.8,467.2c0.5,3.1-1.6,5.9-4.6,6.5s-5.9-1.6-6.5-4.6
		s1.6-5.9,4.6-6.5c0.3,0,0.6-0.1,0.9-0.1C115,462.5,117.3,464.5,117.8,467.2z"/>
	<path class="st2" d="M83.8,372.4c3.3-0.6,5.4-3.8,4.8-7l-0.9-4.6c-0.6-3.3-3.6-5.5-6.9-4.9s-5.5,3.6-4.9,6.9c0,0.1,0,0.2,0,0.2
		l0.9,4.6C77.4,370.9,80.5,373,83.8,372.4z"/>
	<path class="st2" d="M97.6,444.9c3.3-0.6,5.4-3.8,4.8-7l-9.6-50.4c-0.6-3.3-3.7-5.4-7-4.8s-5.4,3.7-4.8,7c0,0,0,0.1,0,0.1l9.6,50.4
		C91.2,443.4,94.4,445.5,97.6,444.9C97.6,444.9,97.6,444.9,97.6,444.9L97.6,444.9z"/>
</g>
</svg>
