<?xml version="1.0" encoding="utf-8"?>
<!-- Generator: Adobe Illustrator 25.4.1, SVG Export Plug-In . SVG Version: 6.00 Build 0)  -->
<svg version="1.1" id="Layer_1" xmlns="http://www.w3.org/2000/svg" xmlns:xlink="http://www.w3.org/1999/xlink" x="0px" y="0px"
	 viewBox="0 0 512 512" style="enable-background:new 0 0 512 512;" xml:space="preserve">
<style type="text/css">
	.st0{fill:#D4E1F4;}
	.st1{fill:#E6332A;}
	.st2{fill:#060D47;}
</style>
<rect x="258" y="32" class="st0" width="30" height="117"/>
<path class="st1" d="M409,383.7v-21.8c0-11.6-9.4-20.9-20.9-20.9c-0.1,0-0.2,0-0.2,0H251v-25.2c0-3.3-2.7-6-6-6s-6,2.7-6,6V341
	H102.2c-11.6-0.2-21.1,9.1-21.2,20.7c0,0.1,0,0.1,0,0.2v21.8c-14.4,1.4-27.8,7.7-38,18C18.9,425.9,19,465,43.2,489
	c11.6,11.5,27.2,18,43.6,18H87c34.1-0.1,61.7-27.9,61.6-62c-0.1-31.6-24.1-58-55.6-61.2v-21.8c0-4.9,4.1-8.9,9-8.9
	c0.1,0,0.2,0,0.2,0H239v30.7c-31,2.8-56.3,29.3-56.3,61.5c0,34.1,27.7,61.8,61.8,61.8c34.1,0,61.8-27.7,61.8-61.8
	c0-31.6-23.9-58.1-55.3-61.4V353h136.8c4.9-0.2,9,3.7,9.2,8.6c0,0.1,0,0.2,0,0.3v21.8c-34,3.4-58.7,33.7-55.3,67.7
	s33.7,58.7,67.7,55.3c31.6-3.2,55.6-29.8,55.6-61.5C465,413.1,440,386.6,409,383.7z M110,489.1c-7.1,3.9-15,5.9-23,5.9h-0.2
	c-8.3,0-16.5-2-23.8-5.9v-12.2c0-7.3,6.3-12.9,13.6-12.9H97c7-0.1,12.8,5.5,13,12.5c0,0.1,0,0.3,0,0.4V489.1z M75,433.7v-4.8
	c0-6.4,5.1-11.5,11.5-11.5S98,422.5,98,428.9v4.8c0,6.4-5.1,11.5-11.5,11.5S75,440,75,433.7z M121.8,409.7
	c9.4,9.4,14.6,22.1,14.6,35.4c0,13.2-4.5,25.7-14.5,35.1v-3.2c0-12.3-8.9-22.8-21-24.9c5.6-4.4,9-11.2,9-18.3v-4.8
	c0-13-10.5-23.5-23.5-23.5S63,415.9,63,428.9v4.8c0,7.2,3.3,13.9,9,18.3c-12.1,2.1-21,12.6-21,24.9v3.2c-19-19.6-18.8-50.8,0.4-70.2
	c9.3-9.5,22-14.8,35.2-14.9h0.2C100,395,112.6,400.3,121.8,409.7z M268,489.1c-14.7,7.9-32.3,7.9-47,0v-12.2c0.1-7.2,6-13,13.2-12.9
	c0.1,0,0.1,0,0.2,0h20.4c7.2-0.2,13.1,5.5,13.2,12.7c0,0.1,0,0.1,0,0.2V489.1z M233,433.7v-4.8c0-6.4,5.1-11.5,11.5-11.5
	s11.5,5.1,11.5,11.5v4.8c0,6.4-5.1,11.5-11.5,11.5S233,440,233,433.7z M294.3,445.2c0.1,13.1-5.1,25.6-14.3,34.9v-3.2
	c0-12.3-8.9-22.8-21-24.9c5.6-4.4,9-11.2,9-18.3v-4.8c0-13-10.5-23.5-23.5-23.5S221,415.9,221,428.9v4.8c0,7.2,3.3,13.9,9,18.3
	c-12.1,2.1-21,12.6-21,24.9v3.2c-9.2-9.3-14.4-21.8-14.3-34.9c0-27.5,22.3-49.8,49.8-49.8C272,395.4,294.3,417.7,294.3,445.2
	L294.3,445.2z M427,489.1c-14.7,7.9-32.3,7.9-47,0v-12.2c-0.1-7.1,5.6-12.8,12.7-12.9c0.1,0,0.2,0,0.4,0h20.4
	c7.3,0,13.5,5.6,13.5,12.9L427,489.1z M392,433.7v-4.8c0-6.4,5.1-11.5,11.5-11.5s11.5,5.1,11.5,11.5v4.8c0,6.4-5.1,11.5-11.5,11.5
	S392,440,392,433.7z M439,480.1v-3.2c0-12.3-8.9-22.8-21-24.9c5.6-4.4,9-11.2,9-18.3v-4.8c0-13-10.5-23.5-23.5-23.5
	S380,415.9,380,428.9v4.8c0,7.2,3.3,13.9,9,18.3c-12.1,2.1-21,12.6-21,24.9v3.2c-9.3-9.2-14.5-21.8-14.4-34.9
	c0.1-27.5,22.5-49.7,50-49.6c27.3,0.1,49.5,22.3,49.6,49.6C453.3,458.3,448.2,470.8,439,480.1z"/>
<path class="st2" d="M449.3,128.8L486,72.1c1.2-1.8,1.3-4.1,0.2-6c-1.1-1.9-3.1-3.1-5.3-3.1H358V50.1c0.1-13.2-10.5-24-23.6-24.1
	c0,0-0.1,0-0.1,0H264v-1.6c0-10.8-8.7-19.5-19.5-19.5S225,13.6,225,24.4V276h-10.9c-18.9-0.1-34.3,15.2-34.3,34.1c0,0,0,0,0,0
	c0,3.2,2.7,5.9,5.9,5.8c0,0,0.1,0,0.1,0h118c3.2,0.1,5.9-2.5,6-5.7c0,0,0-0.1,0-0.1c0-18.9-15.4-34.2-34.3-34.2c0,0,0,0,0,0H264V155
	h82v13.1c0,13.3,11.1,23.9,24.4,23.9H481c3.3,0.1,5.9-2.5,6-5.8c0-1.2-0.3-2.4-1-3.4L449.3,128.8z M237,24.4c0-4.1,3.4-7.5,7.5-7.5
	s7.5,3.4,7.5,7.5V276h-15V24.4z M275.5,288c9.9,0,18.6,6.5,21.5,16H192.6c2.9-9.5,11.6-16,21.5-16H275.5z M346,143h-82V38h70.2
	c6.5,0,11.8,5.4,11.8,11.9c0,0.1,0,0.1,0,0.2V143z M370.4,180c-6.7,0-12.4-5.2-12.4-11.9V75h112l-32.9,50.8c-1.3,2-1.3,4.6,0.1,6.5
	l32.5,47.7H370.4z"/>
<path class="st2" d="M283,47.5c-3.3,0-6,2.7-6,6v4.6c0,3.3,2.7,6,6,6s6-2.7,6-6v-4.6C289,50.2,286.3,47.5,283,47.5z"/>
<path class="st2" d="M283,69c-3.3,0-6,2.7-6,6v46.2c0,3.3,2.7,6,6,6s6-2.7,6-6l0,0V75C289,71.7,286.3,69,283,69z"/>
</svg>
