<?xml version="1.0" encoding="iso-8859-1"?>
<!-- Generator: Adobe Illustrator 19.0.0, SVG Export Plug-In . SVG Version: 6.00 Build 0)  -->
<svg version="1.1" id="Capa_1" xmlns="http://www.w3.org/2000/svg" xmlns:xlink="http://www.w3.org/1999/xlink" x="0px" y="0px"
	 viewBox="0 0 480.046 480.046" style="enable-background:new 0 0 480.046 480.046;" xml:space="preserve">
<g>
	<g>
		<g>
			<path d="M451.552,252.023h-0.8l-15.488-54.552c-2.952-10.295-12.346-17.404-23.056-17.448H368v-72c0-4.418-3.582-8-8-8
				s-8,3.582-8,8v13.112c-4.843-2.879-10.366-4.415-16-4.448h-16c-5.634,0.033-11.157,1.569-16,4.448v-13.112c0-4.418-3.582-8-8-8
				s-8,3.582-8,8v13.112c-4.843-2.879-10.366-4.415-16-4.448h-16c-5.634,0.033-11.157,1.569-16,4.448v-13.112c0-4.418-3.582-8-8-8
				s-8,3.582-8,8v12.736c-4.937-2.601-10.42-3.996-16-4.072h-16c-5.634,0.033-11.157,1.569-16,4.448v-13.112c0-4.418-3.582-8-8-8
				s-8,3.582-8,8v13.112c-4.843-2.879-10.366-4.415-16-4.448h-16c-5.634,0.033-11.157,1.569-16,4.448v-13.112c0-4.418-3.582-8-8-8
				s-8,3.582-8,8v66.456l-43.552,16.328c-11.532,4.352-21.318,12.367-27.856,22.816L1.208,251.135
				c-0.79,1.27-1.209,2.736-1.208,4.232v84.656c0,4.418,3.582,8,8,8h16c0,17.673,14.327,32,32,32s32-14.327,32-32h16
				c0,17.673,14.327,32,32,32s32-14.327,32-32h216c0,17.673,14.327,32,32,32c17.673,0,32-14.327,32-32h24c4.418,0,8-3.582,8-8v-56
				C480.911,267.355,468.212,253.07,451.552,252.023z M56,364.023c-8.837,0-16-7.163-16-16h32C72,356.86,64.837,364.023,56,364.023z
				 M96,225.095l-35.888,19.936c-3.862,2.147-5.251,7.018-3.104,10.88s7.018,5.251,10.88,3.104L96,243.399v88.624H16v-74.4
				l22.168-35.568c4.669-7.467,11.663-13.192,19.904-16.296L96,191.567V225.095z M240,148.687c0-8.837,7.163-16,16-16h16
				c8.837,0,16,7.163,16,16v40.424c-9.899-17.877-27.728-29.962-48-32.536V148.687z M232,172.023c26.51,0,48,21.49,48,48
				c0,26.51-21.49,48-48,48c-26.51,0-48-21.49-48-48C184.026,193.524,205.501,172.049,232,172.023z M288,250.935v49.088h-48v-16.552
				C260.272,280.897,278.101,268.812,288,250.935z M176,148.687c0-8.837,7.163-16,16-16h16c6.393,0.146,12.334,3.328,16,8.568v15.32
				c-20.272,2.574-38.101,14.659-48,32.536V148.687z M176,250.935c9.899,17.877,27.728,29.962,48,32.536v16.552h-48V250.935z
				 M112,234.511l27.888-15.496c3.862-2.147,5.251-7.018,3.104-10.88s-7.018-5.251-10.88-3.104L112,216.207v-67.52
				c0-8.837,7.163-16,16-16h16c8.837,0,16,7.163,16,16v151.336h-48V234.511z M136,364.023c-8.837,0-16-7.163-16-16h32
				C152,356.86,144.837,364.023,136,364.023z M352,332.023H112v-16h240V332.023z M352,188.023v112h-48V148.687
				c0-8.837,7.163-16,16-16h16c8.837,0,16,7.163,16,16V188.023z M400,196.023h12.208c3.579,0.001,6.722,2.38,7.696,5.824
				l14.248,50.176H400V196.023z M416,364.023c-8.837,0-16-7.163-16-16h32C432,356.86,424.837,364.023,416,364.023z M464,332.023h-96
				v-16h96V332.023z M464,284.023v16h-96v-104h16v64c0,4.418,3.582,8,8,8h59.552C459.338,269.125,464.846,276.205,464,284.023z"/>
			<path d="M203.882,242.881c1.244,0.747,2.667,1.142,4.118,1.142h48c4.418-0.001,7.999-3.583,7.998-8.002
				c0-1.451-0.395-2.875-1.142-4.118l-24-40c-2.603-3.786-7.783-4.746-11.57-2.142c-0.839,0.577-1.565,1.303-2.142,2.142l-24,40
				C198.869,235.69,200.094,240.605,203.882,242.881z M232,211.567l9.872,16.456h-19.744L232,211.567z"/>
		</g>
	</g>
</g>
<g>
</g>
<g>
</g>
<g>
</g>
<g>
</g>
<g>
</g>
<g>
</g>
<g>
</g>
<g>
</g>
<g>
</g>
<g>
</g>
<g>
</g>
<g>
</g>
<g>
</g>
<g>
</g>
<g>
</g>
</svg>
