<?xml version="1.0" encoding="utf-8"?>
<!-- Generator: Adobe Illustrator 25.4.1, SVG Export Plug-In . SVG Version: 6.00 Build 0)  -->
<svg version="1.1" id="Capa_1" xmlns="http://www.w3.org/2000/svg" xmlns:xlink="http://www.w3.org/1999/xlink" x="0px" y="0px"
	 viewBox="0 0 34.9 34.9" style="enable-background:new 0 0 34.9 34.9;" xml:space="preserve">
<style type="text/css">
	.st0{stroke:#000000;stroke-width:2;stroke-miterlimit:10;}
</style>
<g id="Grupo_674" transform="translate(-509.95 -1094.169)">
	<path id="Trazado_9" class="st0" d="M543.8,1111.6c0,9.1-7.3,16.4-16.4,16.4c-9.1,0-16.4-7.3-16.4-16.4c0-9.1,7.3-16.4,16.4-16.4
		c0,0,0,0,0,0C536.5,1095.2,543.8,1102.6,543.8,1111.6z M527.4,1097.4c-7.9,0-14.2,6.4-14.2,14.2c0,7.9,6.4,14.2,14.2,14.2
		c7.9,0,14.2-6.4,14.2-14.2c0,0,0,0,0,0C541.6,1103.8,535.2,1097.4,527.4,1097.4z"/>
	<path id="Trazado_10" class="st0" d="M525.3,1114.9c2.6-2.8,5.2-5.5,7.7-8.3c0.1-0.2,0.3-0.3,0.4-0.5c0.3-0.3,0.8-0.3,1.2,0
		c0.4,0.3,0.4,0.8,0.2,1.2c-0.1,0.1-0.2,0.2-0.3,0.3c-2.8,3-5.5,5.9-8.3,8.9c-0.7,0.8-1.1,0.8-1.9,0c-1.3-1.4-2.6-2.7-3.9-4.1
		c-0.5-0.6-0.6-1.1-0.1-1.5c0.4-0.4,1-0.3,1.5,0.3C523,1112.5,524.1,1113.7,525.3,1114.9z"/>
</g>
</svg>
