<svg height="511pt" viewBox="-55 0 511 511.99974" width="511pt" xmlns="http://www.w3.org/2000/svg"><path d="m154.011719 162.335938c-4.710938 0-8.527344 3.816406-8.527344 8.527343v8.527344c0 4.710937 3.816406 8.53125 8.527344 8.53125 4.710937 0 8.527343-3.820313 8.527343-8.53125v-8.527344c0-4.710937-3.816406-8.527343-8.527343-8.527343zm0 0"/><path d="m239.296875 187.921875c4.710937 0 8.527344-3.820313 8.527344-8.53125v-8.527344c0-4.710937-3.816407-8.527343-8.527344-8.527343s-8.527344 3.816406-8.527344 8.527343v8.527344c0 4.710937 3.816407 8.53125 8.527344 8.53125zm0 0"/><path d="m196.65625 204.976562h8.527344c4.710937 0 8.527344-3.816406 8.527344-8.527343 0-4.710938-3.816407-8.527344-8.527344-8.527344v-8.53125c0-4.707031-3.820313-8.527344-8.527344-8.527344-4.710938 0-8.53125 3.820313-8.53125 8.527344v17.058594c0 4.710937 3.820312 8.527343 8.53125 8.527343zm0 0"/><path d="m217.515625 238.160156c4.230469-2.070312 5.976563-7.179687 3.90625-11.410156-2.074219-4.230469-7.183594-5.976562-11.414063-3.90625-.039062.019531-.078124.039062-.117187.058594-8.34375 4.140625-18.140625 4.140625-26.480469 0-4.167968-2.195313-9.324218-.601563-11.523437 3.566406-2.199219 4.164062-.601563 9.324219 3.5625 11.519531.113281.0625.226562.117188.34375.171875 13.144531 6.527344 28.582031 6.527344 41.722656 0zm0 0"/><path d="m392.808594 392.601562c-.046875-42.371093-34.386719-76.707031-76.757813-76.753906h-76.753906v-35.972656c13.609375-6.988281 25.316406-17.179688 34.113281-29.695312v10.957031l-23.085937 23.085937c-3.390625 3.273438-3.480469 8.671875-.210938 12.058594 3.273438 3.390625 8.671875 3.484375 12.058594.210938.074219-.070313.140625-.140626.210937-.210938l25.585938-25.585938c1.597656-1.59375 2.496094-3.761718 2.496094-6.019531v-42.640625h12.792968c4.4375-.027344 8.808594-1.050781 12.792969-2.996094v20.050782c.027344 23.539062 19.105469 42.613281 42.644531 42.644531h34.113282c4.707031 0 8.527344-3.816406 8.527344-8.527344 0-1.6875-.496094-3.335937-1.433594-4.734375l-11.359375-16.988281c-2.796875-4.203125-4.28125-9.144531-4.265625-14.191406v-117.601563c0-18.839844-15.273438-34.113281-34.113282-34.113281h-35.214843c-.6875-12.949219-4.855469-25.472656-12.066407-36.253906-9.976562-16.3125-27.425781-26.589844-46.53125-27.402344h-3.726562c-7.871094-11.1875-32.714844-34.964844-92.542969-12.792969-15.179687 5.914063-29.574219 13.675782-42.855469 23.113282l-3.222656 2.054687c-16.953125 10.738281-36.75 32.65625-36.75 59.214844v63.261719c-14.882812 7-21.273437 24.742187-14.273437 39.625 4.925781 10.480468 15.484375 17.152343 27.066406 17.105468h14.421875c5.351562 28.601563 23.644531 53.109375 49.542969 66.371094v35.972656h-76.757813c-42.371094.046875-76.707031 34.382813-76.753906 76.753906v119.398438h392.304688v-119.398438zm-142.742188-51.433593 5.398438 38.972656-30.871094 22.175781zm-19.296875-8.265625h4.261719l-35.5625 85.285156h-5.636719l-35.554687-85.285156h4.261718c4.710938 0 8.53125-3.816406 8.53125-8.527344v-37.78125c16.710938 4.855469 34.457032 4.855469 51.167969 0v37.78125c0 4.710938 3.820313 8.527344 8.53125 8.527344zm119.394531-230.265625c9.421876 0 17.058594 7.636719 17.058594 17.054687v117.601563c-.011718 8.417969 2.480469 16.648437 7.164063 23.648437l2.488281 3.734375h-18.179688c-14.132812 0-25.585937-11.457031-25.585937-25.585937v-109.070313c.011719-8.421875-2.484375-16.65625-7.164063-23.65625-.496093-.738281-1.101562-1.398437-1.800781-1.953125l-2.242187-1.773437zm-37.523437 14.8125c2.210937 3.824219 3.386719 8.15625 3.410156 12.570312v26.753907c-2.398437-1.164063-4.945312-1.992188-7.570312-2.464844zm-9.382813 53.414062c7.066407 0 12.792969 5.726563 12.792969 12.792969v8.527344c0 7.066406-5.726562 12.792968-12.792969 12.792968h-12.792968v-34.113281zm-200.414062 25.585938h-12.792969c-7.066406 0-12.792969-5.726563-12.792969-12.792969s5.726563-12.792969 12.792969-12.792969h12.792969zm-8.53125-42.640625v-60.296875c0-18.355469 14.5-35.710938 28.800781-44.757813l3.300781-2.097656c11.894532-8.238281 24.585938-15.257812 37.882813-20.953125.421875-.09375.839844-.214844 1.246094-.359375 59.109375-22.175781 73.925781 7.386719 74.480469 8.527344 1.351562 3.105468 4.414062 5.113281 7.800781 5.117187h8.53125c13.449219.882813 25.597656 8.355469 32.449219 19.964844 7.988281 12.335937 11.058593 27.222656 8.605468 41.714844l-6.03125 53.140625h-3.667968l-31.964844-79.921875c-1.746094-4.375-6.707032-6.503907-11.082032-4.757813-1.074218.429688-2.050781 1.074219-2.867187 1.890625l-27.753906 27.753907c-14.621094 14.652343-32.078125 26.164062-51.304688 33.832031l-53.003906 21.203125zm25.585938 42.640625v-28.375l49.175781-19.667969c21.367187-8.523438 40.773437-21.316406 57.027343-37.601562l18.609376-18.609376 28.699218 71.75v32.503907c0 42.390625-34.363281 76.753906-76.753906 76.753906s-76.757812-34.363281-76.757812-76.753906zm23.292968 144.625 25.582032 61.335937-31.171876-22.257812zm-125.632812 153.867187v-34.113281h42.640625v4.957031c-.007813 10.242188 2.703125 20.304688 7.855469 29.15625zm71.757812 0c-7.746094-7.71875-12.089844-18.21875-12.058594-29.15625v-7.285156c0-2.75.644532-5.46875 1.875-7.929688l12.621094-25.253906c1.679688-3.363281 2.554688-7.070312 2.558594-10.832031v-13.355469c0-4.707031-3.816406-8.527344-8.527344-8.527344-4.710937 0-8.527344 3.820313-8.527344 8.527344v13.355469c0 1.113281-.261718 2.207031-.761718 3.199219l-12.621094 25.234375c-.136719.265625-.179688.574219-.304688.855469h-46.011718v-51.171876c.035156-32.953124 26.742187-59.660156 59.699218-59.699218h49.863282l-7.136719 49.960937c-.453125 3.15625.890625 6.300781 3.488281 8.152344l58.964844 42.105469-16.484375 12.355468c-2.933594 2.207032-4.128906 6.039063-2.96875 9.519532l13.3125 39.945312zm286.433594 0h-50.496094c5.152344-8.851562 7.863282-18.914062 7.855469-29.15625v-4.957031h42.640625zm0-51.167968h-46.050781c-.121094-.265626-.164063-.5625-.300781-.855469l-12.621094-25.269531c-.484375-.980469-.734375-2.066407-.726563-3.164063v-13.355469c0-4.707031-3.816406-8.527344-8.527343-8.527344-4.710938 0-8.527344 3.820313-8.527344 8.527344v13.355469c.003906 3.757813.878906 7.464844 2.558594 10.824219l12.621093 25.285156c1.230469 2.460938 1.875 5.171875 1.875 7.925781v7.28125c.027344 10.933594-4.3125 21.425781-12.058593 29.140625h-109.726563l-13.160156-39.5 29.042969-21.792968 59.433593-42.640626c2.566407-1.847656 3.902344-4.960937 3.46875-8.09375l-6.90625-50.011718h49.90625c32.957031.039062 59.664063 26.746094 59.699219 59.699218zm0 0"/><path d="m205.183594 452.300781h17.054687v17.058594h-17.054687zm0 0"/></svg>