<svg height="511pt" viewBox="-16 1 511 511.999" width="511pt" xmlns="http://www.w3.org/2000/svg"><path d="m192.703125 296.625c0 64.363281 52.339844 116.726562 116.675781 116.726562 64.316406 0 116.644532-52.363281 116.644532-116.726562 0-64.378906-52.328126-116.753906-116.644532-116.753906-64.335937 0-116.675781 52.375-116.675781 116.753906zm218.066406 0c0 55.945312-45.484375 101.460938-101.390625 101.460938-55.925781 0-101.421875-45.515626-101.421875-101.460938 0-55.960938 45.496094-101.488281 101.421875-101.488281 55.90625 0 101.390625 45.527343 101.390625 101.488281zm0 0"/><path d="m285.75 234.425781v-8.980469c0-4.214843-3.414062-7.632812-7.628906-7.632812-4.210938 0-7.625 3.417969-7.625 7.632812v13.820313c0 2.953125 1.703125 5.640625 4.371094 6.902344l10.101562 4.769531c-9.894531 10.671875-16.210938 27.796875-16.257812 47.460938h-2.800782v-6.1875c0-4.214844-3.414062-7.632813-7.625-7.632813-4.210937 0-7.628906 3.417969-7.628906 7.632813v13.820312c0 4.214844 3.417969 7.632812 7.628906 7.632812h11.695313c.597656 3.4375 1.40625 6.742188 2.386719 9.894532h-10.015626c-4.214843 0-7.628906 3.417968-7.628906 7.632812v13.820313c0 4.214843 3.414063 7.632812 7.628906 7.632812 4.210938 0 7.625-3.417969 7.625-7.632812v-6.1875h9.292969c7.40625 11.800781 18.121094 19.101562 30.222657 19.101562h.015624c.011719 0 .023438-.003906.035157-.003906 12.09375-.019531 22.796875-7.316406 30.199219-19.097656h9.265624v6.1875c0 4.214843 3.417969 7.632812 7.628907 7.632812 4.210937 0 7.625-3.417969 7.625-7.632812v-13.820313c0-4.214844-3.414063-7.632812-7.625-7.632812h-9.992188c.984375-3.15625 1.789063-6.457032 2.390625-9.894532h11.667969c4.210937 0 7.625-3.417968 7.625-7.632812v-13.820312c0-4.214844-3.414063-7.632813-7.625-7.632813s-7.628906 3.417969-7.628906 7.632813v6.1875h-2.769531c-.046876-19.660157-6.363282-36.785157-16.265626-47.457032l10.109376-4.773437c2.667968-1.261719 4.371093-3.949219 4.371093-6.902344v-13.820313c0-4.214843-3.414062-7.632812-7.625-7.632812-4.214843 0-7.628906 3.417969-7.628906 7.632812v8.980469l-13.945313 6.585938c-3.140624-1.085938-6.425781-1.675781-9.824218-1.675781-3.394532 0-6.671875.585937-9.804688 1.671874zm4.976562 93.703125c-.109374-.253906-.238281-.5-.375-.738281-3.953124-7.78125-6.390624-17.890625-6.390624-28.777344 0-4.074219.347656-8.035156.984374-11.8125h16.792969l.109375 53.75c-4.285156-2.40625-8.113281-6.757812-11.121094-12.421875zm43.34375-41.328125c.632813 3.777344.980469 7.738281.980469 11.816407 0 2.230468-.101562 4.429687-.296875 6.578124-.003906.039063-.007812.074219-.011718.113282-.761719 8.214844-2.90625 15.75-5.984376 21.875-.21875.355468-.414062.722656-.574218 1.113281-3.003906 5.601563-6.820313 9.902344-11.085938 12.28125l-.105468-53.777344zm-30.75-30.835937c1.984376-.886719 4.054688-1.363282 6.171876-1.363282 2.15625 0 4.261718.488282 6.277343 1.402344.253907.144532.507813.277344.777344.386719 5.125 2.636719 9.636719 8.035156 12.921875 15.144531h-39.929688c3.269532-7.085937 7.753907-12.472656 12.851563-15.113281.320313-.132813.628906-.285156.929687-.457031zm0 0"/><path d="m459.886719 86.964844h-62.667969v-23.933594c0-7.484375-6.097656-13.578125-13.59375-13.578125h-34.90625v-9.347656h1.402344c9.511718 0 17.253906-7.746094 17.253906-17.265625v-5.570313c0-9.523437-7.742188-17.269531-17.253906-17.269531h-79.984375c-9.515625 0-17.257813 7.746094-17.257813 17.269531v5.570313c0 9.519531 7.742188 17.265625 17.257813 17.265625h1.398437v9.347656h-34.902344c-7.480468 0-13.566406 6.09375-13.566406 13.578125v23.933594h-16.234375v-14.570313c5.09375-3.136719 8.507813-8.75 8.507813-15.164062v-21.0625c0-9.824219-7.988282-17.816407-17.804688-17.816407h-18.6875c-9.816406 0-17.804687 7.992188-17.804687 17.816407v21.0625c0 6.410156 3.414062 12.027343 8.507812 15.164062v14.570313h-14.980469c-10.261718 0-18.613281 8.355468-18.613281 18.625v278.90625h-19.359375c-9.753906 0-17.6875 7.941406-17.6875 17.703125v14.785156h-10.828125c-1.335937 0-2.464843-1.117187-2.464843-2.4375v-185.113281c6.121093-2.417969 10.46875-8.382813 10.46875-15.355469v-55.628906c0-6.972657-4.347657-12.9375-10.46875-15.359375v-39.144532c0-25.382812-20.414063-40.554687-40.152344-40.554687h-20.15625c-13.679688 0-24.808594 11.136719-24.808594 24.828125s11.128906 24.828125 24.808594 24.828125h8.59375c1.132812 0 2.089844.972656 2.089844 2.121094v27.511719c-6.707032 2.097656-11.589844 8.371093-11.589844 15.769531v55.628906c0 6.960937 4.332031 12.917969 10.4375 15.347656v196.722657c0 26.070312 20.96875 41.648437 41.246094 41.648437h22.820312v4.773437c0 9.761719 7.9375 17.703126 17.691406 17.703126h19.359375v3.128906c0 10.253906 8.351563 18.597656 18.613281 18.597656h305.316407c10.261719 0 18.613281-8.34375 18.613281-18.597656v-186.9375c0-4.214844-3.414062-7.632813-7.628906-7.632813-4.210938 0-7.625 3.417969-7.625 7.632813v123.734375h-312.035156v-263.515625h312.035156v104.523437c0 4.214844 3.414062 7.632813 7.628906 7.632813 4.210938 0 7.625-3.417969 7.625-7.632813v-165.617187c0-10.269532-8.351562-18.625-18.613281-18.625zm-418.976563 128.367187c-.691406 0-1.253906-.5625-1.253906-1.253906v-55.628906c0-.679688.574219-1.253907 1.253906-1.253907h38.664063c.660156 0 1.253906.59375 1.253906 1.253907v55.628906c0 .679687-.574219 1.253906-1.253906 1.253906zm-7.007812-117.546875h-8.589844c-5.273438 0-9.558594-4.292968-9.558594-9.566406s4.285156-9.5625 9.558594-9.5625h20.152344c12.070312 0 24.898437 8.863281 24.898437 25.289062v37.984376h-19.117187v-26.761719c0-9.585938-7.78125-17.382813-17.34375-17.382813zm42.183594 354.746094c-12.597657 0-25.992188-9.246094-25.992188-26.382812v-195.554688h20.269531v183.953125c0 9.761719 7.949219 17.703125 17.71875 17.703125h10.824219v20.28125zm40.511718 22.480469c-1.320312 0-2.4375-1.117188-2.4375-2.441407v-70.371093c0-1.320313 1.117188-2.4375 2.4375-2.4375h19.359375v75.25zm343.289063 21.722656h-305.316407c-1.820312 0-3.359374-1.523437-3.359374-3.332031v-24.855469h312.035156v24.855469c0 1.808594-1.539063 3.332031-3.359375 3.332031zm3.359375-51.269531v7.820312h-312.035156v-7.820312zm-193.113282-420.621094c-1.085937 0-2.003906-.917969-2.003906-2.003906v-5.570313c0-1.085937.917969-2.003906 2.003906-2.003906h79.984376c1.085937 0 2.003906.917969 2.003906 2.003906v5.570313c0 1.085937-.917969 2.003906-2.003906 2.003906zm63.332032 15.261719v9.347656h-46.679688v-9.347656zm-157.167969-3.9375c0-1.40625 1.144531-2.554688 2.550781-2.554688h18.6875c1.382813 0 2.550782 1.171875 2.550782 2.554688v21.0625c0 1.382812-1.167969 2.554687-2.550782 2.554687h-18.6875c-1.40625 0-2.550781-1.144531-2.550781-2.554687zm15.28125 38.878906v11.917969h-6.773437v-11.917969zm271.667969 76.375h-312.035156v-7.820313h312.035156zm0-23.082031h-312.035156v-22.75c0-1.824219 1.539062-3.363282 3.359374-3.363282h137.046876c4.210937 0 7.625-3.417968 7.625-7.632812s-3.414063-7.628906-7.625-7.628906h-53.300782v-22.246094h143.648438v22.246094h-55.113282c-4.214843 0-7.628906 3.414062-7.628906 7.628906s3.414063 7.632812 7.628906 7.632812h133.035157c1.851562 0 3.359375 1.507813 3.359375 3.363282zm0 0"/></svg>