<svg id="Capa_1" enable-background="new 0 0 512 512" height="512" viewBox="0 0 512 512" width="512" xmlns="http://www.w3.org/2000/svg"><g><path d="m232.213 316 19.393-19.393c5.858-5.858 5.858-15.355 0-21.213-5.857-5.858-15.355-5.858-21.213 0l-19.393 19.393-19.394-19.394c-5.857-5.858-15.355-5.858-21.213 0s-5.858 15.355 0 21.213l19.394 19.394-19.393 19.393c-5.858 5.858-5.858 15.355 0 21.213 5.857 5.857 15.355 5.858 21.213 0l19.393-19.393 19.394 19.394c5.857 5.857 15.355 5.858 21.213 0s5.858-15.355 0-21.213z"/><path d="m76 450.463v46.537c0 8.284 6.716 15 15 15h240c8.284 0 15-6.716 15-15v-45h15c41.458 0 75-34.534 75-76v-106h15c8.284 0 15-6.716 15-15v-23.787l4.394 4.394c5.858 5.858 15.355 5.858 21.213 0s5.858-15.355 0-21.213l-19.394-19.394 19.393-19.393c2.813-2.813 4.394-6.629 4.394-10.607v-60c0-8.284-6.716-15-15-15h-45v-45c0-8.271 6.729-15 15-15 8.284 0 15-6.716 15-15s-6.716-15-15-15c-24.813 0-45 20.187-45 45v45h-15c-8.284 0-15 6.716-15 15v150c0 8.284 6.716 15 15 15h15v106c0 24.935-20.607 46-45 46h-15v-257c0-19.555-12.541-36.228-30-42.42v-17.58c0-24.813-20.187-45-45-45h-45v-30h15c8.284 0 15-6.716 15-15s-6.716-15-15-15h-60c-8.284 0-15 6.716-15 15s6.716 15 15 15h15v30h-45c-24.813 0-45 20.187-45 45v17.58c-17.459 6.192-30 22.865-30 42.42v16.509c-34.192 6.969-60 37.272-60 73.491v121c0 36.93 26.392 67.498 60 74.463zm330-330.463h60v38.787l-25.606 25.607c-2.835 2.835-4.372 6.695-4.39 10.538 0 .023-.003.046-.003.069v45h-30v-120.001zm-300 302v-212h210v212zm0 60v-30h210v30zm45-392h120c8.271 0 15 6.729 15 15v15h-150v-15c0-8.271 6.729-15 15-15zm-30 60h180c8.271 0 15 6.729 15 15v15h-210v-15c0-8.271 6.729-15 15-15zm-75 105c0-19.555 12.541-36.228 30-42.42v206.678c-17.28-6.476-30-23.67-30-43.258z"/></g></svg>