<svg xmlns="http://www.w3.org/2000/svg" width="20.051" height="26.739" viewBox="0 0 20.051 26.739">
  <g id="Grupo_231" data-name="Grupo 231" transform="translate(0 0)">
    <path id="Trazado_151" data-name="Trazado 151" d="M696.115,2565.219a5.2,5.2,0,0,1-.6-.48,37.132,37.132,0,0,1-6.837-9.89,16.618,16.618,0,0,1-1.453-4.956,9.845,9.845,0,0,1,2.968-8.494,9.675,9.675,0,0,1,5.483-2.8,9.49,9.49,0,0,1,7.124,1.691,9.989,9.989,0,0,1,4.26,6.676,10.825,10.825,0,0,1-.259,4.525,18.113,18.113,0,0,1-2.525,5.547,34.28,34.28,0,0,1-7.286,7.881c-.141.113-.3.2-.454.3Zm.228-1.941c.1-.07.132-.086.157-.107a32.278,32.278,0,0,0,6.358-6.98,14.639,14.639,0,0,0,2.625-6.974,8.355,8.355,0,1,0-16.677-.955,13.242,13.242,0,0,0,1.068,5.174,27.7,27.7,0,0,0,3.687,6.369C694.453,2560.983,695.408,2562.112,696.344,2563.278Z" transform="translate(-687.14 -2538.48)" fill="#00193a"/>
    <path id="Trazado_152" data-name="Trazado 152" d="M694.581,2541.289a4.177,4.177,0,1,1-4.169,4.192A4.332,4.332,0,0,1,694.581,2541.289Zm2.516,4.188a2.507,2.507,0,1,0-2.492,2.494A2.371,2.371,0,0,0,697.1,2545.478Z" transform="translate(-684.571 -2536.273)" fill="#00193a"/>
  </g>
</svg>
