<?xml version="1.0" encoding="utf-8"?>
<!-- Generator: Adobe Illustrator 25.4.1, SVG Export Plug-In . SVG Version: 6.00 Build 0)  -->
<svg version="1.1" id="Layer_1" xmlns="http://www.w3.org/2000/svg" xmlns:xlink="http://www.w3.org/1999/xlink" x="0px" y="0px"
	 viewBox="0 0 512 512" style="enable-background:new 0 0 512 512;" xml:space="preserve">
<style type="text/css">
	.st0{fill:#D4E1F4;}
	.st1{fill:#E6332A;}
	.st2{fill:#060D47;}
</style>
<path class="st0" d="M46,44.6c0-3.8,1.5-7.5,4.2-10.2c2.6-2.7,6.3-4.3,10-4.4h-30c-3.8,0.1-7.4,1.6-10,4.4
	c-2.7,2.7-4.2,6.4-4.2,10.2c0,7.9,6.3,14.3,14.2,14.4H42v258H30.2c-3.8,0-7.4,1.5-10,4.2c-2.7,2.6-4.2,6.1-4.2,9.8
	c0,7.7,6.3,14,14.1,14c0.1,0,0.1,0,0.2,0h30c-7.7,0.1-14.1-6.1-14.2-13.8c0-0.1,0-0.1,0-0.2c0-3.7,1.5-7.3,4.2-9.8
	c0.9-0.8,1.8-1.6,2.9-2.2h19V57H53C48.7,54.4,46,49.7,46,44.6z"/>
<path class="st1" d="M94.9,301H417c3.4-0.2,6-3,5.9-6.4v-22.4c0.1-3.3-2.6-6.1-5.9-6.2h-5V161.8c-0.1-3.3-2.9-5.9-6.2-5.8h-30.3
	c-3.3,0-6.5,2.5-6.5,5.8V266h-23V130.7c0-3.3-3-5.7-6.4-5.7h-30.3c-3.3,0-6.4,2.4-6.4,5.7V266h-23v-73.1c0-3.3-3.2-5.9-6.5-5.9
	h-30.3c-3.3-0.1-6.1,2.6-6.3,5.9V266h-24v-17.1c0.2-3.1-2.2-5.7-5.2-5.9c-0.1,0-0.2,0-0.4,0h-30.3c-3.3-0.1-6.1,2.6-6.1,5.9V266h-24
	v-73.1c0.1-3.1-2.3-5.8-5.4-5.9c-0.1,0-0.2,0-0.3,0H111c-3.3,0-6,2.6-6,5.8c0,0,0,0,0,0.1V266H94.9c-3.3,0.1-6,2.9-5.9,6.2v22.4
	C88.9,298,91.6,300.8,94.9,301z M381,168h19v98h-19V168z M315,137h19v129h-19V137z M249,199h19v67h-19V199z M183,255h18v11h-18V255z
	 M117,199h18v67h-18V199z M101,278h310v11H101V278z"/>
<path class="st1" d="M390.8,105.7c-5,0-9.7,1.7-13.6,4.8l-31-13.7c0-0.2,0-0.5,0-0.7c0-11.9-9.6-21.6-21.5-21.6s-21.6,9.6-21.6,21.5
	c0,2.7,0.5,5.4,1.5,7.9l-37.4,34.7c-10.9-4.8-23.6,0.1-28.4,11c-2.7,6.1-2.4,13.1,0.7,18.9l-32.5,30c-7.2-6.7-18-7.7-26.2-2.3
	l-35.3-28c5.5-10.6,1.3-23.7-9.3-29.2s-23.7-1.3-29.2,9.3s-1.3,23.7,9.3,29.2c6.6,3.4,14.5,3.2,20.9-0.6l35.7,28.3
	c-5.1,10.8-0.5,23.6,10.3,28.7c10.8,5.1,23.6,0.5,28.7-10.3c2.1-4.5,2.6-9.7,1.4-14.5l34.7-32c10.4,5.8,23.5,2.2,29.3-8.2
	c4-7.1,3.7-15.8-0.8-22.5l35.5-32.9c9.5,7,23,5,30-4.5c0.2-0.2,0.3-0.4,0.5-0.7l27.9,12.3c-3.7,11.3,2.5,23.5,13.9,27.1
	c11.3,3.7,23.5-2.5,27.1-13.9s-2.5-23.5-13.9-27.1C395.3,106.1,393.1,105.7,390.8,105.7L390.8,105.7z M126.4,167.9
	c-5.3,0-9.6-4.3-9.6-9.6s4.3-9.6,9.6-9.6s9.6,4.3,9.6,9.6l0,0C135.9,163.6,131.6,167.9,126.4,167.9L126.4,167.9z M192.5,223.9
	c-5.3,0-9.6-4.3-9.6-9.6s4.3-9.6,9.6-9.6s9.6,4.3,9.6,9.6l0,0C202,219.6,197.8,223.9,192.5,223.9L192.5,223.9z M258.6,167.9
	c-5.3,0-9.6-4.3-9.6-9.6s4.3-9.6,9.6-9.6c5.3,0,9.6,4.3,9.6,9.6l0,0C268.1,163.6,263.9,167.9,258.6,167.9z M324.7,105.7
	c-5.3,0-9.6-4.3-9.6-9.6c0-5.3,4.3-9.6,9.6-9.6c5.3,0,9.6,4.3,9.6,9.6C334.3,101.4,330,105.7,324.7,105.7L324.7,105.7z M390.8,136.8
	c-5.3,0-9.6-4.3-9.6-9.6c0-5.3,4.3-9.6,9.6-9.6c5.3,0,9.6,4.3,9.6,9.6l0,0C400.4,132.5,396.1,136.8,390.8,136.8L390.8,136.8z"/>
<path class="st2" d="M30.2,311c-11,0-20,9-20,20s9,20,20,20l0,0h149.1l-50,100.1c-6.2,12.4-1.2,27.5,11.2,33.7
	c3.5,1.7,7.3,2.6,11.2,2.7c9.4,0.1,18.1-5.1,22.4-13.5l9.7-19h144.7l9.7,19c6.3,12.3,21.3,17.2,33.7,11c4.1-2.1,7.6-5.3,10-9.2
	c4.6-7.5,5-16.8,1.1-24.6L333,351h149.1c11,0,20-9,20-20s-9-20-20-20H476V65h5.8c11.3,0,20.5-9.2,20.5-20.5S493.1,24,481.8,24H30.2
	C18.9,24,9.7,33.2,9.7,44.5S18.9,65,30.2,65H36v246H30.2z M163.3,468.2c-2.2,4.4-6.7,7.3-11.6,7.3c-4.5,0-8.7-2.3-11.1-6.1
	c-2.4-3.9-2.6-8.8-0.6-12.9L192.7,351h29.1L163.3,468.2z M235.2,351h41.5l32.9,66H202.3L235.2,351z M189.7,443l6.6-14h119.4l6.6,14
	H189.7z M372,456.5c2,4.1,1.8,8.9-0.6,12.8s-6.5,6.2-11.1,6.2c-5-0.1-9.5-2.9-11.6-7.4L290.2,351h29.1L372,456.5z M30.2,53
	c-4.7-0.2-8.4-4.1-8.2-8.8c0.2-4.5,3.7-8.1,8.2-8.2h451.6c4.7,0.2,8.4,4.1,8.2,8.8c-0.2,4.5-3.7,8.1-8.2,8.2H30.2z M464,65v246H48
	V65H464z M481.8,323c4.4,0,8,3.6,8,8s-3.6,8-8,8H30.2c-4.4,0-8-3.6-8-8s3.6-8,8-8H481.8z"/>
<path class="st2" d="M72,100.4c3.3,0,6-2.7,6-6v-4.7c0-3.3-2.7-6-6-6s-6,2.7-6,6v4.7C66,97.7,68.7,100.4,72,100.4z"/>
<path class="st2" d="M72,194.1c3.3,0,6-2.7,6-6v-71.2c0-3.3-2.7-6-6-6s-6,2.7-6,6v71.2C66,191.4,68.7,194.1,72,194.1z"/>
</svg>
