<?xml version="1.0" encoding="utf-8"?>
<!-- Generator: Adobe Illustrator 25.4.1, SVG Export Plug-In . SVG Version: 6.00 Build 0)  -->
<svg version="1.1" id="Layer_1" xmlns="http://www.w3.org/2000/svg" xmlns:xlink="http://www.w3.org/1999/xlink" x="0px" y="0px"
	 viewBox="0 0 512 512" style="enable-background:new 0 0 512 512;" xml:space="preserve">
<style type="text/css">
	.st0{fill:#D4E1F4;}
	.st1{fill:#E6332A;}
	.st2{fill:#060D47;}
</style>
<g>
	<path class="st0" d="M214.9,161.1C214.8,161.4,214.9,161.1,214.9,161.1z"/>
	<path class="st0" d="M227.4,147.3l-1.1-8.4h-0.1c-6.8,1.1-13.6,2.8-20.1,5.2l-4.3,1.4c-7.5,2.5-13.6,8-16.9,15.2
		c-0.1,0.3-0.1,0.6-0.2,0.9c-1.2,3.3-1.8,6.9-1.8,10.5V203h-17v24h14v77h0.1h30v-78h-14v-21h17v-32.9c-0.1-3.6,0.6-7.6,1.9-11
		c0-0.1,0-0.1,0,0C217.5,155.4,221.9,150.3,227.4,147.3L227.4,147.3z"/>
</g>
<g>
	<path class="st1" d="M201.3,417h-8.7c-3.3,0-6,2.7-6,6s2.7,6,6,6h8.7c3.3,0,6-2.7,6-6S204.6,417,201.3,417z"/>
	<path class="st1" d="M358.8,417h-8.7c-3.3,0-6,2.7-6,6s2.7,6,6,6h8.7c3.3,0,6-2.7,6-6S362.1,417,358.8,417z"/>
	<path class="st1" d="M55.5,507h87.1c3.3,0,6.5-2.7,6.5-6v-25c-0.1-6.9-2.3-13.5-6.4-19H212c-4,5.5-6,12.2-6,19v25c0,3.3,2.7,6,6,6
		h87.1c3.3,0,6-2.7,5.9-6v-25c0.1-6.8-2-13.5-5.9-19h70.3c-4.1,5.5-6.4,12.2-6.4,19v25c0,3.3,3.1,6,6.5,6h87c3.3,0,6.5-2.7,6.5-6
		v-25c0-19-15.9-34-34.9-34h-30.2c-5,0-9.9,0.7-13.9,2.6v-18.9c0-0.1-0.1-0.2-0.1-0.3c13.2,16.2,37,18.6,53.2,5.4
		c8.8-7.1,13.9-17.8,13.9-29.2v-8.8c0-20.8-17.2-37.7-38-37.7s-38,16.9-38,37.7v8.8c0,0.5,0.2,0.9,0.2,1.4c-6.4-7.6-15.9-12-25.9-12
		h-30.2c-10,0-19.6,4.4-26.1,12c0-0.5-0.1-0.9-0.1-1.4v-8.8c0-20.7-16.8-37.5-37.5-37.5S218,372.2,218,392.9v8.8v1.4
		c-6.5-7.6-16.1-12-26.1-12h-30.2c-9.5,0-18.5,4-24.9,11c0-0.1,0.2-0.2,0.2-0.3V393c0-20.8-17.2-37.7-38-37.7S61,372.2,61,393v8.8
		c0,20.8,16.9,37.7,37.7,37.7c10.8,0,21.1-4.7,28.3-12.8v17.7c-4.1-1.6-8.5-2.3-12.9-2.2H83.9c-19,0-34.9,15-34.9,34v25
		C49,504.3,52.2,507,55.5,507L55.5,507z M387,392.9c0-14.1,11.9-25.7,26-25.7s26,11.5,26,25.7v8.8c0,14.1-11.9,25.7-26,25.7
		s-26-11.5-26-25.7V392.9z M375,476c0-12.4,10.5-22,22.9-22h30.2c12.4,0,22.9,9.6,22.9,22v19h-76V476z M297,425.7
		c0-12.4,9.8-22.7,22.2-22.7h30.2c12.5,0.1,22.6,10.2,22.7,22.7V445h-75v-19.3H297z M230,392.9c0-14.1,11.4-25.5,25.5-25.5
		s25.5,11.4,25.5,25.5v8.8c0,14.1-11.4,25.5-25.5,25.5S230,415.8,230,401.7V392.9z M226,425.7c0-0.1,0.2-0.2,0.2-0.3
		c13.2,16.2,37.1,18.6,53.3,5.4c2-1.6,3.8-3.4,5.4-5.4c0,0.1,0.1,0.2,0.1,0.3v18.9c-4.6-1.8-9.5-2.7-14.4-2.6h-30.2
		c-4.9-0.1-9.8,0.8-14.4,2.6L226,425.7z M218,476c0-12.2,10-22.1,22.2-22h0.2h30.2c12.2-0.2,22.2,9.6,22.4,21.7v0.3v19h-75V476z
		 M139,425.7c0.1-12.5,10.2-22.6,22.7-22.7h30.2c12.4,0,22.1,10.3,22.1,22.7V445h-75V425.7z M125,401.7c0,14.1-11.9,25.7-26,25.7
		s-26-11.5-26-25.7v-8.8c0-14.1,11.9-25.7,26-25.7s26,11.5,26,25.7V401.7z M61,476c0-12.4,10.6-22,22.9-22h30.2
		c12.4,0,22.9,9.6,22.9,22v19H61V476z"/>
	<path class="st1" d="M123.5,468h-8.7c-3.3,0-6,2.7-6,6s2.7,6,6,6h8.7c3.3,0,6-2.7,6-6S126.8,468,123.5,468z"/>
	<path class="st1" d="M280,468h-8.7c-3.3,0-6,2.7-6,6s2.7,6,6,6h8.7c3.3,0,6-2.7,6-6S283.4,468,280,468z"/>
	<path class="st1" d="M437.5,468h-8.7c-3.3,0-6,2.7-6,6s2.7,6,6,6h8.7c3.3,0,6-2.7,6-6S440.8,468,437.5,468z"/>
</g>
<path class="st2" d="M232,272h49c3.3,0,6-2.7,6-6v-16c0-3.3-2.7-6-6-6h-49c-3.3,0-6,2.7-6,6v16C226,269.3,228.7,272,232,272z
	 M238,256h36v4h-36V256z"/>
<path class="st2" d="M202,253.5c3.3,0,6-2.7,6-6v-4.6c0-3.3-2.7-6-6-6s-6,2.7-6,6v4.6C196,250.8,198.7,253.5,202,253.5z"/>
<path class="st2" d="M202,292.6c3.3,0,6-2.7,6-6v-22.2c0-3.3-2.7-6-6-6s-6,2.7-6,6v22.2C196,289.9,198.7,292.6,202,292.6z"/>
<g>
	<path class="st2" d="M346,198h-11v-25.8c0.1-4.4-0.9-9.2-2.4-13.4c0-0.1,0-0.1,0-0.1c-3.9-8.7-11.5-15.9-20.6-18.9l-4.3-1.5
		c-9-3.2-18.3-5.5-27.7-6.8v-5.9c8-6.2,14.4-15.5,16.2-26.3c7.2-2.5,11.4-10.1,9.5-17.6c-1-3.9-3.8-7.2-7.6-8.7l0.5-7.4
		c0.8-10.6-2.5-21.1-9.1-29.3c-1.8-2.3-3.9-4.3-6.2-6.2C282.2,15.9,270.3,5,256.1,5c-14.1,0-25.9,10.7-27.2,24.8
		c-10.6,8.7-16.4,22.1-15.5,35.8l0.5,7.5c-3.8,1.5-6.6,4.7-7.6,8.7c-1.8,7.4,2.3,15,9.6,17.5c1.7,10.7,8.2,20.1,16.2,26.3v5.9
		c-9.4,1.5-18.7,3.8-27.8,6.9l-4.3,1.5c-9.1,3.1-16.6,10.3-20.6,19.1c-1.5,4.1-2.4,8.9-2.2,13.3V198h-10.5c-3-0.1-5.4,2.2-5.6,5.1
		V225c0,3.3,2.2,6,5.5,6h7.5v73.4c0,3.3,3,5.6,6.3,5.6h151.5c3.3,0,6.3-2.3,6.3-5.6V231h7.5c3.3,0,5.5-2.7,5.5-6v-21.3
		C351.2,200.7,348.9,198.2,346,198L346,198z M281.4,177.4c3,0,5.6-2.2,5.9-5.2l3.5-26.4c4.4,1.1,8.8,2.3,13.1,3.8l4.3,1.5
		c5.9,2,10.8,6.7,13.4,12.4c1,2.7,1.4,5.8,1.4,8.6V198h-10.9c-0.6-4.8-1.9-9.5-3.8-13.9c-1.3-3.1-4.8-4.5-7.9-3.3
		c-3.1,1.4-4.5,4.9-3.2,8c1.2,2.9,2.1,6,2.7,9.1H273l-2.2-18.1l1.7-5.8l6.3,2.8C279.7,177.2,280.5,177.4,281.4,177.4L281.4,177.4z
		 M260.4,173.1l-7.5-0.1l-1.1-4.3l4.8-2.4l5,2.4L260.4,173.1z M261,198h-9.8l2-12.8l6.2,0.2L261,198z M256,151.6l-9.1-8.8
		c-1.9-1.8-2.9-4.3-2.9-6.8v-4.3c3.4,1.1,6.9,1.7,10.5,1.8h1.5c4.1,0,8.1-0.6,12-1.8v4.3c0,2.6-1,5.1-2.9,6.9L256,151.6z
		 M245.5,158.1l-10,4.5l-2.5-19.1l0.3-0.1c1.1,3.1,2.9,5.8,5.3,8.1L245.5,158.1z M273.4,151.5c2.3-2.3,4.2-5,5.3-8.1h0.3l-2.5,19.1
		l-9.9-4.5L273.4,151.5z M245.2,21.5c2.9-2.9,6.8-4.5,10.9-4.5c3.9,0,7.7,1.5,10.6,4.2c-7.3-1.7-14.8-1.4-21.9,0.8
		C244.9,21.9,245.1,21.7,245.2,21.5L245.2,21.5z M268.9,34.9c4.3,2.2,8.1,5.2,11.3,8.9c4.7,5.9,7.1,13.4,6.5,21l-0.3,5
		c-2.4-2.1-4.2-4.9-5.1-7.9c-0.6-2.5-2.8-4.4-5.5-4.5c-24.7-1.5-29.5-7.4-33.9-21.4C247.7,33.2,259,29.5,268.9,34.9z M231.9,43.7
		c0.8,2.1,1.7,4.2,2.8,6.1c-3.2,1.9-6.2,4.3-8.8,7C226.8,52.1,228.9,47.6,231.9,43.7z M227.3,93.8c-0.1-3.2-2.8-5.8-6-5.8h-0.7
		c-0.7,0-1.4-0.3-2-0.8c-0.7-0.7-1-1.7-0.7-2.6c0.1-0.6,1-0.6,1-0.6h1.4c1.6,0.1,3.2-0.6,4.4-1.8c0.6-0.7,1.1-1.5,1.4-2.3
		c3.6-11.3,10.2-17.3,16.1-20.5c6.2,5.3,15.1,8.3,29,9.6c2.4,5.3,8.1,13.7,19.7,15.1h2.4c0.4-0.1,0.8,0.2,0.9,0.6
		c0.2,0.7,0.1,1.5-0.3,2.1s-1,1.1-1.7,1.2l-1.3,0.1c-3.2,0-5.9,2.6-6,5.8c-0.6,15.9-13.9,28.2-29.8,27.6
		C239.9,120.9,227.9,108.8,227.3,93.8L227.3,93.8z M190.5,163.5C190.5,163.3,190.5,163.4,190.5,163.5c2.6-5.7,7.5-10.4,13.5-12.4
		l4.3-1.5c4.3-1.5,8.6-2.8,13.1-3.8l3.5,26.4c0.4,3.3,3.4,5.6,6.7,5.2c0.6-0.1,1.2-0.2,1.7-0.5l7.6-3.4l1.4,6l-2.9,18.6h-26.8
		c0.6-3.1,1.5-6.2,2.7-9.2c1.3-3,0-6.6-3-7.9s-6.6,0-7.9,3c0,0.1-0.1,0.1-0.1,0.2c-1.9,4.4-3.2,9.1-3.8,13.8H189v-25.9
		C188.9,169.3,189.5,166.1,190.5,163.5L190.5,163.5z M326,298H186v-67h140V298z M339,219H173v-9h166V219z"/>
	<path class="st2" d="M179.4,159C179.3,159.1,179.3,159.2,179.4,159z"/>
	<path class="st2" d="M332.6,158.7v0.1C332.8,159.1,332.5,158.6,332.6,158.7z"/>
</g>
<path class="st1" d="M176.5,389c20.7,0,37.5-16.9,37.5-37.6v-8.8c0-20.7-16.8-37.5-37.5-37.5S139,321.8,139,342.5v8.8
	C139,372.1,155.7,389,176.5,389z M151,342.5c0-14.1,11.4-25.5,25.5-25.5s25.5,11.4,25.5,25.5v8.8c0,14.1-11.4,25.5-25.5,25.5
	S151,365.4,151,351.4V342.5z"/>
<path class="st1" d="M334.5,389c20.7,0,37.5-16.9,37.5-37.6v-8.8c0-20.7-16.8-37.5-37.5-37.5S297,321.8,297,342.5v8.8
	C297,372.1,313.7,389,334.5,389z M309,342.5c0-14.1,11.4-25.5,25.5-25.5s25.5,11.4,25.5,25.5v8.8c0,14.1-11.4,25.5-25.5,25.5
	S309,365.4,309,351.4V342.5z"/>
</svg>
