<?xml version="1.0" encoding="utf-8"?>
<!-- Generator: Adobe Illustrator 25.4.1, SVG Export Plug-In . SVG Version: 6.00 Build 0)  -->
<svg version="1.1" id="Layer_1" xmlns="http://www.w3.org/2000/svg" xmlns:xlink="http://www.w3.org/1999/xlink" x="0px" y="0px"
	 viewBox="0 0 512 512" style="enable-background:new 0 0 512 512;" xml:space="preserve">
<style type="text/css">
	.st0{fill:#D4E1F4;}
	.st1{fill:#E6332A;}
	.st2{fill:#060D47;}
</style>
<path class="st0" d="M177,383.8v-23.7c-57.3-60.2-55-155.5,5.2-212.8c24.3-23.1,55.5-37.5,88.8-40.8c-4.9-0.5-9.9-0.7-15-0.7
	c-83.1,0-150.5,67.4-150.5,150.5c0,76.4,57.3,140.7,133.2,149.5h0.4c-22.1-2.5-43.4-9.9-62.2-21.7L177,383.8z"/>
<path class="st0" d="M269.5,405.9l-29,0.1c5.2,0.5,10.3,0.8,15.5,0.8c5.1,0,10.1-0.3,15-0.8C270.5,406,270,405.9,269.5,405.9z"/>
<g>
	<path class="st1" d="M249,77.9V105h12V78.3c20.2-2.7,34.4-21.2,31.7-41.4S271.5,2.5,251.3,5.2s-34.4,21.2-31.7,41.4
		C221.7,62.3,233.5,74.8,249,77.9L249,77.9z M256,17c13.7,0,24.8,11.1,24.8,24.8S269.7,66.6,256,66.6s-24.8-11.1-24.8-24.8
		S242.3,17,256,17L256,17z"/>
	<path class="st1" d="M292.8,470.2c0-18-13.1-33.4-30.8-36.3V407h-12v26.9c-20.1,3.3-33.6,22.3-30.3,42.3s22.3,33.6,42.3,30.3
		C279.8,503.6,292.8,488.2,292.8,470.2z M231.2,470.2c0-13.7,11.1-24.8,24.8-24.8c13.7,0,24.8,11.1,24.8,24.8S269.7,495,256,495
		S231.2,483.9,231.2,470.2z"/>
	<path class="st1" d="M470.2,219.1c-18.3,0-33.6,13.9-36.4,30.9H407v12h26.9c2.8,17.8,18.2,30.9,36.3,30.7
		c20.3-0.1,36.7-16.7,36.6-37C506.7,235.5,490.4,219.2,470.2,219.1z M470.2,280.8c-13.7,0-24.8-11.1-24.8-24.8s11.1-24.8,24.8-24.8
		S495,242.3,495,256C495,269.7,483.9,280.8,470.2,280.8z"/>
	<path class="st1" d="M77.9,263H105v-12H78.3c-2.5-20.2-21-34.6-41.3-32.1c-20.2,2.5-34.6,21-32.1,41.3s21,34.6,41.3,32.1
		C62,290.3,74.7,278.5,77.9,263z M17,256c0-13.7,11.1-24.8,24.8-24.8s24.8,11.1,24.8,24.8c0,13.7-11.1,24.8-24.8,24.8
		S17,269.7,17,256L17,256z"/>
	<path class="st1" d="M366.5,153.2l60.3-60.3c14.7,10.8,35,9.3,48-3.5c14.4-14.4,14.4-37.7,0-52.1s-37.7-14.4-52.1,0
		c-12.6,12.6-14.4,32.4-4.2,47L358,144.7L366.5,153.2z M431.2,45.8c9.7-9.7,25.4-9.7,35.1,0s9.7,25.4,0,35.1s-25.4,9.7-35.1,0
		c-9.7-9.6-9.7-25.3-0.1-35C431.1,45.8,431.1,45.8,431.2,45.8z"/>
	<path class="st1" d="M145.2,359.2L77,427.4c-16.3-12.1-39.4-8.7-51.6,7.6c-12.1,16.3-8.7,39.4,7.6,51.6
		c16.3,12.1,39.4,8.7,51.6-7.6c9.4-12.7,9.7-29.9,0.7-42.9l68.3-68.3L145.2,359.2z M72.6,474.5c-9.7,9.7-25.4,9.7-35.1,0
		s-9.7-25.4,0-35.1s25.4-9.7,35.1,0S82.3,464.8,72.6,474.5z"/>
	<path class="st1" d="M456.9,420.1c-7.6,0-15,2.3-21.2,6.7l-68.5-68.5l-8.5,8.5l68.4,68.4c-12,16.4-8.4,39.5,8,51.4s39.5,8.4,51.4-8
		s8.4-39.5-8-51.4C472.4,422.6,464.8,420.1,456.9,420.1L456.9,420.1z M474.5,474.5c-9.7,9.7-25.4,9.7-35.1,0s-9.7-25.4,0-35.1
		s25.4-9.7,35.1,0S484.2,464.8,474.5,474.5z"/>
	<path class="st1" d="M55.1,91.9c7.4,0,14.6-2.2,20.7-6.4l68.5,68.5l8.5-8.5L84.5,77.2c12.2-16.2,9-39.3-7.3-51.6s-39.3-9-51.6,7.3
		s-9,39.3,7.3,51.6C39.3,89.3,47.1,91.9,55.1,91.9z M37.5,37.5c9.7-9.7,25.4-9.7,35.1,0s9.7,25.4,0,35.1s-25.4,9.7-35.1,0
		S27.8,47.2,37.5,37.5z"/>
</g>
<g>
	<path class="st2" d="M256,99.7c-86.3,0-156.5,70.2-156.5,156.5S169.7,412.8,256,412.8s156.5-70.2,156.5-156.5S342.3,99.7,256,99.7
		L256,99.7z M233.6,399c-8.1-1.2-16-3.2-23.6-5.9v-36.6c0-3-2.2-5.8-5.2-6.2c-3.7-0.5-6.8,2.4-6.8,5.9v32.1
		c-5.3-1.9-10.3-4.5-15-7.7v-51.4c-0.1-2.8,0.5-6,1.3-8.7c0.2-0.5,0.4-1,0.6-1.5c2.9-5.9,8.2-10.8,14.5-12.9l4.6-1.6
		c4.8-1.7,9.7-3.1,14.7-4.3l3.8,29.1c0.4,3.3,3.5,5.6,6.7,5.2c0.6-0.1,1.2-0.2,1.7-0.5l8.7-4l1.7,7L233.6,399z M228.5,226.3
		c1.4-1,2.3-2.7,2.5-4.4l1.1-14.1c14,1.2,27.7-4.1,37.4-14.3c6.8,5.9,11.6,13.8,13.8,22.6l2.1,8.4c0.6,2.4,2.6,4.1,4.9,4.5
		c1.1,0.2,2.3-0.1,3.3-0.5l7.5-3.4c0.1,0.3,0.1,0.6,0.1,0.8c0,2.3-1.6,4.2-3.9,4.6c-2.9,0.5-5,3-5,6c0,20-16.3,36.2-36.3,36.2
		s-36.2-16.3-36.2-36.3c0-2.9-2.1-5.4-5-5.9c-2.3-0.4-3.9-2.3-3.9-4.6c0-0.4,0-0.8,0.1-1.1l1.9,0.6
		C224.6,228.1,226.2,228,228.5,226.3z M227.6,173.5c14.7-15.7,39.2-16.5,54.9-1.8c0.6,0.6,1.2,1.2,1.8,1.8
		c7.3,7.7,11,18.2,10.2,28.8l-0.5,7.8c-3.7-12.2-11.6-22.8-22.1-29.9c-2.7-1.8-6.3-1.2-8.2,1.5c-7.2,10-19.1,15.3-31.3,14l-3.5-0.4
		h-0.1c-4.3-0.4-8,2.8-8.3,7.1l-1,12.1c-0.4-0.1-0.9-0.2-1.3-0.3l-0.8-11.9C216.6,191.7,220.3,181.3,227.6,173.5L227.6,173.5z
		 M237.5,306.8l8,7.6l-12,5.5l-2.9-21.8c0.4-0.1,0.8-0.1,1.2-0.2C233,301.3,234.9,304.3,237.5,306.8z M256,400.8
		c-3.6,0-7.1-0.1-10.6-0.4l7.4-57.5l7.3,0.1l5.8,57.5C262.6,400.7,259.3,400.8,256,400.8L256,400.8z M250.8,325.4l5.3-3l6.5,3
		L261,331l-8.8-0.1L250.8,325.4z M256.1,307.9l-10.5-9.8c-2.2-2-3.5-4.8-3.6-7.8v-7.7c9.2,2.6,18.8,2.6,28,0v7.7
		c-0.1,3-1.4,5.8-3.5,7.8L256.1,307.9z M274.5,306.7c2.6-2.5,4.6-5.5,5.7-8.9c0.4,0.1,0.8,0.1,1.2,0.2l-2.9,21.8l-12-5.5
		L274.5,306.7z M315,388.4v-32c0-3.3-2.7-6-6-6s-6,2.7-6,6v36.7c-8.1,2.8-16.5,4.8-25,6.1l-6.3-61.4l2-6.9l7.3,3.3
		c3,1.4,6.6,0,7.9-3c0.2-0.5,0.4-1.1,0.5-1.7l3.8-29.1c5,1.2,9.9,2.6,14.7,4.3l4.6,1.6c6.5,2.2,11.9,7.3,14.8,13.6
		c1.1,2.9,1.7,6.4,1.6,9.6v51.3h0.1C324.6,383.7,319.9,386.3,315,388.4z M341,372.9v-43.4c0.1-4.7-0.9-9.9-2.6-14.2
		c-4.2-9.3-12.3-17-22-20.3l-4.4-1.6c-9.8-3.4-19.8-5.9-30.1-7.5v-8.6c12.6-8.1,20.8-21.6,22.3-36.5c6.9-3.5,10.4-11.4,8.4-18.8
		c-0.9-3.8-3.4-7-6.8-8.9l0.7-9.8c1-13.9-3.9-27.7-13.4-37.8c-19.2-20.5-51.4-21.6-71.9-2.4c-0.8,0.8-1.6,1.6-2.4,2.4
		c-9.6,10.2-14.5,23.9-13.4,37.8l0.7,9.8c-3.4,1.9-5.8,5.1-6.8,8.9c-1.8,7.5,1.6,15.2,8.4,18.8c1.5,14.9,9.7,28.4,22.3,36.5v8.6
		c-10.2,1.6-20.3,4.1-30.1,7.5l-4.5,1.6c-9.5,3.2-17.4,10.7-21.6,19.6c-0.2,0.4-0.4,0.8-0.5,1.2c-1.5,4.2-2.4,9.3-2.3,13.7v43.4
		c-37.3-27.1-59.4-70.5-59.4-116.6c0-79.7,64.8-144.5,144.5-144.5s144.3,64.8,144.3,144.5C400.4,302.4,378.3,345.7,341,372.9
		L341,372.9z"/>
	<path class="st2" d="M338.4,315.2C338.6,315.6,338.3,314.8,338.4,315.2z"/>
	<path class="st2" d="M173.5,315.2C173.7,314.8,173.3,315.7,173.5,315.2z"/>
</g>
<path class="st2" d="M190.6,146.9c-1.9,1.1-3.7,2.3-5.5,3.5c-2.8,1.8-3.5,5.6-1.6,8.3s5.6,3.5,8.3,1.6c1.6-1.1,3.3-2.2,5-3.2
	c2.9-1.7,3.8-5.3,2.2-8.2S193.6,145.2,190.6,146.9C190.7,146.9,190.7,146.9,190.6,146.9L190.6,146.9z"/>
<path class="st2" d="M165.4,166.7c-27.7,28.3-40.8,67.8-35.4,107.1c0.5,3.3,3.5,5.5,6.8,5.1c3.2-0.5,5.5-3.5,5.1-6.7
	c-4.9-35.5,6.9-71.3,32-97c2.3-2.4,2.3-6.2-0.1-8.5C171.5,164.3,167.7,164.3,165.4,166.7L165.4,166.7z"/>
</svg>
