<?xml version="1.0" encoding="utf-8"?>
<!-- Generator: Adobe Illustrator 25.4.1, SVG Export Plug-In . SVG Version: 6.00 Build 0)  -->
<svg version="1.1" id="Layer_1" xmlns="http://www.w3.org/2000/svg" xmlns:xlink="http://www.w3.org/1999/xlink" x="0px" y="0px"
	 viewBox="0 0 512 512" style="enable-background:new 0 0 512 512;" xml:space="preserve">
<style type="text/css">
	.st0{fill:#D4E1F4;}
	.st1{fill:#E6332A;}
	.st2{fill:#060D47;}
</style>
<path class="st0" d="M252.3,122.4c5.1,0,10.2-0.9,15-2.7c-16.4-6.2-27.3-22-27.3-39.6v-26c-0.1-17.4,10.6-33,26.8-39.4
	c-0.2-0.1-0.5-0.1-0.7-0.2c-4.1-1.2-9.9-2.7-13.8-2.7c-23.3,0-42.2,18.9-42.2,42.2v0.1v26C210,103.4,228.9,122.4,252.3,122.4
	C252.2,122.4,252.2,122.4,252.3,122.4z"/>
<path class="st0" d="M194,165.6c14,0,25.4,11.3,25.4,25.4l0,0H212v44.1c0,2.1-0.2,4.1-0.6,6.1c0,0.3-0.1,0.5-0.1,0.8h13l-2.5-76.6
	c2.4-15.7,15.9-27.4,31.8-27.4h-30c-15.9,0.1-29.4,11.7-31.8,27.4v0.1C192.6,165.6,193.3,165.6,194,165.6z"/>
<path class="st1" d="M282,455h-11.6c-3.3,0-6,2.7-6,6s2.7,6,6,6H282c3.3,0,6-2.7,6-6S285.3,455,282,455z"/>
<path class="st1" d="M115.7,458H104c-3.3,0-6,2.7-6,6s2.7,6,6,6h11.6c3.3,0,6-2.7,6-6S119,458,115.7,458z"/>
<path class="st1" d="M450.3,470h11.6c3.3,0,6-2.7,6-6s-2.7-6-6-6h-11.6c-3.3,0-6,2.7-6,6S447,470,450.3,470z"/>
<path class="st1" d="M363.7,330h11.6c3.3,0,6-2.7,6-6s-2.7-6-6-6h-11.6c-3.3,0-6,2.7-6,6S360.4,330,363.7,330z"/>
<path class="st2" d="M252.5,128.4c26.7,0,48.4-21.6,48.5-48.3V48h1.2c3.4-0.1,6-2.9,6-6.2c0-17.4-14.1-31.5-31.4-31.6
	c-3,0-6.1-0.5-9-1.4c-6.6-2-11.7-3-15.5-3c-26.7,0-48.3,21.6-48.3,48.3v26C204.1,106.8,225.8,128.4,252.5,128.4z M289,53.6
	c-2.5-1.1-4.4-3.1-5.6-5.6h5.6V53.6z M216,54.1c0-20,16.2-36.3,36.3-36.3c2.5,0,6.8,0.9,12,2.5c4,1.3,8.2,2,12.4,2.1
	c8.5,0,16,5.6,18.5,13.7h-44c-8.2-0.1-14.8,6.4-14.9,14.6v0.1c0,7.4-6,13.3-13.4,13.3h-0.1H216V54.1z M216,76h6.7
	c14,0.1,25.4-11.2,25.5-25.2v-0.1c0-1.5,1.3-2.7,2.8-2.7h0.1H271c1.6,9,8.9,16.2,17.9,18.5v13.6c0,20.2-16.3,36.5-36.5,36.5
	S216,100.2,216,80.1V76z"/>
<path class="st2" d="M223.7,144h51.4c14.4,0,25.9,12,25.9,26.5v9.5h12v-9.5c0-21.1-16.9-38.5-37.9-38.5h-51.4
	c-18.9,0.2-34.8,13.9-37.8,32.6l11.9,1.7C199.8,153.5,210.7,144.1,223.7,144z"/>
<path class="st2" d="M282,179c3.3,0,6-2.7,6-6s-2.7-6-6-6h-11.6c-3.3,0-6,2.7-6,6s2.7,6,6,6H282z"/>
<path class="st2" d="M437.8,64.6l31.7-35.1c0.4-0.5,0.8-1,1-1.5c1.5-3.1,0.2-6.8-2.9-8.3c-0.8-0.4-1.6-0.6-2.5-0.6h-97.7
	c-0.2-3.5-1.6-6.8-4-9.3c-2.7-2.7-6.3-4.1-10.1-3.9c-7.5,0.4-13.3,6.5-13.2,14V161h12V19.5c0-0.8,0.7-1.5,1.5-1.5l0,0
	c0.8,0,1.5,0.7,1.5,1.5V165h12v-55h97.8c1.9,0,3.8-0.8,5-2.3c1.8-2.3,1.7-5.6-0.2-7.8L437.8,64.6z M367,98V31h84.6l-26.4,29.4
	c-2.1,2.3-2.1,5.8,0,8.2L451.6,98H367z"/>
<rect x="212" y="236" class="st2" width="88" height="12"/>
<path class="st2" d="M381,36.8c-3.3,0-6,2.7-6,6v3.6c0,3.3,2.7,6,6,6s6-2.7,6-6v-3.6C387,39.5,384.3,36.8,381,36.8z"/>
<path class="st2" d="M381,58.3c-3.3,0-6,2.7-6,6l0,0v23.2c0,3.3,2.7,6,6,6s6-2.7,6-6V64.3C387,61,384.3,58.3,381,58.3z"/>
<path class="st1" d="M24.6,506h462.7c3,0.1,5.6-2.3,5.6-5.3c0-0.1,0-0.3,0-0.4v-33.7c0-19.4-15.3-42.6-34.8-42.6h-17
	c20.8-6,35.8-24.6,35.8-47.1V338h2.1c3.3,0,6-2.7,6-6c0-17.4-14.1-31.4-31.4-31.5c-3,0-6.1-0.5-9-1.4c-6.6-2-11.8-3-15.6-3
	c-9.9,0-19.5,3.1-27.6,8.8c-7.4-15-20-21.9-29.8-21.9h-17c20.8-5,36.3-24.4,36.3-46.9V197h1.5c3.3,0,6-2.6,6-5.9l0,0
	c0-17.4-14.1-31.4-31.4-31.4c-3,0-6.1-0.5-9-1.3c-6.6-2-11.9-3-15.7-3c-26.7,0-48.4,21.6-48.5,48.3v32.5c0,22.5,15.7,41.9,36.5,46.9
	h-17c-15.1-0.1-28.5,9.6-33.3,23.9c-7.9-6.3-17.8-9.8-27.9-9.9h-5.8c-6.4,0.1-12.6,1.5-18.4,4.1c-6.9-11.4-19.3-18.3-32.6-18.1
	h-13.9c20.8-5,36.5-24.4,36.5-46.9V197h1.4c3.3,0,6-2.6,6-5.9l0,0c0-17.4-14.1-31.4-31.4-31.4c-3,0-6.1-0.5-9-1.3
	c-6.6-2-11.8-3-15.6-3c-26.7,0-48.3,21.7-48.4,48.3v32.5c0,22.5,15.5,41.9,36.3,46.9h-13.9c-13.1,0-25.3,6.7-32.3,17.8
	c-1.2-0.2-2.5-0.2-3.7-0.3c-3,0-6.1-0.5-9-1.4c-6.6-2-11.6-3-15.3-3c-26.6,0-48.1,21.7-48.1,48.3c0,0,0,0,0,0.1v32.5
	c0,22.5,14.9,41.1,35.8,47.1H56.8C36,423.9,19.1,440.8,19,461.6c0,0.1,0,0.2,0,0.3v38.3c-0.1,3,2.2,5.6,5.2,5.7
	C24.4,506,24.5,506,24.6,506z M301,494H197v-35.8c0-14.4,12.2-26.2,26.7-26.2h51.4c14.4,0.1,26,11.7,25.9,26.1v0.1V494z M458.2,436
	c11.9,0,22.8,17.1,22.8,30.6V494H377v-35.1c0-12.6,10.2-22.9,22.8-22.9c0.1,0,0.1,0,0.2,0H458.2z M465,344c-2.2-1.4-3.8-3.5-4.6-6
	h4.6V344z M393,344.5c0-20,16.2-36.3,36.2-36.3c2.5,0,6.8,0.9,12,2.5c4,1.2,8.2,1.9,12.4,1.9c8.4-0.1,15.9,5.4,18.5,13.5h-44
	c-8.2-0.1-14.8,6.4-14.9,14.6v0.1c0,7.4-6,13.3-13.4,13.3h-0.1H393V344.5z M393,366h6.7c14,0.1,25.4-11.2,25.5-25.2v-0.1
	c0-1.5,1.3-2.7,2.8-2.7h0.1H448c1.8,8.9,8.3,16.2,17,18.9v20c0,19.9-16.1,36-36,36s-36-16.1-36-36l0,0V366z M379,203.2
	c-2-1.4-4.2-3.2-5.2-6.2h5.2V203.2z M306,203.6c0.1-20.1,16.4-36.3,36.5-36.3c2.5,0,6.9,0.9,12.1,2.5c4.1,1.2,8.3,1.8,12.5,1.8
	c8.4-0.1,16,5.4,18.5,13.4h-44c-8.3,0.1-14.9,6.9-14.9,15.2c0,7.5-6,13.7-13.5,13.8H306V203.6z M306,236.1V226h7.1
	c14.1-0.1,25.5-11.7,25.5-25.8c0-1.7,1.3-3.1,2.9-3.2h19.9c1.7,9.2,8.5,16.6,17.6,19.1v20c0,20.2-16.3,36.5-36.5,36.5
	S306,256.2,306,236.1z M313.5,295h58.2c8.7,0,16.7,9,20.6,18.5c-7.3,8.7-11.3,19.7-11.3,31V377c-0.1,3.4,0.2,6.7,0.8,10.1h-87.6
	c1.5-3.8,2.5-7.7,3-11.8c16.9-0.7,30-15,29.3-31.9c-0.7-16.4-14.2-29.3-30.6-29.3h-5.1C292.6,303,302.3,294.9,313.5,295z M294.3,326
	h1.5c10.3,0.1,18.5,8.5,18.4,18.8c-0.1,9.7-7.6,17.7-17.3,18.4v-20.6C297,336.6,296.4,331,294.3,326z M386.1,399
	c6.5,12.2,17.7,21.2,31,25h-17c-19.3-0.1-34.9,15.4-35,34.7c0,0.1,0,0.1,0,0.2V494h-52v-35.8c0.1-21-16.8-38.1-37.8-38.2h-0.1h-51.4
	c-21.1,0-38.7,17.2-38.7,38.2V494h-38v-32.1c0-21-17-38-38-37.9c-0.1,0-0.1,0-0.2,0H95c13.3-3.8,24.5-12.8,31-25h85.8
	c8.6,10.3,21.4,16.1,34.8,16h5.8c13.4,0.1,26.2-5.7,34.8-16H386.1z M119,344c-2.3-1.4-4-3.5-4.9-6h4.9V344z M213,370v-9h3.4
	c17.8-0.1,35-6.2,48.9-17.3c1,2,2.1,4,3.4,5.9c5.8,8.1,12.3,11,16.3,11.7v8.8c0.2,18-14.3,32.8-32.3,33c-0.1,0-0.3,0-0.4,0h-5.8
	C228.2,403,213,388.3,213,370L213,370z M246.5,309h5.8c18.3,0,32.7,15.2,32.7,33.5v6.3c-6-2.6-11-13.7-12.2-17.2
	c-0.6-1.9-2.2-3.4-4.2-3.9c-2-0.4-4.1,0.2-5.5,1.7c-12.3,12.4-29.1,19.4-46.6,19.5H213v-6.5C213.1,324.1,228,309.1,246.5,309z
	 M206,203.2c-2.7-1.1-4.6-3.4-5.3-6.2h5.3V203.2z M133,203.6c0-20.1,16.3-36.3,36.4-36.3c2.5,0,6.9,0.9,12.1,2.5
	c4,1.2,8.2,1.8,12.5,1.8c8.4-0.1,16,5.4,18.5,13.4h-44c-8.3,0.1-14.9,6.9-14.9,15.2c0,7.5-6,13.7-13.5,13.8h-7v-10.4H133z
	 M133,236.1V226h7c14.1-0.1,25.5-11.7,25.5-25.8c0-1.7,1.3-3.1,2.9-3.2h19.9c1.8,9.2,8.6,16.6,17.7,19.1v20
	c0,20.2-16.3,36.5-36.5,36.5S133,256.2,133,236.1z M143.4,295h52c9.2-0.1,17.7,4.7,22.4,12.6c-4.3,3.6-7.9,8-10.7,12.9
	c-1.1-1.6-3-2.5-4.9-2.4h-11.6c-3.3,0-6,2.7-6,6s2.7,6,6,6h11.6c0.3,0,0.5-0.2,0.8-0.3c-1.3,4.1-2,8.4-2,12.8V370
	c0.1,5.8,1.3,11.6,3.6,17h-74.4c0.6-3.3,0.9-6.7,0.8-10.1V338h1.8c3.3,0,6-2.7,6-6c0-11.3-6-21.6-15.8-27.2
	C128,298.6,135.5,295,143.4,295z M47,344.5c-0.1-20,16-36.3,36-36.3h0.1c2.5,0,6.7,0.9,11.9,2.5c4,1.2,8.2,1.9,12.4,1.9
	c8.4-0.1,15.9,5.4,18.4,13.5h-44c-8.2-0.1-14.8,6.4-14.9,14.6v0.1c0,7.4-6,13.3-13.4,13.3h-0.1H47V344.5z M47,376.9V366h6.4
	c14,0.1,25.4-11.2,25.5-25.2v-0.1c0-1.5,1.3-2.7,2.8-2.7h0.1h19.9c1.6,9.1,8.3,16.5,17.3,18.9v20c0,19.9-16.1,36-36,36
	S47,396.8,47,376.9L47,376.9z M31,461.9c-0.1-14.2,11.3-25.8,25.5-25.9c0.1,0,0.2,0,0.4,0h52c14.3-0.1,26,11.4,26.1,25.8
	c0,0.1,0,0.1,0,0.2v32H31V461.9z"/>
</svg>
