<svg height="512" viewBox="0 0 512 512" width="512" xmlns="http://www.w3.org/2000/svg"><path d="m462.457 364.663-62.24-62.24a71.926 71.926 0 0 0 -81.88-14.028l-30.389-30.4 55.885-55.887h53.255a8 8 0 0 0 5.657-2.342l50.912-50.911a8 8 0 0 0 0-11.315l-79.2-79.2a8 8 0 0 0 -11.314 0l-50.911 50.912a8 8 0 0 0 -2.343 5.657v53.255l-55.887 55.886-55.06-55.06v-53.24a8 8 0 0 0 -2.343-5.657l-39.6-39.6a24.034 24.034 0 0 0 -33.941 0l-56.558 56.57a24 24 0 0 0 0 33.943l39.6 39.6a8 8 0 0 0 5.657 2.342h53.242l55.06 55.061-37.926 37.926-16.95-16.951a24.037 24.037 0 0 0 -33.948 0l-45.285 45.2a72.224 72.224 0 0 0 -20.35 61.109l6.8 47.519a8 8 0 0 0 6.787 6.787l47.508 6.8a70.914 70.914 0 0 0 10.153.729 72.321 72.321 0 0 0 50.974-21.075l45.195-45.275a24.03 24.03 0 0 0 0-33.953l-16.95-16.95 37.927-37.927 30.406 30.394a71.853 71.853 0 0 0 14.023 81.875l62.24 62.24a8 8 0 0 0 11.314 0l90.48-90.479a8 8 0 0 0 0-11.315zm-137.082-46.6a20.817 20.817 0 0 1 5.993 17.307 20.8 20.8 0 0 1 -17.306-5.993l-26.95-26.948 11.314-11.315zm-103.649-16.476-11.313-11.313 107.48-107.48 11.313 11.313zm147.074-226.274 67.886 67.887-11.313 11.31-67.882-67.883zm22.631 67.887-14.631 14.623h-16l-6.627-6.627v-16l14.627-14.627zm-65.538-24.97 20.284-20.285 11.313 11.314-16.97 16.97a8 8 0 0 0 -2.343 5.657v22.624a8 8 0 0 0 2.343 5.657l11.313 11.313a8 8 0 0 0 5.657 2.343h22.628a8 8 0 0 0 5.656-2.343l16.971-16.97 11.314 11.313-20.284 20.284h-49.942l-17.94-17.94zm-248.084 20.148 56.568-56.568a8.009 8.009 0 0 1 11.314 0l5.657 5.656-67.882 67.882-5.656-5.656a8 8 0 0 1 0-11.314zm62.226-16.971 14.627 14.627v16l-6.627 6.627h-16l-14.628-14.628zm-45.255 45.255 11.313-11.314 16.971 16.971a8 8 0 0 0 5.657 2.343h22.627a8 8 0 0 0 5.657-2.343l11.314-11.313a8 8 0 0 0 2.343-5.657v-22.628a8 8 0 0 0 -2.343-5.658l-16.971-16.969 11.314-11.314 20.284 20.283v49.942l-17.941 17.941h-49.942zm84.854 28.3 11.326-11.326 51.732 51.733-11.326 11.326zm19.466 106.626 11.312 11.312-26.912 26.912a15.892 15.892 0 0 1 -11.313 4.688h-4.687v-4.687a15.894 15.894 0 0 1 4.687-11.313zm22.605 56.55a8.031 8.031 0 0 1 -.006 11.331l-45.2 45.274a56.186 56.186 0 0 1 -47.53 15.819l-41.579-5.952-5.952-41.594a56.152 56.152 0 0 1 15.814-47.516l45.284-45.2a8.017 8.017 0 0 1 11.327 0l16.949 16.949-9.939 9.94a31.789 31.789 0 0 0 -9.373 22.627v12.684a8 8 0 0 0 8 8h12.687a32.283 32.283 0 0 0 6.054-.574l3.887 3.887-18.57 18.57a51.7 51.7 0 0 1 -43.679 14.559l-10.159-1.451a8 8 0 1 0 -2.262 15.84l10.158 1.451a66.772 66.772 0 0 0 9.431.669 67.857 67.857 0 0 0 47.825-19.751l24.228-24.229a8 8 0 0 0 0-11.315l-5.7-5.7c.483-.428.958-.867 1.418-1.327l9.94-9.94zm54.93-88.83 10.485 10.484-11.328 11.328-10.485-10.486zm89.685 180.178-56.583-56.586a55.864 55.864 0 0 1 -13.115-58.339l6.126 6.126a36.883 36.883 0 0 0 16.721 9.632l-3.164 15.82a8 8 0 0 0 2.185 7.222l61.94 62.013zm39.637-39.556-14.207 14.139-58.917-58.985 2.842-14.206a37.428 37.428 0 0 0 4.879-1.264 8 8 0 0 0 5.06-5.059 37.447 37.447 0 0 0 1.265-4.88l14.245-2.873 58.925 58.986zm25.391-25.472-61.938-62a8.005 8.005 0 0 0 -7.242-2.187l-15.86 3.2a36.9 36.9 0 0 0 -9.619-16.721l-6.142-6.142a55.995 55.995 0 0 1 58.353 13.129l56.583 56.583z"/></svg>