<?xml version="1.0"?>
<svg xmlns="http://www.w3.org/2000/svg" viewBox="0 0 512 512" width="512" height="512"><g id="outline"><path d="M415.269,72.364A40.067,40.067,0,0,0,376,40c-.67,0-1.343.017-2.015.052a55.995,55.995,0,0,0-96.624,8.035A40.076,40.076,0,0,0,242.023,75.43,71.566,71.566,0,0,0,218.24,88.423a63.96,63.96,0,0,0-109.683,15.836,40.012,40.012,0,0,0-43.365,30.058A60,60,0,0,0,92,248H228a60.046,60.046,0,0,0,53.043-32H408a72,72,0,0,0,7.269-143.636ZM228,232H92a44,44,0,0,1-16.689-84.715,8,8,0,0,0,4.9-6.381,24,24,0,0,1,31.21-19.731,8,8,0,0,0,10.2-5.551A48,48,0,0,1,216,128a48.672,48.672,0,0,1-.5,6.867A8,8,0,0,0,223.422,144H228a44,44,0,0,1,0,88Zm180-32H286.792A60.022,60.022,0,0,0,232,128.132V128a63.621,63.621,0,0,0-5.391-25.669,55.687,55.687,0,0,1,23.9-12.685,8,8,0,0,0,5.933-6.245A24.019,24.019,0,0,1,280,64c.612,0,1.277.031,2.033.094a8,8,0,0,0,8.218-5.325A40,40,0,0,1,362.92,52.5a8.007,8.007,0,0,0,8.5,3.946A23.994,23.994,0,0,1,400,80a8,8,0,0,0,8,8,56,56,0,0,1,0,112Z"/><path d="M94.156,411.938a8,8,0,0,0-5.335-5.96l-17-5.579a8,8,0,0,0-7.83,1.64l-13.329,11.93a8,8,0,0,0-2.495,7.6l3.667,17.509a8,8,0,0,0,5.335,5.961l17,5.578A8,8,0,0,0,82,448.979l13.33-11.93a8,8,0,0,0,2.495-7.6ZM74.77,433.976l-8.22-2.7-1.773-8.467,6.446-5.769,8.22,2.7,1.773,8.468Z"/><path d="M268.163,451.938a8,8,0,0,0-5.335-5.96l-17-5.579a8,8,0,0,0-7.83,1.64l-13.33,11.93a8,8,0,0,0-2.5,7.6l3.667,17.509a8,8,0,0,0,5.336,5.961l17,5.578a8,8,0,0,0,7.829-1.64l13.329-11.93a8,8,0,0,0,2.5-7.6Zm-19.386,22.038-8.22-2.7-1.773-8.467,6.446-5.769,8.22,2.7,1.773,8.468Z"/><path d="M340.662,376A8,8,0,0,0,346,373.961l13.33-11.93a8,8,0,0,0,2.5-7.6l-3.667-17.509a8,8,0,0,0-5.336-5.961l-17-5.578a8,8,0,0,0-7.829,1.64l-13.329,11.93a8,8,0,0,0-2.5,7.6l3.667,17.509a8,8,0,0,0,5.335,5.96l17,5.579A8,8,0,0,0,340.662,376Zm-11.885-28.207,6.446-5.769,8.22,2.7,1.773,8.467-6.446,5.769-8.22-2.7Z"/><path d="M190.156,328.921a8,8,0,0,0-5.336-5.961l-17-5.578a8,8,0,0,0-7.829,1.64l-13.329,11.93a8,8,0,0,0-2.5,7.6l3.667,17.509a8,8,0,0,0,5.335,5.96l17,5.579a8,8,0,0,0,7.83-1.64l13.33-11.93a8,8,0,0,0,2.5-7.6ZM170.77,350.958l-8.22-2.7-1.773-8.468,6.446-5.769,8.22,2.7,1.773,8.467Z"/><path d="M244.508,357.3l-15.491,8.944a8,8,0,0,0-4,6.928v17.889a8,8,0,0,0,4,6.928l15.491,8.944a8,8,0,0,0,8,0L268,397.984a8,8,0,0,0,4-6.928V373.167a8,8,0,0,0-4-6.928L252.508,357.3A8,8,0,0,0,244.508,357.3ZM256,386.437l-7.492,4.325-7.491-4.325v-8.651l7.491-4.326L256,377.786Z"/><path d="M443.1,424a8.005,8.005,0,0,0-5.658-5.657l-17.279-4.63a8.009,8.009,0,0,0-7.727,2.071l-12.649,12.65a8,8,0,0,0-2.07,7.727l4.63,17.279A8,8,0,0,0,408,459.1l17.278,4.63a8,8,0,0,0,7.727-2.071l12.65-12.649a8,8,0,0,0,2.071-7.727ZM424.96,447.077l-8.356-2.239-2.239-8.356,6.116-6.117,8.357,2.239,2.239,8.356Z"/><path d="M159.94,432.562a8,8,0,0,0-10.382,4.493l-12.414,31.358L132.6,459.32a72.707,72.707,0,0,0-15.1-20.349,8,8,0,1,0-11,11.622,56.746,56.746,0,0,1,11.785,15.883l12.551,25.1A8,8,0,0,0,137.991,496c.116,0,.233,0,.349-.007a8,8,0,0,0,7.092-5.048l19-48A8,8,0,0,0,159.94,432.562Z"/><path d="M178.945,384.562a8,8,0,0,0-10.383,4.493l-9.5,24a8,8,0,1,0,14.877,5.89l9.5-24A8,8,0,0,0,178.945,384.562Z"/><path d="M112,328a8,8,0,0,0,7.431-5.031l16-40a8,8,0,1,0-14.856-5.942l-16,40A8,8,0,0,0,112,328Z"/><path d="M416,344a8,8,0,0,0,7.431-5.031l16-40a8,8,0,0,0-14.856-5.942l-16,40A8,8,0,0,0,416,344Z"/><path d="M359.5,292.849l-6.858,16a8,8,0,1,0,14.708,6.3l6.857-16a8,8,0,0,0-14.707-6.3Z"/><path d="M390.521,240.646a8,8,0,0,0-10.5,4.2l-6.857,16a8,8,0,1,0,14.707,6.3l6.857-16A8,8,0,0,0,390.521,240.646Z"/><path d="M194.009,272.647a8,8,0,0,0-10.5,4.2l-6.858,16a8,8,0,1,0,14.708,6.3l6.857-16A8,8,0,0,0,194.009,272.647Z"/><path d="M264,344a8,8,0,0,0,7.358-4.851l6.857-16a8,8,0,0,0-14.707-6.3l-6.858,16A8.005,8.005,0,0,0,264,344Z"/><path d="M294.521,264.646a8,8,0,0,0-10.5,4.2l-6.857,16a8,8,0,1,0,14.707,6.3l6.857-16A8,8,0,0,0,294.521,264.646Z"/><path d="M290.009,416.647a8,8,0,0,0-10.5,4.2l-6.858,16a8,8,0,1,0,14.708,6.3l6.857-16A8,8,0,0,0,290.009,416.647Z"/><path d="M391.759,449.342a8,8,0,0,0-11.093,2.223,55.11,55.11,0,0,0-5.3,10.073l-2.442,6.105-6.941-15.087a8,8,0,1,0-14.535,6.688l14.722,32A8,8,0,0,0,373.441,496l.205,0a8,8,0,0,0,7.224-5.027l9.358-23.393a39.083,39.083,0,0,1,3.754-7.143A8,8,0,0,0,391.759,449.342Z"/><path d="M354.948,428.656l-3.68-8a8,8,0,0,0-14.536,6.688l3.681,8a8,8,0,1,0,14.535-6.688Z"/><path d="M112.006,400a8,8,0,0,0,7.149-11.58A36.744,36.744,0,0,0,86.111,368H80a8,8,0,0,0,0,16h6.111a20.833,20.833,0,0,1,18.734,11.578A8,8,0,0,0,112.006,400Z"/><path d="M392,384a8,8,0,0,0,8,8,11.243,11.243,0,0,1,8,3.313l2.343,2.343a8,8,0,0,0,11.314-11.312L419.314,384A27.135,27.135,0,0,0,400,376,8,8,0,0,0,392,384Z"/></g></svg>
