<svg height="512" viewBox="0 0 64 64" width="512" xmlns="http://www.w3.org/2000/svg"><path d="m61 51h-2v-38a2.006 2.006 0 0 0 2-2v-6a3.009 3.009 0 0 0 -3-3h-26a3.009 3.009 0 0 0 -3 3v6a2.006 2.006 0 0 0 2 2v9h-2a1 1 0 0 0 -1 1v2h-2v-22a1 1 0 0 0 -1-1h-13a1 1 0 0 0 -1 1v14h-2v-6a1 1 0 0 0 -1-1 1 1 0 0 0 -1 1v7a1 1 0 0 0 1 1h3v30.59l-6.41 6.41h-1.59a1 1 0 0 0 -1 1v4a1 1 0 0 0 1 1h22a1 1 0 0 0 1-1v-4a1 1 0 0 0 -1-1h-1.59l-6.41-6.41v-41.59h3v22a1 1 0 0 0 1 1h7v2a1 1 0 0 0 1 1h2v17h-2a1 1 0 0 0 -1 1v5a1 1 0 0 0 1 1h3a4 4 0 0 0 8 0h10a4 4 0 0 0 8 0h3a1 1 0 0 0 1-1v-5a1 1 0 0 0 -1-1zm-48-36h2v11h-2zm0 13h2v21h-2zm11 30v2h-20v-2zm-3.41-2h-13.18l5-5h3.18zm7.41-27h-6v-22a1 1 0 0 0 -1-1h-5a1 1 0 0 0 -1 1v6h-2v-9h11v22a1 1 0 0 0 1 1h3zm21-25h9a1 1 0 0 1 1 1v6h-10zm8 9v38h-24v-38zm-14-9h4v7h-4zm-12 1a1 1 0 0 1 1-1h9v7h-10zm-1 27v-8h1v8zm6 28a2 2 0 1 1 2-2 2.006 2.006 0 0 1 -2 2zm18 0a2 2 0 1 1 2-2 2.006 2.006 0 0 1 -2 2zm6-4h-2.56a3.958 3.958 0 0 0 -6.88 0h-11.12a3.958 3.958 0 0 0 -6.88 0h-2.56v-3h30z"/><path d="m44 6h2v2h-2z"/><path d="m45 34c-5.047 0-9-2.636-9-6s3.953-6 9-6 9 2.636 9 6-3.953 6-9 6zm0-10c-3.794 0-7 1.832-7 4s3.206 4 7 4 7-1.832 7-4-3.206-4-7-4z"/></svg>