<svg id="Grupo_233" data-name="Grupo 233" xmlns="http://www.w3.org/2000/svg" width="23.566" height="23.772" viewBox="0 0 23.566 23.772">
  <path id="Trazado_153" data-name="Trazado 153" d="M546.763,2566.141c.643-1.914,1.234-3.5,1.689-5.128a2.739,2.739,0,0,0-.116-1.76,11.635,11.635,0,1,1,12.33,6.173,10.941,10.941,0,0,1-6.629-.838,2.543,2.543,0,0,0-2.091-.106C550.325,2565.047,548.677,2565.534,546.763,2566.141Zm2.71-2.68c1.12-.341,1.955-.546,2.751-.853a2.292,2.292,0,0,1,2.069.17,9.508,9.508,0,0,0,6.483.869,9.862,9.862,0,0,0-3.816-19.349,9.824,9.824,0,0,0-6.731,14.668,1.907,1.907,0,0,1,.146,1.778C550.072,2561.538,549.834,2562.359,549.473,2563.461Z" transform="translate(-546.763 -2542.369)" fill="#00193a"/>
  <path id="Trazado_154" data-name="Trazado 154" d="M559.3,2557.152a10.553,10.553,0,0,1-4.632-1.939,11.444,11.444,0,0,1-4.323-6.044,2.951,2.951,0,0,1,.987-3.058,1.2,1.2,0,0,1,2.005.459c.179.428.305.878.5,1.3a1.319,1.319,0,0,1-.277,1.712,1.056,1.056,0,0,0-.116,1.576,8.755,8.755,0,0,0,3.25,3.008c.686.368,1.216.309,1.618-.336.55-.887,1.211-.893,1.991-.344.136.095.321.127.434.239.4.389,1,.75,1.1,1.214.175.784-.407,1.372-1.105,1.711A12.29,12.29,0,0,1,559.3,2557.152Z" transform="translate(-544.032 -2539.717)" fill="#00193a"/>
</svg>
