<svg id="a2e59377-428e-431f-8a02-4318850251a6" data-name="Capa 1" xmlns="http://www.w3.org/2000/svg" viewBox="0 0 621.02 640"><defs><style>.bdbdc1cb-66d4-40ea-8b4d-82f1c66b5aba{fill:#1d1d1b;}.e9dc6242-f5da-478e-8366-86c60e6e5c2a{fill:#fff;}.eb327f31-b8f2-41b6-b634-6565dd03da99{fill:#c6c6c5;}.f6ea6103-86d6-4ef2-9356-394608c2cfd6{fill:#3b9dd7;}.abfb883a-3a06-45ab-8619-416e129d8d4c{fill:#312782;}.a280ab71-3fb4-4b08-8f6c-8f2fb61879fa{fill:#e20613;}</style></defs><rect class="bdbdc1cb-66d4-40ea-8b4d-82f1c66b5aba" x="5.37" y="5" width="610.65" height="545.8"/><path class="e9dc6242-f5da-478e-8366-86c60e6e5c2a" d="M611,10V545.8H10.37V10H611M621,0H.37V555.8H621V0Z"/><polygon class="eb327f31-b8f2-41b6-b634-6565dd03da99" points="410.28 325.99 187.19 325.99 187.19 92.09 410.28 325.99"/><polygon class="f6ea6103-86d6-4ef2-9356-394608c2cfd6" points="219.19 92.1 445.03 92.1 445.03 317.93 219.19 92.1"/><path class="e9dc6242-f5da-478e-8366-86c60e6e5c2a" d="M134.73,472.57a44.88,44.88,0,0,1-10.52,15.27A49.86,49.86,0,0,1,108,498a56.07,56.07,0,0,1-20.69,3.71H49.74V405.46H87.29A56.89,56.89,0,0,1,108,409.1a48.9,48.9,0,0,1,16.23,10.11,45.15,45.15,0,0,1,10.52,15.19,48,48,0,0,1,3.71,18.91v.28A48.41,48.41,0,0,1,134.73,472.57Zm-18.43-19a31.4,31.4,0,0,0-2.13-11.69,27.4,27.4,0,0,0-5.91-9.21,26.5,26.5,0,0,0-9.15-6,32,32,0,0,0-11.82-2.12H70.92v58H87.29a32.57,32.57,0,0,0,11.82-2.06,25.36,25.36,0,0,0,9.15-5.91,27.64,27.64,0,0,0,5.91-9.08,30.68,30.68,0,0,0,2.13-11.68Z"/><path class="e9dc6242-f5da-478e-8366-86c60e6e5c2a" d="M251.48,472.91a49.22,49.22,0,0,1-26.88,26.54A53.11,53.11,0,0,1,204,503.37a52.51,52.51,0,0,1-20.49-3.92,51,51,0,0,1-16.16-10.58,47.37,47.37,0,0,1-10.59-15.69A49.33,49.33,0,0,1,153,453.87v-.28a48.58,48.58,0,0,1,3.85-19.32,49.3,49.3,0,0,1,26.88-26.54,52.89,52.89,0,0,1,20.56-3.92,52.36,52.36,0,0,1,20.49,3.92A51.07,51.07,0,0,1,241,418.31,47.37,47.37,0,0,1,251.55,434a49.37,49.37,0,0,1,3.78,19.31v.28A48.54,48.54,0,0,1,251.48,472.91Zm-18.29-19.32a32.12,32.12,0,0,0-2.13-11.69,28.82,28.82,0,0,0-15.34-16.15A28.1,28.1,0,0,0,204,423.33a28.78,28.78,0,0,0-11.76,2.34,26.93,26.93,0,0,0-9.08,6.47,30.48,30.48,0,0,0-5.91,9.56,31.51,31.51,0,0,0-2.13,11.61v.28a32.12,32.12,0,0,0,2.13,11.69,29,29,0,0,0,15.26,16.16,28.16,28.16,0,0,0,11.76,2.4A28.92,28.92,0,0,0,216,481.51a26.7,26.7,0,0,0,9.14-6.46,30.44,30.44,0,0,0,5.92-9.56,31.56,31.56,0,0,0,2.13-11.62Z"/><path class="e9dc6242-f5da-478e-8366-86c60e6e5c2a" d="M349.53,501.72V438.88L322.43,480h-.54l-26.82-40.7v62.43h-20.9V405.46H297l25.3,40.7,25.3-40.7h22.83v96.26Z"/><path class="e9dc6242-f5da-478e-8366-86c60e6e5c2a" d="M465.18,501.72l-8.8-21.59H415.67l-8.8,21.59H385.28l41.26-97h19.53l41.25,97ZM436,430.22l-12.79,31.2h25.58Z"/><path class="e9dc6242-f5da-478e-8366-86c60e6e5c2a" d="M545.77,425v76.73H524.58V425H495.3V405.46h79.76V425Z"/><path class="e9dc6242-f5da-478e-8366-86c60e6e5c2a" d="M35.92,626.42a19.85,19.85,0,0,1-8.46,3.93,27.36,27.36,0,0,1-5.6.52,22.18,22.18,0,0,1-8.71-1.7,21.48,21.48,0,0,1-6.94-4.67,21.13,21.13,0,0,1-4.56-7A22.42,22.42,0,0,1,0,609v-.12a22.2,22.2,0,0,1,6.21-15.56,21.21,21.21,0,0,1,7-4.75,22.9,22.9,0,0,1,9-1.73,27.74,27.74,0,0,1,5.45.49,22.33,22.33,0,0,1,4.47,1.34,19.19,19.19,0,0,1,3.72,2.07A25.34,25.34,0,0,1,39,593.36l-6,6.88A22.2,22.2,0,0,0,28,596.72a12.82,12.82,0,0,0-5.81-1.29,11.84,11.84,0,0,0-8.89,3.9,13.32,13.32,0,0,0-2.55,4.23,14.35,14.35,0,0,0-.92,5.15v.12a14.54,14.54,0,0,0,.92,5.17,13.59,13.59,0,0,0,2.52,4.27,12.1,12.1,0,0,0,3.9,2.89,11.7,11.7,0,0,0,5,1.06,13,13,0,0,0,6.18-1.34,24,24,0,0,0,5-3.65l6,6A31.3,31.3,0,0,1,35.92,626.42Z"/><path class="e9dc6242-f5da-478e-8366-86c60e6e5c2a" d="M78.23,620.49a17,17,0,0,1-3.71,5.39,17.56,17.56,0,0,1-5.6,3.65,18.31,18.31,0,0,1-7.06,1.34,18.53,18.53,0,0,1-7-1.31A17.17,17.17,0,0,1,49.28,626a16.63,16.63,0,0,1-3.68-5.37,16.33,16.33,0,0,1-1.34-6.6v-.12a16.44,16.44,0,0,1,1.34-6.61,16.87,16.87,0,0,1,3.71-5.38,17.61,17.61,0,0,1,5.61-3.65A18.09,18.09,0,0,1,62,596.9a18.47,18.47,0,0,1,7,1.3,17.09,17.09,0,0,1,5.57,3.6,16.76,16.76,0,0,1,3.68,5.35,16.44,16.44,0,0,1,1.34,6.61v.12A16.44,16.44,0,0,1,78.23,620.49Zm-7.79-6.61a9.54,9.54,0,0,0-.61-3.44,8.77,8.77,0,0,0-1.76-2.86,8.55,8.55,0,0,0-2.74-2,8.18,8.18,0,0,0-3.47-.73,8.63,8.63,0,0,0-3.56.7,8,8,0,0,0-2.65,1.91A8.62,8.62,0,0,0,54,610.32a10.31,10.31,0,0,0-.58,3.44v.12a9.84,9.84,0,0,0,.61,3.44,8.77,8.77,0,0,0,4.48,4.84,8.06,8.06,0,0,0,3.5.73,8.5,8.5,0,0,0,3.56-.7,7.72,7.72,0,0,0,2.65-1.92,8.34,8.34,0,0,0,1.67-2.82,10.12,10.12,0,0,0,.58-3.45Z"/><path class="e9dc6242-f5da-478e-8366-86c60e6e5c2a" d="M106.91,630.14V612a7.32,7.32,0,0,0-1.47-5,5.17,5.17,0,0,0-4.14-1.67A5.48,5.48,0,0,0,97.07,607a7.08,7.08,0,0,0-1.55,5v18.16H86.27V597.5h9.25v4.67a20.38,20.38,0,0,1,1.73-2,12.32,12.32,0,0,1,2.11-1.69,10.1,10.1,0,0,1,5.72-1.59c3.53,0,6.26,1.07,8.19,3.23s2.89,5.11,2.89,8.88v21.13Z"/><path class="e9dc6242-f5da-478e-8366-86c60e6e5c2a" d="M147.18,624.93a8.63,8.63,0,0,1-2.65,3.26,11.91,11.91,0,0,1-4,1.91,17.92,17.92,0,0,1-4.9.64,22.75,22.75,0,0,1-14-4.93l4-6.08a22,22,0,0,0,5.32,2.92,14.41,14.41,0,0,0,5,1,5.25,5.25,0,0,0,3-.66,2.08,2.08,0,0,0,.94-1.78v-.11a1.74,1.74,0,0,0-.55-1.28,4.39,4.39,0,0,0-1.49-.94,19.72,19.72,0,0,0-2.16-.77c-.81-.24-1.66-.5-2.56-.79a33.49,33.49,0,0,1-3.44-1.19,12.16,12.16,0,0,1-3.13-1.82,9.2,9.2,0,0,1-2.29-2.77,8.54,8.54,0,0,1-.88-4v-.11a9.88,9.88,0,0,1,1-4.42,9.68,9.68,0,0,1,2.55-3.25,10.73,10.73,0,0,1,3.78-2,15.86,15.86,0,0,1,4.66-.67,20.71,20.71,0,0,1,6.3,1,23.25,23.25,0,0,1,5.87,2.76l-3.53,6.39a30.44,30.44,0,0,0-4.75-2.22,12.33,12.33,0,0,0-4.08-.82,4.19,4.19,0,0,0-2.55.64,2,2,0,0,0-.86,1.62v.11a1.57,1.57,0,0,0,.55,1.19,5.87,5.87,0,0,0,1.46,1,17.69,17.69,0,0,0,2.1.89c.79.28,1.64.57,2.53.85,1.13.36,2.29.8,3.47,1.31a14.58,14.58,0,0,1,3.16,1.85,9.25,9.25,0,0,1,2.32,2.69,7.51,7.51,0,0,1,.91,3.83v.12A10.83,10.83,0,0,1,147.18,624.93Z"/><path class="e9dc6242-f5da-478e-8366-86c60e6e5c2a" d="M175.15,630.14v-4.67a19.11,19.11,0,0,1-1.73,2,12.34,12.34,0,0,1-2.1,1.69,10.16,10.16,0,0,1-5.73,1.59c-3.53,0-6.25-1.07-8.18-3.23s-2.89-5.11-2.89-8.88V597.5h9.25v18.16a7.38,7.38,0,0,0,1.46,5,5.21,5.21,0,0,0,4.14,1.66,5.48,5.48,0,0,0,4.23-1.66,7.09,7.09,0,0,0,1.55-5V597.5h9.26v32.64Z"/><path class="e9dc6242-f5da-478e-8366-86c60e6e5c2a" d="M193.11,630.14V585.7h9.26v44.44Z"/><path class="e9dc6242-f5da-478e-8366-86c60e6e5c2a" d="M226.17,630.17a14.76,14.76,0,0,1-4.08.52,15.3,15.3,0,0,1-3.86-.46,6.86,6.86,0,0,1-3-1.62,7.78,7.78,0,0,1-2-3,13.7,13.7,0,0,1-.7-4.72V605.42H208.7V597.5h3.89v-8.34h9.26v8.34h7.67v7.92h-7.67v13.94c0,2.12,1,3.17,3,3.17a9.46,9.46,0,0,0,4.57-1.16v7.43A14.67,14.67,0,0,1,226.17,630.17Z"/><path class="e9dc6242-f5da-478e-8366-86c60e6e5c2a" d="M268.73,620.49a17.22,17.22,0,0,1-3.72,5.39,17.56,17.56,0,0,1-5.6,3.65,18.27,18.27,0,0,1-7.06,1.34,18.48,18.48,0,0,1-7-1.31,17.06,17.06,0,0,1-5.57-3.59,16.65,16.65,0,0,1-3.69-5.37,16.33,16.33,0,0,1-1.34-6.6v-.12a16.44,16.44,0,0,1,1.34-6.61,16.9,16.9,0,0,1,3.72-5.38,17.56,17.56,0,0,1,5.6-3.65,18.09,18.09,0,0,1,7.06-1.34,18.47,18.47,0,0,1,7,1.3,16.81,16.81,0,0,1,9.26,8.95,16.44,16.44,0,0,1,1.34,6.61v.12A16.44,16.44,0,0,1,268.73,620.49Zm-7.8-6.61a9.76,9.76,0,0,0-.6-3.44,8.8,8.8,0,0,0-1.77-2.86,8.44,8.44,0,0,0-2.74-2,8.14,8.14,0,0,0-3.47-.73,8.66,8.66,0,0,0-3.56.7,8,8,0,0,0-2.65,1.91,8.62,8.62,0,0,0-1.68,2.84,10.3,10.3,0,0,0-.57,3.44v.12a9.84,9.84,0,0,0,.6,3.44,8.7,8.7,0,0,0,1.77,2.86,8.85,8.85,0,0,0,2.71,2,8.06,8.06,0,0,0,3.5.73,8.5,8.5,0,0,0,3.56-.7,7.63,7.63,0,0,0,2.65-1.92,8.53,8.53,0,0,0,1.68-2.82,10.36,10.36,0,0,0,.57-3.45Z"/><path class="e9dc6242-f5da-478e-8366-86c60e6e5c2a" d="M295.94,606.57a9.53,9.53,0,0,0-7.27,2.8q-2.66,2.8-2.65,8.71v12.06h-9.26V597.5H286v6.58a13.52,13.52,0,0,1,3.83-5.36,9.32,9.32,0,0,1,6.58-1.82v9.67Z"/><path class="e9dc6242-f5da-478e-8366-86c60e6e5c2a" d="M302.63,630.14V597.5h9.26v32.64Zm.67-36.22,6.89-10.79,8,3.48-7.79,7.31Z"/><path class="e9dc6242-f5da-478e-8366-86c60e6e5c2a" d="M339.71,630.14V626.6a12.52,12.52,0,0,1-4.08,3,13.27,13.27,0,0,1-5.78,1.13,14.35,14.35,0,0,1-4.35-.64,10.09,10.09,0,0,1-3.56-1.91,9.19,9.19,0,0,1-2.41-3.13,9.92,9.92,0,0,1-.88-4.3v-.12a10.23,10.23,0,0,1,1-4.63,8.92,8.92,0,0,1,2.71-3.23,12.21,12.21,0,0,1,4.15-1.91,20.47,20.47,0,0,1,5.32-.64,23.06,23.06,0,0,1,4.35.36,27.17,27.17,0,0,1,3.62,1V611a5.55,5.55,0,0,0-1.76-4.45,7.83,7.83,0,0,0-5.23-1.52,21.94,21.94,0,0,0-4.72.46,31.4,31.4,0,0,0-4.29,1.31l-2.32-7.06a36.85,36.85,0,0,1,5.6-1.89,29.34,29.34,0,0,1,7.06-.73q7.62,0,11.09,3.71t3.47,10.35v18.94ZM339.9,617a14.6,14.6,0,0,0-2.71-.88,14.83,14.83,0,0,0-3.2-.33,8.2,8.2,0,0,0-4.69,1.16,3.79,3.79,0,0,0-1.7,3.34v.12a3.42,3.42,0,0,0,1.4,2.93,6,6,0,0,0,3.65,1,8.2,8.2,0,0,0,5.27-1.59,5.06,5.06,0,0,0,2-4.14Z"/><path class="e9dc6242-f5da-478e-8366-86c60e6e5c2a" d="M376.3,630.14V587.52h9.38v42.62Z"/><path class="e9dc6242-f5da-478e-8366-86c60e6e5c2a" d="M416,630.14V612a7.32,7.32,0,0,0-1.47-5,5.17,5.17,0,0,0-4.13-1.67,5.49,5.49,0,0,0-4.24,1.67,7.08,7.08,0,0,0-1.55,5v18.16h-9.25V597.5h9.25v4.67a20.38,20.38,0,0,1,1.73-2,12.64,12.64,0,0,1,2.1-1.69,11.15,11.15,0,0,1,2.57-1.17,10.94,10.94,0,0,1,3.16-.42c3.54,0,6.26,1.07,8.19,3.23s2.89,5.11,2.89,8.88v21.13Z"/><path class="e9dc6242-f5da-478e-8366-86c60e6e5c2a" d="M448.39,630.17a14.76,14.76,0,0,1-4.08.52,15.38,15.38,0,0,1-3.87-.46,6.83,6.83,0,0,1-3-1.62,7.67,7.67,0,0,1-1.95-3,13.47,13.47,0,0,1-.7-4.72V605.42h-3.89V597.5h3.89v-8.34h9.25v8.34h7.67v7.92h-7.67v13.94c0,2.12,1,3.17,3,3.17a9.43,9.43,0,0,0,4.56-1.16v7.43A14.59,14.59,0,0,1,448.39,630.17Z"/><path class="e9dc6242-f5da-478e-8366-86c60e6e5c2a" d="M489,615.89c0,.33,0,.71-.09,1.16H466.16a7.78,7.78,0,0,0,2.77,4.78,8.33,8.33,0,0,0,5.2,1.61,10.31,10.31,0,0,0,4.15-.79,14.31,14.31,0,0,0,3.77-2.56l5.3,4.69a16.4,16.4,0,0,1-5.61,4.48,17.39,17.39,0,0,1-7.72,1.61,18.75,18.75,0,0,1-6.8-1.22,15.9,15.9,0,0,1-5.41-3.47,16.14,16.14,0,0,1-3.56-5.33A17.5,17.5,0,0,1,457,614v-.12a18.23,18.23,0,0,1,1.19-6.57,16.52,16.52,0,0,1,3.32-5.42,15.47,15.47,0,0,1,11.62-5,15.82,15.82,0,0,1,7.07,1.46,14.42,14.42,0,0,1,5,3.92,16.34,16.34,0,0,1,2.92,5.67,23.26,23.26,0,0,1,.94,6.66v.13C489,615.18,489,615.57,489,615.89Zm-11.16-9.65a6.1,6.1,0,0,0-4.7-1.91,6.18,6.18,0,0,0-4.71,1.88,9.41,9.41,0,0,0-2.35,5H480A9,9,0,0,0,477.8,606.24Z"/><path class="e9dc6242-f5da-478e-8366-86c60e6e5c2a" d="M527.56,630.66a12.64,12.64,0,0,1-3.41,5.32,14.14,14.14,0,0,1-5.69,3,29.18,29.18,0,0,1-8,1,32,32,0,0,1-7.67-.89,28.25,28.25,0,0,1-6.76-2.52l3.17-6.94a27.46,27.46,0,0,0,5.14,2.19,20.07,20.07,0,0,0,5.88.79q4.74,0,7-2.25c1.52-1.51,2.28-3.71,2.28-6.63v-1.59a16.79,16.79,0,0,1-4.5,3.9,12.26,12.26,0,0,1-6.16,1.4,15.33,15.33,0,0,1-5.47-1,13.78,13.78,0,0,1-4.63-3,14.28,14.28,0,0,1-3.2-4.78,16.64,16.64,0,0,1-1.18-6.48v-.12a16.07,16.07,0,0,1,1.22-6.48,14.57,14.57,0,0,1,3.22-4.79,13.66,13.66,0,0,1,4.63-3,15,15,0,0,1,5.41-1,12.4,12.4,0,0,1,6.22,1.39,18.36,18.36,0,0,1,4.32,3.47V597.5h9.26v25.27A24.61,24.61,0,0,1,527.56,630.66Zm-8-18.54a7.52,7.52,0,0,0-.61-3,7.29,7.29,0,0,0-1.67-2.41,7.73,7.73,0,0,0-2.53-1.55,9,9,0,0,0-3.16-.55,8.75,8.75,0,0,0-3.13.55,7.7,7.7,0,0,0-2.5,1.55,7.4,7.4,0,0,0-2.29,5.46v.12a7.1,7.1,0,0,0,2.26,5.48,8,8,0,0,0,5.66,2.07,9,9,0,0,0,3.16-.55,7.43,7.43,0,0,0,2.53-1.56,7,7,0,0,0,1.67-2.4,7.44,7.44,0,0,0,.61-3Z"/><path class="e9dc6242-f5da-478e-8366-86c60e6e5c2a" d="M556.14,606.57a9.54,9.54,0,0,0-7.27,2.8q-2.65,2.8-2.65,8.71v12.06H537V597.5h9.25v6.58a13.72,13.72,0,0,1,3.83-5.36,9.32,9.32,0,0,1,6.58-1.82v9.67Z"/><path class="e9dc6242-f5da-478e-8366-86c60e6e5c2a" d="M581.53,630.14V626.6a12.8,12.8,0,0,1-4.07,3,13.35,13.35,0,0,1-5.79,1.13,14.41,14.41,0,0,1-4.36-.64,10.18,10.18,0,0,1-3.56-1.91,9,9,0,0,1-2.4-3.13,9.92,9.92,0,0,1-.89-4.3v-.12a10.23,10.23,0,0,1,1-4.63,8.92,8.92,0,0,1,2.71-3.23,12.34,12.34,0,0,1,4.14-1.91,20.55,20.55,0,0,1,5.33-.64,23.14,23.14,0,0,1,4.35.36,28,28,0,0,1,3.62,1V611a5.58,5.58,0,0,0-1.76-4.45,7.9,7.9,0,0,0-5.25-1.52,22,22,0,0,0-4.71.46,32.28,32.28,0,0,0-4.29,1.31l-2.32-7.06a37.23,37.23,0,0,1,5.6-1.89,29.43,29.43,0,0,1,7.07-.73q7.61,0,11.08,3.71t3.47,10.35v18.94Zm.18-13.16a14.12,14.12,0,0,0-2.71-.88,14.76,14.76,0,0,0-3.2-.33,8.16,8.16,0,0,0-4.68,1.16,3.77,3.77,0,0,0-1.7,3.34v.12a3.43,3.43,0,0,0,1.39,2.93,6,6,0,0,0,3.66,1,8.13,8.13,0,0,0,5.26-1.59,5.06,5.06,0,0,0,2-4.14Z"/><path class="e9dc6242-f5da-478e-8366-86c60e6e5c2a" d="M598.89,630.14V585.7h9.24v44.44Z"/><path class="bdbdc1cb-66d4-40ea-8b4d-82f1c66b5aba" d="M253.06,211.74a64.73,64.73,0,1,1,64.73,64.73A64.72,64.72,0,0,1,253.06,211.74Z"/><path class="abfb883a-3a06-45ab-8619-416e129d8d4c" d="M271.87,211.74a44.52,44.52,0,1,1,44.52,44.52A44.52,44.52,0,0,1,271.87,211.74Z"/><path class="e9dc6242-f5da-478e-8366-86c60e6e5c2a" d="M292.87,211.74a24.91,24.91,0,1,1,24.92,24.9A24.92,24.92,0,0,1,292.87,211.74Z"/><path class="a280ab71-3fb4-4b08-8f6c-8f2fb61879fa" d="M308.34,212.76a9.44,9.44,0,1,1,9.45,9.43A9.46,9.46,0,0,1,308.34,212.76Z"/></svg>