<?xml version="1.0" encoding="utf-8"?>
<!-- Generator: Adobe Illustrator 25.4.1, SVG Export Plug-In . SVG Version: 6.00 Build 0)  -->
<svg version="1.2" baseProfile="tiny" id="Capa_1" xmlns="http://www.w3.org/2000/svg" xmlns:xlink="http://www.w3.org/1999/xlink"
	 x="0px" y="0px" viewBox="0 0 87 92.7" overflow="visible" xml:space="preserve">
<g>
	<g>
		<path fill="#FFFFFF" d="M7.6,91.7c-0.3,0.2-0.5,0.4-0.8,0.5c-0.3,0.1-0.6,0.3-1,0.3c-0.4,0.1-0.7,0.1-1.2,0.1
			c-0.7,0-1.3-0.1-1.9-0.4c-0.6-0.2-1.1-0.6-1.5-1c-0.4-0.4-0.7-0.9-1-1.5C0.1,89.2,0,88.6,0,87.9c0-0.7,0.1-1.3,0.3-1.8
			c0.2-0.6,0.6-1.1,1-1.5c0.4-0.4,0.9-0.8,1.5-1c0.6-0.2,1.2-0.4,1.9-0.4c0.4,0,0.8,0,1.1,0.1c0.3,0.1,0.7,0.2,0.9,0.3
			c0.3,0.1,0.6,0.3,0.8,0.5c0.2,0.2,0.5,0.4,0.7,0.6l-1,1.2c-0.4-0.3-0.8-0.6-1.2-0.8c-0.4-0.2-0.9-0.3-1.4-0.3
			c-0.4,0-0.8,0.1-1.2,0.3c-0.4,0.2-0.7,0.4-1,0.7c-0.3,0.3-0.5,0.6-0.6,1c-0.1,0.4-0.2,0.8-0.2,1.3c0,0.5,0.1,0.9,0.2,1.3
			c0.1,0.4,0.4,0.7,0.6,1c0.3,0.3,0.6,0.5,1,0.7c0.4,0.2,0.8,0.3,1.2,0.3c0.6,0,1-0.1,1.4-0.3c0.4-0.2,0.8-0.5,1.2-0.9l1,1
			C8.1,91.3,7.9,91.5,7.6,91.7z"/>
		<path fill="#FFFFFF" d="M17.5,90.5c-0.2,0.4-0.4,0.8-0.8,1.1c-0.3,0.3-0.7,0.6-1.2,0.8c-0.5,0.2-0.9,0.3-1.5,0.3
			c-0.5,0-1-0.1-1.5-0.3c-0.4-0.2-0.8-0.4-1.2-0.8c-0.3-0.3-0.6-0.7-0.8-1.1c-0.2-0.4-0.3-0.9-0.3-1.4c0-0.5,0.1-1,0.3-1.4
			c0.2-0.4,0.4-0.8,0.8-1.1c0.3-0.3,0.7-0.6,1.2-0.8c0.4-0.2,0.9-0.3,1.5-0.3s1,0.1,1.5,0.3c0.4,0.2,0.8,0.4,1.2,0.8
			c0.3,0.3,0.6,0.7,0.8,1.1c0.2,0.4,0.3,0.9,0.3,1.4C17.8,89.6,17.7,90,17.5,90.5z M16,88.2c-0.1-0.3-0.2-0.5-0.4-0.7
			c-0.2-0.2-0.4-0.4-0.7-0.5c-0.3-0.1-0.5-0.2-0.8-0.2c-0.3,0-0.6,0.1-0.9,0.2c-0.3,0.1-0.5,0.3-0.7,0.5c-0.2,0.2-0.3,0.4-0.4,0.7
			C12,88.5,12,88.8,12,89.1c0,0.3,0.1,0.6,0.2,0.9c0.1,0.3,0.2,0.5,0.4,0.7c0.2,0.2,0.4,0.4,0.7,0.5c0.3,0.1,0.5,0.2,0.8,0.2
			c0.3,0,0.6-0.1,0.9-0.2c0.3-0.1,0.5-0.3,0.7-0.5c0.2-0.2,0.3-0.4,0.4-0.7c0.1-0.3,0.1-0.6,0.1-0.9C16.2,88.8,16.1,88.5,16,88.2z"
			/>
		<path fill="#FFFFFF" d="M22,92.5h-1.6v-6.9H22v1.1c0.1-0.2,0.2-0.3,0.4-0.5c0.1-0.1,0.3-0.3,0.5-0.4c0.2-0.1,0.4-0.2,0.6-0.3
			c0.2-0.1,0.5-0.1,0.7-0.1c0.8,0,1.4,0.2,1.8,0.7c0.4,0.5,0.6,1.1,0.6,1.9v4.4H25v-3.9c0-0.5-0.1-1-0.4-1.2
			c-0.3-0.3-0.6-0.4-1.1-0.4c-0.5,0-0.8,0.1-1.1,0.4c-0.3,0.3-0.4,0.7-0.4,1.3V92.5z"/>
		<path fill="#FFFFFF" d="M34.3,91.4c-0.1,0.3-0.3,0.5-0.5,0.7c-0.2,0.2-0.5,0.3-0.8,0.4c-0.3,0.1-0.6,0.1-1,0.1
			c-0.5,0-1-0.1-1.5-0.3c-0.5-0.2-1-0.4-1.4-0.8l0.7-1.1c0.4,0.3,0.8,0.5,1.1,0.6c0.4,0.1,0.8,0.2,1.1,0.2c0.3,0,0.6-0.1,0.8-0.2
			c0.2-0.1,0.3-0.3,0.3-0.5v0c0-0.1,0-0.2-0.1-0.3c-0.1-0.1-0.2-0.2-0.3-0.3c-0.1-0.1-0.3-0.1-0.5-0.2c-0.2-0.1-0.4-0.1-0.6-0.2
			c-0.3-0.1-0.5-0.2-0.8-0.3c-0.3-0.1-0.5-0.2-0.7-0.4c-0.2-0.2-0.4-0.3-0.5-0.6c-0.1-0.2-0.2-0.5-0.2-0.8v0c0-0.3,0.1-0.6,0.2-0.9
			c0.1-0.3,0.3-0.5,0.5-0.7c0.2-0.2,0.5-0.3,0.8-0.4c0.3-0.1,0.6-0.1,1-0.1c0.4,0,0.9,0.1,1.3,0.2c0.4,0.1,0.8,0.3,1.2,0.6l-0.6,1.1
			c-0.3-0.2-0.7-0.4-1-0.5c-0.3-0.1-0.7-0.2-0.9-0.2c-0.3,0-0.5,0.1-0.7,0.2c-0.2,0.1-0.3,0.3-0.3,0.5v0c0,0.1,0,0.2,0.1,0.3
			c0.1,0.1,0.2,0.2,0.3,0.2c0.1,0.1,0.3,0.1,0.5,0.2c0.2,0.1,0.4,0.1,0.6,0.2c0.3,0.1,0.5,0.2,0.8,0.3c0.3,0.1,0.5,0.2,0.7,0.4
			c0.2,0.2,0.4,0.3,0.5,0.6c0.1,0.2,0.2,0.5,0.2,0.8v0C34.5,90.8,34.4,91.1,34.3,91.4z"/>
		<path fill="#FFFFFF" d="M41.7,85.6h1.6v6.9h-1.6v-1.1c-0.2,0.3-0.5,0.6-0.8,0.9c-0.3,0.2-0.8,0.4-1.3,0.4c-0.8,0-1.4-0.2-1.8-0.7
			c-0.4-0.5-0.6-1.1-0.6-1.9v-4.4h1.6v3.9c0,0.5,0.1,1,0.4,1.2c0.3,0.3,0.6,0.4,1.1,0.4c0.5,0,0.8-0.1,1.1-0.4
			c0.3-0.3,0.4-0.7,0.4-1.3V85.6z"/>
		<path fill="#FFFFFF" d="M46.4,92.5V83H48v9.5H46.4z"/>
		<path fill="#FFFFFF" d="M53,90.3c0,0.3,0.1,0.5,0.2,0.7c0.1,0.1,0.4,0.2,0.6,0.2c0.3,0,0.7-0.1,1-0.2v1.3
			c-0.2,0.1-0.4,0.2-0.6,0.3c-0.2,0.1-0.5,0.1-0.8,0.1c-0.3,0-0.6,0-0.8-0.1c-0.2-0.1-0.5-0.2-0.6-0.3c-0.2-0.2-0.3-0.4-0.4-0.6
			c-0.1-0.3-0.1-0.6-0.1-1V87h-0.9v-1.3h0.9v-1.9H53v1.9h1.9V87H53V90.3z"/>
		<path fill="#FFFFFF" d="M64,90.5c-0.2,0.4-0.4,0.8-0.8,1.1c-0.3,0.3-0.7,0.6-1.2,0.8c-0.5,0.2-0.9,0.3-1.5,0.3
			c-0.5,0-1-0.1-1.5-0.3c-0.4-0.2-0.8-0.4-1.2-0.8c-0.3-0.3-0.6-0.7-0.8-1.1c-0.2-0.4-0.3-0.9-0.3-1.4c0-0.5,0.1-1,0.3-1.4
			c0.2-0.4,0.4-0.8,0.8-1.1c0.3-0.3,0.7-0.6,1.2-0.8c0.4-0.2,0.9-0.3,1.5-0.3c0.5,0,1,0.1,1.5,0.3c0.4,0.2,0.8,0.4,1.2,0.8
			c0.3,0.3,0.6,0.7,0.8,1.1c0.2,0.4,0.3,0.9,0.3,1.4C64.3,89.6,64.2,90,64,90.5z M62.5,88.2c-0.1-0.3-0.2-0.5-0.4-0.7
			c-0.2-0.2-0.4-0.4-0.7-0.5c-0.3-0.1-0.5-0.2-0.9-0.2S60,86.9,59.7,87c-0.3,0.1-0.5,0.3-0.7,0.5c-0.2,0.2-0.3,0.4-0.4,0.7
			c-0.1,0.3-0.1,0.6-0.1,0.9c0,0.3,0.1,0.6,0.2,0.9c0.1,0.3,0.2,0.5,0.4,0.7c0.2,0.2,0.4,0.4,0.7,0.5c0.3,0.1,0.5,0.2,0.8,0.2
			c0.3,0,0.6-0.1,0.9-0.2c0.3-0.1,0.5-0.3,0.7-0.5c0.2-0.2,0.3-0.4,0.4-0.7c0.1-0.3,0.1-0.6,0.1-0.9C62.7,88.8,62.6,88.5,62.5,88.2z
			"/>
		<path fill="#FFFFFF" d="M68.5,92.5h-1.6v-6.9h1.6v1.6c0.2-0.5,0.5-0.9,0.9-1.3c0.4-0.3,0.9-0.5,1.5-0.4v1.7h-0.1
			c-0.3,0-0.7,0.1-1,0.2c-0.3,0.1-0.5,0.3-0.7,0.5c-0.2,0.2-0.4,0.5-0.5,0.9c-0.1,0.3-0.2,0.7-0.2,1.2V92.5z"/>
		<path fill="#FFFFFF" d="M75,90.9c0.4,0.3,0.8,0.5,1.3,0.5c0.4,0,0.7-0.1,1-0.2c0.3-0.1,0.6-0.3,0.8-0.6l0.9,0.8
			c-0.3,0.4-0.7,0.7-1.2,0.9c-0.5,0.2-1,0.4-1.6,0.4c-0.5,0-1-0.1-1.4-0.3c-0.4-0.2-0.8-0.4-1.1-0.7c-0.3-0.3-0.6-0.7-0.8-1.1
			c-0.2-0.4-0.3-0.9-0.3-1.5c0-0.5,0.1-1,0.2-1.4c0.2-0.4,0.4-0.8,0.7-1.1c0.3-0.3,0.7-0.6,1.1-0.8c0.4-0.2,0.9-0.3,1.4-0.3
			c0.5,0,1,0.1,1.4,0.3c0.4,0.2,0.8,0.5,1,0.8c0.3,0.3,0.5,0.7,0.6,1.2c0.1,0.5,0.2,0.9,0.2,1.4c0,0.1,0,0.1,0,0.2
			c0,0.1,0,0.1,0,0.2h-5.1C74.5,90.2,74.7,90.6,75,90.9z M77.9,88.6c0-0.3-0.1-0.5-0.2-0.7c-0.1-0.2-0.2-0.4-0.4-0.6
			c-0.1-0.2-0.3-0.3-0.5-0.4c-0.2-0.1-0.4-0.1-0.7-0.1c-0.5,0-0.9,0.2-1.2,0.5s-0.5,0.8-0.6,1.3H77.9z"/>
		<path fill="#FFFFFF" d="M86.8,91.4c-0.1,0.3-0.3,0.5-0.5,0.7c-0.2,0.2-0.5,0.3-0.8,0.4c-0.3,0.1-0.6,0.1-1,0.1
			c-0.5,0-1-0.1-1.5-0.3c-0.5-0.2-1-0.4-1.4-0.8l0.7-1.1c0.4,0.3,0.8,0.5,1.1,0.6c0.4,0.1,0.8,0.2,1.1,0.2c0.3,0,0.6-0.1,0.8-0.2
			c0.2-0.1,0.3-0.3,0.3-0.5v0c0-0.1,0-0.2-0.1-0.3c-0.1-0.1-0.2-0.2-0.3-0.3c-0.1-0.1-0.3-0.1-0.5-0.2c-0.2-0.1-0.4-0.1-0.6-0.2
			c-0.3-0.1-0.5-0.2-0.8-0.3c-0.3-0.1-0.5-0.2-0.7-0.4c-0.2-0.2-0.4-0.3-0.5-0.6c-0.1-0.2-0.2-0.5-0.2-0.8v0c0-0.3,0.1-0.6,0.2-0.9
			c0.1-0.3,0.3-0.5,0.5-0.7c0.2-0.2,0.5-0.3,0.8-0.4c0.3-0.1,0.6-0.1,1-0.1c0.4,0,0.9,0.1,1.3,0.2c0.4,0.1,0.8,0.3,1.2,0.6l-0.6,1.1
			c-0.3-0.2-0.7-0.4-1-0.5c-0.3-0.1-0.7-0.2-0.9-0.2c-0.3,0-0.5,0.1-0.7,0.2c-0.2,0.1-0.3,0.3-0.3,0.5v0c0,0.1,0,0.2,0.1,0.3
			c0.1,0.1,0.2,0.2,0.3,0.2c0.1,0.1,0.3,0.1,0.5,0.2c0.2,0.1,0.4,0.1,0.6,0.2c0.3,0.1,0.5,0.2,0.8,0.3c0.3,0.1,0.5,0.2,0.7,0.4
			c0.2,0.2,0.4,0.3,0.5,0.6c0.1,0.2,0.2,0.5,0.2,0.8v0C87,90.8,87,91.1,86.8,91.4z"/>
	</g>
	<g>
		<g>
			<rect x="0.8" y="0.8" width="85.3" height="76.3"/>
			<path fill="#FFFFFF" d="M85.3,1.5v74.8H1.5V1.5H85.3 M86.8,0H0v77.8h86.8V0L86.8,0z"/>
		</g>
		<g>
			<g>
				<path fill="#FFFFFF" d="M19,65.6c-0.3,0.8-0.8,1.5-1.4,2.1c-0.6,0.6-1.4,1.1-2.2,1.4c-0.9,0.3-1.8,0.5-2.8,0.5H7.4V56.4h5.1
					c1,0,2,0.2,2.8,0.5c0.9,0.3,1.6,0.8,2.2,1.4c0.6,0.6,1.1,1.3,1.4,2.1c0.3,0.8,0.5,1.7,0.5,2.6v0C19.6,63.9,19.4,64.8,19,65.6z
					 M16.5,63c0-0.6-0.1-1.1-0.3-1.6c-0.2-0.5-0.5-0.9-0.8-1.3c-0.3-0.4-0.8-0.6-1.3-0.8c-0.5-0.2-1-0.3-1.6-0.3h-2.2v8h2.2
					c0.6,0,1.1-0.1,1.6-0.3c0.5-0.2,0.9-0.5,1.3-0.8c0.3-0.4,0.6-0.8,0.8-1.2C16.4,64.2,16.5,63.6,16.5,63L16.5,63z"/>
				<path fill="#FFFFFF" d="M35.1,65.6c-0.4,0.8-0.8,1.5-1.5,2.2c-0.6,0.6-1.4,1.1-2.2,1.5c-0.9,0.4-1.8,0.5-2.8,0.5
					c-1,0-2-0.2-2.8-0.5c-0.9-0.4-1.6-0.8-2.2-1.5c-0.6-0.6-1.1-1.3-1.5-2.2c-0.3-0.8-0.5-1.7-0.5-2.6v0c0-0.9,0.2-1.8,0.5-2.6
					c0.4-0.8,0.8-1.5,1.5-2.2c0.6-0.6,1.4-1.1,2.2-1.5c0.9-0.4,1.8-0.5,2.8-0.5c1,0,2,0.2,2.8,0.5c0.9,0.4,1.6,0.8,2.2,1.5
					c0.6,0.6,1.1,1.3,1.5,2.1c0.3,0.8,0.5,1.7,0.5,2.6v0C35.6,63.9,35.4,64.8,35.1,65.6z M32.6,63c0-0.6-0.1-1.1-0.3-1.6
					c-0.2-0.5-0.5-0.9-0.8-1.3c-0.4-0.4-0.8-0.7-1.3-0.9c-0.5-0.2-1-0.3-1.6-0.3c-0.6,0-1.1,0.1-1.6,0.3c-0.5,0.2-0.9,0.5-1.2,0.9
					c-0.3,0.4-0.6,0.8-0.8,1.3c-0.2,0.5-0.3,1-0.3,1.6v0c0,0.6,0.1,1.1,0.3,1.6c0.2,0.5,0.5,0.9,0.8,1.3c0.4,0.4,0.8,0.7,1.3,0.9
					c0.5,0.2,1,0.3,1.6,0.3c0.6,0,1.1-0.1,1.6-0.3c0.5-0.2,0.9-0.5,1.3-0.9c0.3-0.4,0.6-0.8,0.8-1.3C32.5,64.1,32.6,63.6,32.6,63
					L32.6,63z"/>
				<path fill="#FFFFFF" d="M48.5,69.6V61l-3.7,5.6h-0.1L41,61v8.6h-2.9V56.4h3.1l3.5,5.6l3.5-5.6h3.1v13.2H48.5z"/>
				<path fill="#FFFFFF" d="M64.4,69.6l-1.2-3h-5.6l-1.2,3h-3l5.7-13.3h2.7l5.7,13.3H64.4z M60.4,59.8l-1.8,4.3h3.5L60.4,59.8z"/>
				<path fill="#FFFFFF" d="M75.4,59.1v10.5h-2.9V59.1h-4v-2.7h10.9v2.7H75.4z"/>
			</g>
			<g>
				<linearGradient id="SVGID_1_" gradientUnits="userSpaceOnUse" x1="25.7354" y1="25.8905" x2="56.3323" y2="25.8905">
					<stop  offset="0" style="stop-color:#FFFFFF"/>
					<stop  offset="1" style="stop-color:#858585"/>
				</linearGradient>
				<polygon fill="url(#SVGID_1_)" points="56.3,41.9 25.7,41.9 25.7,9.9 				"/>
				
					<linearGradient id="SVGID_00000062887256318810937880000001924428550927978405_" gradientUnits="userSpaceOnUse" x1="30.1233" y1="25.3374" x2="61.0951" y2="25.3374">
					<stop  offset="0" style="stop-color:#FFFFFF"/>
					<stop  offset="1" style="stop-color:#858585"/>
				</linearGradient>
				<polygon fill="url(#SVGID_00000062887256318810937880000001924428550927978405_)" points="30.1,9.9 61.1,9.9 61.1,40.8 				"/>
				<polygon fill="#E6332A" points="58.8,11.6 58.8,35.1 53.9,29.2 				"/>
				<polygon fill="#3B9ED8" points="27.7,39.9 52.1,39.9 45.9,35.1 				"/>
			</g>
		</g>
	</g>
</g>
</svg>
