<?xml version="1.0" encoding="utf-8"?>
<!-- Generator: Adobe Illustrator 25.4.1, SVG Export Plug-In . SVG Version: 6.00 Build 0)  -->
<svg version="1.1" id="Capa_1" xmlns="http://www.w3.org/2000/svg" xmlns:xlink="http://www.w3.org/1999/xlink" x="0px" y="0px"
	 viewBox="0 0 87 92.7" style="enable-background:new 0 0 87 92.7;" xml:space="preserve">
<style type="text/css">
	.st0{fill:#FFFFFF;}
	.st1{fill:url(#SVGID_1_);}
	.st2{fill:url(#SVGID_00000029745241240418005950000005054997012163776920_);}
	.st3{fill:#E6332A;}
	.st4{fill:#3B9ED8;}
</style>
<g>
	<g>
		<path d="M7.6,91.7c-0.3,0.2-0.5,0.4-0.8,0.5s-0.6,0.3-1,0.3c-0.4,0.1-0.7,0.1-1.2,0.1c-0.7,0-1.3-0.1-1.9-0.4
			c-0.6-0.2-1.1-0.6-1.5-1s-0.7-0.9-1-1.5C0.1,89.2,0,88.6,0,87.9s0.1-1.3,0.3-1.8c0.2-0.6,0.6-1.1,1-1.5s0.9-0.8,1.5-1
			s1.2-0.4,1.9-0.4c0.4,0,0.8,0,1.1,0.1c0.3,0.1,0.7,0.2,0.9,0.3c0.3,0.1,0.6,0.3,0.8,0.5s0.5,0.4,0.7,0.6l-1,1.2
			c-0.4-0.3-0.8-0.6-1.2-0.8c-0.4-0.2-0.9-0.3-1.4-0.3c-0.4,0-0.8,0.1-1.2,0.3c-0.4,0.2-0.7,0.4-1,0.7c-0.3,0.3-0.5,0.6-0.6,1
			s-0.2,0.8-0.2,1.3s0.1,0.9,0.2,1.3s0.4,0.7,0.6,1c0.3,0.3,0.6,0.5,1,0.7s0.8,0.3,1.2,0.3c0.6,0,1-0.1,1.4-0.3
			c0.4-0.2,0.8-0.5,1.2-0.9l1,1C8.1,91.3,7.9,91.5,7.6,91.7z"/>
		<path d="M17.5,90.5c-0.2,0.4-0.4,0.8-0.8,1.1c-0.3,0.3-0.7,0.6-1.2,0.8c-0.5,0.2-0.9,0.3-1.5,0.3c-0.5,0-1-0.1-1.5-0.3
			c-0.4-0.2-0.8-0.4-1.2-0.8c-0.3-0.3-0.6-0.7-0.8-1.1s-0.3-0.9-0.3-1.4s0.1-1,0.3-1.4s0.4-0.8,0.8-1.1c0.3-0.3,0.7-0.6,1.2-0.8
			c0.4-0.2,0.9-0.3,1.5-0.3s1,0.1,1.5,0.3c0.4,0.2,0.8,0.4,1.2,0.8c0.3,0.3,0.6,0.7,0.8,1.1c0.2,0.4,0.3,0.9,0.3,1.4
			S17.7,90,17.5,90.5z M16,88.2c-0.1-0.3-0.2-0.5-0.4-0.7s-0.4-0.4-0.7-0.5s-0.5-0.2-0.8-0.2s-0.6,0.1-0.9,0.2
			c-0.3,0.1-0.5,0.3-0.7,0.5s-0.3,0.4-0.4,0.7C12,88.5,12,88.8,12,89.1c0,0.3,0.1,0.6,0.2,0.9c0.1,0.3,0.2,0.5,0.4,0.7
			s0.4,0.4,0.7,0.5s0.5,0.2,0.8,0.2s0.6-0.1,0.9-0.2c0.3-0.1,0.5-0.3,0.7-0.5s0.3-0.4,0.4-0.7c0.1-0.3,0.1-0.6,0.1-0.9
			C16.2,88.8,16.1,88.5,16,88.2z"/>
		<path d="M22,92.5h-1.6v-6.9H22v1.1c0.1-0.2,0.2-0.3,0.4-0.5c0.1-0.1,0.3-0.3,0.5-0.4s0.4-0.2,0.6-0.3c0.2-0.1,0.5-0.1,0.7-0.1
			c0.8,0,1.4,0.2,1.8,0.7s0.6,1.1,0.6,1.9v4.4H25v-3.9c0-0.5-0.1-1-0.4-1.2c-0.3-0.3-0.6-0.4-1.1-0.4s-0.8,0.1-1.1,0.4
			C22.1,87.6,22,88,22,88.6V92.5z"/>
		<path d="M34.3,91.4c-0.1,0.3-0.3,0.5-0.5,0.7s-0.5,0.3-0.8,0.4s-0.6,0.1-1,0.1c-0.5,0-1-0.1-1.5-0.3c-0.5-0.2-1-0.4-1.4-0.8
			l0.7-1.1c0.4,0.3,0.8,0.5,1.1,0.6c0.4,0.1,0.8,0.2,1.1,0.2s0.6-0.1,0.8-0.2s0.3-0.3,0.3-0.5l0,0c0-0.1,0-0.2-0.1-0.3
			c-0.1-0.1-0.2-0.2-0.3-0.3c-0.1-0.1-0.3-0.1-0.5-0.2s-0.4-0.1-0.6-0.2c-0.3-0.1-0.5-0.2-0.8-0.3c-0.3-0.1-0.5-0.2-0.7-0.4
			c-0.2-0.2-0.4-0.3-0.5-0.6c-0.1-0.2-0.2-0.5-0.2-0.8l0,0c0-0.3,0.1-0.6,0.2-0.9s0.3-0.5,0.5-0.7s0.5-0.3,0.8-0.4s0.6-0.1,1-0.1
			s0.9,0.1,1.3,0.2s0.8,0.3,1.2,0.6l-0.6,1.1c-0.3-0.2-0.7-0.4-1-0.5s-0.7-0.2-0.9-0.2c-0.3,0-0.5,0.1-0.7,0.2s-0.3,0.3-0.3,0.5l0,0
			c0,0.1,0,0.2,0.1,0.3c0.1,0.1,0.2,0.2,0.3,0.2c0.1,0.1,0.3,0.1,0.5,0.2s0.4,0.1,0.6,0.2c0.3,0.1,0.5,0.2,0.8,0.3
			c0.3,0.1,0.5,0.2,0.7,0.4c0.2,0.2,0.4,0.3,0.5,0.6c0.1,0.2,0.2,0.5,0.2,0.8l0,0C34.5,90.8,34.4,91.1,34.3,91.4z"/>
		<path d="M41.7,85.6h1.6v6.9h-1.6v-1.1c-0.2,0.3-0.5,0.6-0.8,0.9c-0.3,0.2-0.8,0.4-1.3,0.4c-0.8,0-1.4-0.2-1.8-0.7
			c-0.4-0.5-0.6-1.1-0.6-1.9v-4.4h1.6v3.9c0,0.5,0.1,1,0.4,1.2c0.3,0.3,0.6,0.4,1.1,0.4s0.8-0.1,1.1-0.4s0.4-0.7,0.4-1.3L41.7,85.6
			L41.7,85.6z"/>
		<path d="M46.3,92.5V83h1.6v9.5H46.3z"/>
		<path d="M52.9,90.3c0,0.3,0.1,0.5,0.2,0.7c0.1,0.1,0.4,0.2,0.6,0.2c0.3,0,0.7-0.1,1-0.2v1.3c-0.2,0.1-0.4,0.2-0.6,0.3
			c-0.2,0.1-0.5,0.1-0.8,0.1s-0.6,0-0.8-0.1s-0.5-0.2-0.6-0.3c-0.2-0.2-0.3-0.4-0.4-0.6c-0.1-0.3-0.1-0.6-0.1-1V87h-0.9v-1.3h0.9
			v-1.9h1.5v1.9h1.9V87h-1.9C52.9,87,52.9,90.3,52.9,90.3z"/>
		<path d="M63.9,90.5c-0.2,0.4-0.4,0.8-0.8,1.1c-0.3,0.3-0.7,0.6-1.2,0.8c-0.5,0.2-0.9,0.3-1.5,0.3c-0.5,0-1-0.1-1.5-0.3
			c-0.4-0.2-0.8-0.4-1.2-0.8c-0.3-0.3-0.6-0.7-0.8-1.1s-0.3-0.9-0.3-1.4s0.1-1,0.3-1.4s0.4-0.8,0.8-1.1c0.3-0.3,0.7-0.6,1.2-0.8
			c0.4-0.2,0.9-0.3,1.5-0.3c0.5,0,1,0.1,1.5,0.3c0.4,0.2,0.8,0.4,1.2,0.8c0.3,0.3,0.6,0.7,0.8,1.1c0.2,0.4,0.3,0.9,0.3,1.4
			C64.2,89.6,64.1,90,63.9,90.5z M62.4,88.2c-0.1-0.3-0.2-0.5-0.4-0.7s-0.4-0.4-0.7-0.5s-0.5-0.2-0.9-0.2s-0.5,0.1-0.8,0.2
			s-0.5,0.3-0.7,0.5s-0.3,0.4-0.4,0.7c-0.1,0.3-0.1,0.6-0.1,0.9s0.1,0.6,0.2,0.9c0.1,0.3,0.2,0.5,0.4,0.7s0.4,0.4,0.7,0.5
			s0.5,0.2,0.8,0.2s0.6-0.1,0.9-0.2c0.3-0.1,0.5-0.3,0.7-0.5s0.3-0.4,0.4-0.7c0.1-0.3,0.1-0.6,0.1-0.9
			C62.6,88.8,62.5,88.5,62.4,88.2z"/>
		<path d="M68.4,92.5h-1.6v-6.9h1.6v1.6c0.2-0.5,0.5-0.9,0.9-1.3c0.4-0.3,0.9-0.5,1.5-0.4v1.7h-0.1c-0.3,0-0.7,0.1-1,0.2
			s-0.5,0.3-0.7,0.5s-0.4,0.5-0.5,0.9c-0.1,0.3-0.2,0.7-0.2,1.2L68.4,92.5L68.4,92.5z"/>
		<path d="M74.9,90.9c0.4,0.3,0.8,0.5,1.3,0.5c0.4,0,0.7-0.1,1-0.2s0.6-0.3,0.8-0.6l0.9,0.8c-0.3,0.4-0.7,0.7-1.2,0.9
			c-0.5,0.2-1,0.4-1.6,0.4c-0.5,0-1-0.1-1.4-0.3c-0.4-0.2-0.8-0.4-1.1-0.7S73,91,72.8,90.6s-0.3-0.9-0.3-1.5c0-0.5,0.1-1,0.2-1.4
			c0.2-0.4,0.4-0.8,0.7-1.1c0.3-0.3,0.7-0.6,1.1-0.8c0.4-0.2,0.9-0.3,1.4-0.3s1,0.1,1.4,0.3c0.4,0.2,0.8,0.5,1,0.8
			c0.3,0.3,0.5,0.7,0.6,1.2s0.2,0.9,0.2,1.4c0,0.1,0,0.1,0,0.2s0,0.1,0,0.2H74C74.4,90.2,74.6,90.6,74.9,90.9z M77.8,88.6
			c0-0.3-0.1-0.5-0.2-0.7s-0.2-0.4-0.4-0.6c-0.1-0.2-0.3-0.3-0.5-0.4s-0.4-0.1-0.7-0.1c-0.5,0-0.9,0.2-1.2,0.5
			c-0.3,0.3-0.5,0.8-0.6,1.3C74.2,88.6,77.8,88.6,77.8,88.6z"/>
		<path d="M86.7,91.4c-0.1,0.3-0.3,0.5-0.5,0.7s-0.5,0.3-0.8,0.4s-0.6,0.1-1,0.1c-0.5,0-1-0.1-1.5-0.3c-0.5-0.2-1-0.4-1.4-0.8
			l0.7-1.1c0.4,0.3,0.8,0.5,1.1,0.6c0.4,0.1,0.8,0.2,1.1,0.2c0.3,0,0.6-0.1,0.8-0.2c0.2-0.1,0.3-0.3,0.3-0.5l0,0
			c0-0.1,0-0.2-0.1-0.3c-0.1-0.1-0.2-0.2-0.3-0.3c-0.1-0.1-0.3-0.1-0.5-0.2s-0.4-0.1-0.6-0.2c-0.3-0.1-0.5-0.2-0.8-0.3
			c-0.3-0.1-0.5-0.2-0.7-0.4c-0.2-0.2-0.4-0.3-0.5-0.6c-0.1-0.2-0.2-0.5-0.2-0.8l0,0c0-0.3,0.1-0.6,0.2-0.9s0.3-0.5,0.5-0.7
			s0.5-0.3,0.8-0.4s0.6-0.1,1-0.1s0.9,0.1,1.3,0.2s0.8,0.3,1.2,0.6l-0.6,1.1c-0.3-0.2-0.7-0.4-1-0.5s-0.7-0.2-0.9-0.2
			c-0.3,0-0.5,0.1-0.7,0.2s-0.3,0.3-0.3,0.5l0,0c0,0.1,0,0.2,0.1,0.3c0.1,0.1,0.2,0.2,0.3,0.2c0.1,0.1,0.3,0.1,0.5,0.2
			s0.4,0.1,0.6,0.2c0.3,0.1,0.5,0.2,0.8,0.3c0.3,0.1,0.5,0.2,0.7,0.4c0.2,0.2,0.4,0.3,0.5,0.6c0.1,0.2,0.2,0.5,0.2,0.8l0,0
			C86.9,90.8,86.9,91.1,86.7,91.4z"/>
	</g>
	<g>
		<g>
			<rect x="0.8" y="0.8" width="85.5" height="76.5"/>
			<path class="st0" d="M85.5,1.5v75h-84v-75H85.5 M87,0H0v78h87V0L87,0z"/>
		</g>
		<g>
			<g>
				<path class="st0" d="M19,65.8c-0.3,0.8-0.8,1.5-1.4,2.1s-1.4,1.1-2.2,1.4c-0.9,0.3-1.8,0.5-2.8,0.5H7.4V56.5h5.1
					c1,0,2,0.2,2.8,0.5c0.9,0.3,1.6,0.8,2.2,1.4c0.6,0.6,1.1,1.3,1.4,2.1s0.5,1.7,0.5,2.6l0,0C19.6,64,19.4,64.9,19,65.8z
					 M16.5,63.1c0-0.6-0.1-1.1-0.3-1.6c-0.2-0.5-0.5-0.9-0.8-1.3c-0.3-0.4-0.8-0.6-1.3-0.8s-1-0.3-1.6-0.3h-2.2v8h2.2
					c0.6,0,1.1-0.1,1.6-0.3s0.9-0.5,1.3-0.8c0.3-0.4,0.6-0.8,0.8-1.2C16.4,64.3,16.5,63.7,16.5,63.1L16.5,63.1z"/>
				<path class="st0" d="M35.2,65.8c-0.4,0.8-0.8,1.5-1.5,2.2c-0.6,0.6-1.4,1.1-2.2,1.5c-0.9,0.4-1.8,0.5-2.8,0.5s-2-0.2-2.8-0.5
					c-0.9-0.4-1.6-0.8-2.2-1.5c-0.6-0.6-1.1-1.3-1.5-2.2c-0.3-0.8-0.5-1.7-0.5-2.6l0,0c0-0.9,0.2-1.8,0.5-2.6
					c0.4-0.8,0.8-1.5,1.5-2.2c0.6-0.6,1.4-1.1,2.2-1.5c0.9-0.4,1.8-0.5,2.8-0.5s2,0.2,2.8,0.5c0.9,0.4,1.6,0.8,2.2,1.5
					c0.6,0.6,1.1,1.3,1.5,2.1c0.3,0.8,0.5,1.7,0.5,2.6l0,0C35.7,64,35.5,64.9,35.2,65.8z M32.7,63.1c0-0.6-0.1-1.1-0.3-1.6
					s-0.5-0.9-0.8-1.3c-0.4-0.4-0.8-0.7-1.3-0.9s-1-0.3-1.6-0.3s-1.1,0.1-1.6,0.3s-0.9,0.5-1.2,0.9s-0.6,0.8-0.8,1.3s-0.3,1-0.3,1.6
					l0,0c0,0.6,0.1,1.1,0.3,1.6c0.2,0.5,0.5,0.9,0.8,1.3c0.4,0.4,0.8,0.7,1.3,0.9c0.5,0.2,1,0.3,1.6,0.3s1.1-0.1,1.6-0.3
					c0.5-0.2,0.9-0.5,1.3-0.9c0.3-0.4,0.6-0.8,0.8-1.3C32.6,64.2,32.7,63.7,32.7,63.1L32.7,63.1z"/>
				<path class="st0" d="M48.6,69.8v-8.6l-3.7,5.6h-0.1l-3.7-5.6v8.6h-2.9V56.5h3.1l3.5,5.6l3.5-5.6h3.1v13.2h-2.8V69.8z"/>
				<path class="st0" d="M64.5,69.8l-1.2-3h-5.6l-1.2,3h-3l5.7-13.3h2.7l5.7,13.3H64.5z M60.5,59.9l-1.8,4.3h3.5L60.5,59.9z"/>
				<path class="st0" d="M75.6,59.2v10.5h-2.9V59.2h-4v-2.7h10.9v2.7H75.6z"/>
			</g>
			<g>
				
					<linearGradient id="SVGID_1_" gradientUnits="userSpaceOnUse" x1="25.8" y1="571.95" x2="56.4705" y2="571.95" gradientTransform="matrix(1 0 0 1 0 -546)">
					<stop  offset="0" style="stop-color:#FFFFFF"/>
					<stop  offset="1" style="stop-color:#858585"/>
				</linearGradient>
				<polygon class="st1" points="56.4,42 25.8,42 25.8,9.9 				"/>
				
					<linearGradient id="SVGID_00000117641619749484756540000010750290745638358201_" gradientUnits="userSpaceOnUse" x1="30.2" y1="571.4" x2="61.2714" y2="571.4" gradientTransform="matrix(1 0 0 1 0 -546)">
					<stop  offset="0" style="stop-color:#FFFFFF"/>
					<stop  offset="1" style="stop-color:#858585"/>
				</linearGradient>
				<polygon style="fill:url(#SVGID_00000117641619749484756540000010750290745638358201_);" points="30.2,9.9 61.2,9.9 61.2,40.9 
									"/>
				<polygon class="st3" points="58.9,11.6 58.9,35.2 54,29.3 				"/>
				<polygon class="st4" points="27.8,40 52.2,40 46,35.2 				"/>
			</g>
		</g>
	</g>
</g>
</svg>
