<?xml version="1.0" encoding="utf-8"?>
<!-- Generator: Adobe Illustrator 25.4.1, SVG Export Plug-In . SVG Version: 6.00 Build 0)  -->
<svg version="1.1" id="Capa_1" xmlns="http://www.w3.org/2000/svg" xmlns:xlink="http://www.w3.org/1999/xlink" x="0px" y="0px"
	 viewBox="0 0 87 77.8" style="enable-background:new 0 0 87 77.8;" xml:space="preserve">
<style type="text/css">
	.st0{fill:#FFFFFF;}
	.st1{fill:url(#SVGID_1_);}
	.st2{fill:url(#SVGID_00000115502338961351048130000002888393657169236117_);}
	.st3{fill:#E6332A;}
	.st4{fill:#3B9ED8;}
</style>
<g>
	<g>
		<g>
			<rect x="0.8" y="0.8" width="85.3" height="76.3"/>
			<path class="st0" d="M85.3,1.5v74.8H1.5V1.5H85.3 M86.8,0H0v77.8h86.8V0L86.8,0z"/>
		</g>
		<g>
			<g>
				<path class="st0" d="M19,65.6c-0.3,0.8-0.8,1.5-1.4,2.1s-1.4,1.1-2.2,1.4c-0.9,0.3-1.8,0.5-2.8,0.5H7.4V56.4h5.1
					c1,0,2,0.2,2.8,0.5c0.9,0.3,1.6,0.8,2.2,1.4c0.6,0.6,1.1,1.3,1.4,2.1s0.5,1.7,0.5,2.6l0,0C19.6,63.9,19.4,64.8,19,65.6z
					 M16.5,63c0-0.6-0.1-1.1-0.3-1.6c-0.2-0.5-0.5-0.9-0.8-1.3c-0.3-0.4-0.8-0.6-1.3-0.8s-1-0.3-1.6-0.3h-2.2v8h2.2
					c0.6,0,1.1-0.1,1.6-0.3c0.5-0.2,0.9-0.5,1.3-0.8c0.3-0.4,0.6-0.8,0.8-1.2C16.4,64.2,16.5,63.6,16.5,63L16.5,63z"/>
				<path class="st0" d="M35.1,65.6c-0.4,0.8-0.8,1.5-1.5,2.2c-0.6,0.6-1.4,1.1-2.2,1.5c-0.9,0.4-1.8,0.5-2.8,0.5s-2-0.2-2.8-0.5
					c-0.9-0.4-1.6-0.8-2.2-1.5c-0.6-0.6-1.1-1.3-1.5-2.2c-0.3-0.8-0.5-1.7-0.5-2.6l0,0c0-0.9,0.2-1.8,0.5-2.6
					c0.4-0.8,0.8-1.5,1.5-2.2c0.6-0.6,1.4-1.1,2.2-1.5c0.9-0.4,1.8-0.5,2.8-0.5s2,0.2,2.8,0.5c0.9,0.4,1.6,0.8,2.2,1.5
					c0.6,0.6,1.1,1.3,1.5,2.1c0.3,0.8,0.5,1.7,0.5,2.6l0,0C35.6,63.9,35.4,64.8,35.1,65.6z M32.6,63c0-0.6-0.1-1.1-0.3-1.6
					s-0.5-0.9-0.8-1.3c-0.4-0.4-0.8-0.7-1.3-0.9s-1-0.3-1.6-0.3S27.5,59,27,59.2s-0.9,0.5-1.2,0.9c-0.3,0.4-0.6,0.8-0.8,1.3
					c-0.2,0.5-0.3,1-0.3,1.6l0,0c0,0.6,0.1,1.1,0.3,1.6c0.2,0.5,0.5,0.9,0.8,1.3c0.4,0.4,0.8,0.7,1.3,0.9c0.5,0.2,1,0.3,1.6,0.3
					s1.1-0.1,1.6-0.3c0.5-0.2,0.9-0.5,1.3-0.9c0.3-0.4,0.6-0.8,0.8-1.3C32.5,64.1,32.6,63.6,32.6,63L32.6,63z"/>
				<path class="st0" d="M48.5,69.6V61l-3.7,5.6h-0.1L41,61v8.6h-2.9V56.4h3.1l3.5,5.6l3.5-5.6h3.1v13.2H48.5z"/>
				<path class="st0" d="M64.4,69.6l-1.2-3h-5.6l-1.2,3h-3l5.7-13.3h2.7l5.7,13.3H64.4z M60.4,59.8l-1.8,4.3h3.5L60.4,59.8z"/>
				<path class="st0" d="M75.4,59.1v10.5h-2.9V59.1h-4v-2.7h10.9v2.7H75.4z"/>
			</g>
			<g>
				
					<linearGradient id="SVGID_1_" gradientUnits="userSpaceOnUse" x1="25.7354" y1="68.1" x2="56.3354" y2="68.1" gradientTransform="matrix(1 0 0 -1 0 94)">
					<stop  offset="0" style="stop-color:#FFFFFF"/>
					<stop  offset="1" style="stop-color:#858585"/>
				</linearGradient>
				<polygon class="st1" points="56.3,41.9 25.7,41.9 25.7,9.9 				"/>
				
					<linearGradient id="SVGID_00000048500851436902783880000006722682469590645388_" gradientUnits="userSpaceOnUse" x1="30.1" y1="68.65" x2="61.1" y2="68.65" gradientTransform="matrix(1 0 0 -1 0 94)">
					<stop  offset="0" style="stop-color:#FFFFFF"/>
					<stop  offset="1" style="stop-color:#858585"/>
				</linearGradient>
				<polygon style="fill:url(#SVGID_00000048500851436902783880000006722682469590645388_);" points="30.1,9.9 61.1,9.9 61.1,40.8 
									"/>
				<polygon class="st3" points="58.8,11.6 58.8,35.1 53.9,29.2 				"/>
				<polygon class="st4" points="27.7,39.9 52.1,39.9 45.9,35.1 				"/>
			</g>
		</g>
	</g>
</g>
</svg>
